M48
; DRILL file {KiCad 8.0.8} date 2025-02-03T18:10:07-0700
; FORMAT={-:-/ absolute / inch / decimal}
; #@! TF.CreationDate,2025-02-03T18:10:07-07:00
; #@! TF.GenerationSoftware,Kicad,Pcbnew,8.0.8
; #@! TF.FileFunction,Plated,1,2,PTH
FMAT,2
INCH
; #@! TA.AperFunction,Plated,PTH,ComponentDrill
T1C0.0315
; #@! TA.AperFunction,Plated,PTH,ComponentDrill
T2C0.0354
; #@! TA.AperFunction,Plated,PTH,ComponentDrill
T3C0.0374
; #@! TA.AperFunction,Plated,PTH,ComponentDrill
T4C0.0394
; #@! TA.AperFunction,Plated,PTH,ComponentDrill
T5C0.0433
%
G90
G05
T1
X4.8984Y-2.3819
X4.9575Y-3.4843
X5.2496Y-2.7953
X5.2984Y-2.3819
X5.3575Y-3.4843
X5.6496Y-2.7953
X5.9024Y-3.2677
X5.9827Y-3.5636
X6.0827Y-3.6636
X6.1827Y-3.5636
X6.3024Y-3.2677
X6.3976Y-2.0669
X6.3976Y-2.4669
X6.3976Y-2.5787
X6.3976Y-2.9787
T2
X5.1008Y-2.5433
X5.1008Y-2.6433
T3
X5.4921Y-2.3622
X5.4921Y-2.4606
X5.4921Y-2.5591
T4
X4.0638Y-2.6181
X4.1638Y-2.6181
X4.2276Y-3.5433
X4.2638Y-2.6181
X4.3276Y-3.5433
X4.3638Y-2.6181
X4.4276Y-3.5433
X4.4638Y-2.6181
X4.5276Y-3.5433
X4.5638Y-2.6181
X4.6638Y-2.6181
X4.677Y-1.937
X4.7638Y-2.6181
X4.777Y-1.937
X4.877Y-1.937
X4.977Y-1.937
X5.037Y-3.837
X5.077Y-1.937
X5.137Y-3.837
X5.177Y-1.937
X5.237Y-3.837
X5.277Y-1.937
X5.337Y-3.837
X5.377Y-1.937
X5.437Y-3.837
X5.477Y-1.937
X5.537Y-3.837
X5.577Y-1.937
X5.637Y-3.837
X5.737Y-1.937
X5.737Y-3.837
X5.837Y-1.937
X5.937Y-1.937
X5.937Y-3.837
X6.037Y-1.937
X6.037Y-3.837
X6.137Y-1.937
X6.137Y-3.837
X6.237Y-1.937
X6.237Y-3.837
X6.337Y-1.937
X6.337Y-3.837
X6.437Y-1.937
X6.437Y-3.837
T5
X5.3642Y-2.9823
X5.3642Y-3.1594
X5.4921Y-3.4843
X5.4921Y-3.6614
X5.6201Y-2.9823
X5.6201Y-3.1594
X5.748Y-3.4843
X5.748Y-3.6614
X5.9744Y-2.5492
X5.9744Y-2.7264
X5.9941Y-2.1752
X5.9941Y-2.3524
X5.9941Y-2.9232
X5.9941Y-3.1004
X6.2303Y-2.5492
X6.2303Y-2.7264
X6.25Y-2.1752
X6.25Y-2.3524
X6.25Y-2.9232
X6.25Y-3.1004
M30
