%TF.GenerationSoftware,KiCad,Pcbnew,8.0.8*%
%TF.CreationDate,2025-02-03T18:19:12-07:00*%
%TF.ProjectId,project1,70726f6a-6563-4743-912e-6b696361645f,rev?*%
%TF.SameCoordinates,Original*%
%TF.FileFunction,Soldermask,Bot*%
%TF.FilePolarity,Negative*%
%FSLAX46Y46*%
G04 Gerber Fmt 4.6, Leading zero omitted, Abs format (unit mm)*
G04 Created by KiCad (PCBNEW 8.0.8) date 2025-02-03 18:19:12*
%MOMM*%
%LPD*%
G01*
G04 APERTURE LIST*
G04 Aperture macros list*
%AMRoundRect*
0 Rectangle with rounded corners*
0 $1 Rounding radius*
0 $2 $3 $4 $5 $6 $7 $8 $9 X,Y pos of 4 corners*
0 Add a 4 corners polygon primitive as box body*
4,1,4,$2,$3,$4,$5,$6,$7,$8,$9,$2,$3,0*
0 Add four circle primitives for the rounded corners*
1,1,$1+$1,$2,$3*
1,1,$1+$1,$4,$5*
1,1,$1+$1,$6,$7*
1,1,$1+$1,$8,$9*
0 Add four rect primitives between the rounded corners*
20,1,$1+$1,$2,$3,$4,$5,0*
20,1,$1+$1,$4,$5,$6,$7,0*
20,1,$1+$1,$6,$7,$8,$9,0*
20,1,$1+$1,$8,$9,$2,$3,0*%
G04 Aperture macros list end*
%ADD10R,1.700000X1.700000*%
%ADD11O,1.700000X1.700000*%
%ADD12C,2.000000*%
%ADD13C,1.600000*%
%ADD14O,1.600000X1.600000*%
%ADD15RoundRect,0.250000X0.725000X-0.600000X0.725000X0.600000X-0.725000X0.600000X-0.725000X-0.600000X0*%
%ADD16O,1.950000X1.700000*%
%ADD17C,1.440000*%
%ADD18R,1.800000X1.800000*%
%ADD19C,1.800000*%
G04 APERTURE END LIST*
D10*
%TO.C,J1*%
X127940000Y-97460000D03*
D11*
X130480000Y-97460000D03*
X133020000Y-97460000D03*
X135560000Y-97460000D03*
X138100000Y-97460000D03*
X140640000Y-97460000D03*
X143180000Y-97460000D03*
X145720000Y-97460000D03*
%TD*%
D10*
%TO.C,J3*%
X150800000Y-97460000D03*
D11*
X153340000Y-97460000D03*
X155880000Y-97460000D03*
X158420000Y-97460000D03*
X160960000Y-97460000D03*
X163500000Y-97460000D03*
%TD*%
D10*
%TO.C,J2*%
X118796000Y-49200000D03*
D11*
X121336000Y-49200000D03*
X123876000Y-49200000D03*
X126416000Y-49200000D03*
X128956000Y-49200000D03*
X131496000Y-49200000D03*
X134036000Y-49200000D03*
X136576000Y-49200000D03*
X139116000Y-49200000D03*
X141656000Y-49200000D03*
%TD*%
D10*
%TO.C,J4*%
X145720000Y-49200000D03*
D11*
X148260000Y-49200000D03*
X150800000Y-49200000D03*
X153340000Y-49200000D03*
X155880000Y-49200000D03*
X158420000Y-49200000D03*
X160960000Y-49200000D03*
X163500000Y-49200000D03*
%TD*%
D12*
%TO.C,SW1*%
X152250000Y-55250000D03*
X158750000Y-55250000D03*
X152250000Y-59750000D03*
X158750000Y-59750000D03*
%TD*%
%TO.C,SW2*%
X158250000Y-69250000D03*
X151750000Y-69250000D03*
X158250000Y-64750000D03*
X151750000Y-64750000D03*
%TD*%
D13*
%TO.C,R6*%
X124420000Y-60500000D03*
D14*
X134580000Y-60500000D03*
%TD*%
D13*
%TO.C,R5*%
X136080000Y-88500000D03*
D14*
X125920000Y-88500000D03*
%TD*%
D13*
%TO.C,R4*%
X143500000Y-71000000D03*
D14*
X133340000Y-71000000D03*
%TD*%
D13*
%TO.C,R1*%
X162500000Y-52500000D03*
D14*
X162500000Y-62660000D03*
%TD*%
D13*
%TO.C,R3*%
X149920000Y-83000000D03*
D14*
X160080000Y-83000000D03*
%TD*%
D12*
%TO.C,SW4*%
X142750000Y-80250000D03*
X136250000Y-80250000D03*
X142750000Y-75750000D03*
X136250000Y-75750000D03*
%TD*%
%TO.C,SW3*%
X152250000Y-74250000D03*
X158750000Y-74250000D03*
X152250000Y-78750000D03*
X158750000Y-78750000D03*
%TD*%
D10*
%TO.C,J5*%
X121000000Y-66500000D03*
D11*
X118460000Y-66500000D03*
X115920000Y-66500000D03*
X113380000Y-66500000D03*
X110840000Y-66500000D03*
X108300000Y-66500000D03*
X105760000Y-66500000D03*
X103220000Y-66500000D03*
%TD*%
D13*
%TO.C,R2*%
X162500000Y-75660000D03*
D14*
X162500000Y-65500000D03*
%TD*%
D15*
%TO.C,J7*%
X139500000Y-65000000D03*
D16*
X139500000Y-62500000D03*
X139500000Y-60000000D03*
%TD*%
D17*
%TO.C,RV1*%
X151960000Y-90515000D03*
X154500000Y-93055000D03*
X157040000Y-90515000D03*
%TD*%
D12*
%TO.C,SW5*%
X139500000Y-88500000D03*
X146000000Y-88500000D03*
X139500000Y-93000000D03*
X146000000Y-93000000D03*
%TD*%
D10*
%TO.C,J6*%
X115000000Y-90000000D03*
D11*
X112460000Y-90000000D03*
X109920000Y-90000000D03*
X107380000Y-90000000D03*
%TD*%
D18*
%TO.C,D1*%
X129560000Y-67140000D03*
D19*
X129560000Y-64600000D03*
%TD*%
M02*
