%TF.GenerationSoftware,KiCad,Pcbnew,8.0.8*%
%TF.CreationDate,2025-02-03T18:19:12-07:00*%
%TF.ProjectId,project1,70726f6a-6563-4743-912e-6b696361645f,rev?*%
%TF.SameCoordinates,Original*%
%TF.FileFunction,Legend,Top*%
%TF.FilePolarity,Positive*%
%FSLAX46Y46*%
G04 Gerber Fmt 4.6, Leading zero omitted, Abs format (unit mm)*
G04 Created by KiCad (PCBNEW 8.0.8) date 2025-02-03 18:19:12*
%MOMM*%
%LPD*%
G01*
G04 APERTURE LIST*
%ADD10C,0.150000*%
%ADD11C,0.120000*%
G04 APERTURE END LIST*
D10*
X162474160Y-94210839D02*
X162474160Y-93734649D01*
X162759875Y-94306077D02*
X161759875Y-93972744D01*
X161759875Y-93972744D02*
X162759875Y-93639411D01*
X162759875Y-93306077D02*
X161759875Y-93306077D01*
X161759875Y-93306077D02*
X162759875Y-92734649D01*
X162759875Y-92734649D02*
X161759875Y-92734649D01*
X162474160Y-92306077D02*
X162474160Y-91829887D01*
X162759875Y-92401315D02*
X161759875Y-92067982D01*
X161759875Y-92067982D02*
X162759875Y-91734649D01*
X162759875Y-90925125D02*
X162759875Y-91401315D01*
X162759875Y-91401315D02*
X161759875Y-91401315D01*
X161759875Y-90401315D02*
X161759875Y-90210839D01*
X161759875Y-90210839D02*
X161807494Y-90115601D01*
X161807494Y-90115601D02*
X161902732Y-90020363D01*
X161902732Y-90020363D02*
X162093208Y-89972744D01*
X162093208Y-89972744D02*
X162426541Y-89972744D01*
X162426541Y-89972744D02*
X162617017Y-90020363D01*
X162617017Y-90020363D02*
X162712256Y-90115601D01*
X162712256Y-90115601D02*
X162759875Y-90210839D01*
X162759875Y-90210839D02*
X162759875Y-90401315D01*
X162759875Y-90401315D02*
X162712256Y-90496553D01*
X162712256Y-90496553D02*
X162617017Y-90591791D01*
X162617017Y-90591791D02*
X162426541Y-90639410D01*
X162426541Y-90639410D02*
X162093208Y-90639410D01*
X162093208Y-90639410D02*
X161902732Y-90591791D01*
X161902732Y-90591791D02*
X161807494Y-90496553D01*
X161807494Y-90496553D02*
X161759875Y-90401315D01*
X161807494Y-89020363D02*
X161759875Y-89115601D01*
X161759875Y-89115601D02*
X161759875Y-89258458D01*
X161759875Y-89258458D02*
X161807494Y-89401315D01*
X161807494Y-89401315D02*
X161902732Y-89496553D01*
X161902732Y-89496553D02*
X161997970Y-89544172D01*
X161997970Y-89544172D02*
X162188446Y-89591791D01*
X162188446Y-89591791D02*
X162331303Y-89591791D01*
X162331303Y-89591791D02*
X162521779Y-89544172D01*
X162521779Y-89544172D02*
X162617017Y-89496553D01*
X162617017Y-89496553D02*
X162712256Y-89401315D01*
X162712256Y-89401315D02*
X162759875Y-89258458D01*
X162759875Y-89258458D02*
X162759875Y-89163220D01*
X162759875Y-89163220D02*
X162712256Y-89020363D01*
X162712256Y-89020363D02*
X162664636Y-88972744D01*
X162664636Y-88972744D02*
X162331303Y-88972744D01*
X162331303Y-88972744D02*
X162331303Y-89163220D01*
X164322200Y-94210839D02*
X164369819Y-94067982D01*
X164369819Y-94067982D02*
X164369819Y-93829887D01*
X164369819Y-93829887D02*
X164322200Y-93734649D01*
X164322200Y-93734649D02*
X164274580Y-93687030D01*
X164274580Y-93687030D02*
X164179342Y-93639411D01*
X164179342Y-93639411D02*
X164084104Y-93639411D01*
X164084104Y-93639411D02*
X163988866Y-93687030D01*
X163988866Y-93687030D02*
X163941247Y-93734649D01*
X163941247Y-93734649D02*
X163893628Y-93829887D01*
X163893628Y-93829887D02*
X163846009Y-94020363D01*
X163846009Y-94020363D02*
X163798390Y-94115601D01*
X163798390Y-94115601D02*
X163750771Y-94163220D01*
X163750771Y-94163220D02*
X163655533Y-94210839D01*
X163655533Y-94210839D02*
X163560295Y-94210839D01*
X163560295Y-94210839D02*
X163465057Y-94163220D01*
X163465057Y-94163220D02*
X163417438Y-94115601D01*
X163417438Y-94115601D02*
X163369819Y-94020363D01*
X163369819Y-94020363D02*
X163369819Y-93782268D01*
X163369819Y-93782268D02*
X163417438Y-93639411D01*
X163846009Y-93210839D02*
X163846009Y-92877506D01*
X164369819Y-92734649D02*
X164369819Y-93210839D01*
X164369819Y-93210839D02*
X163369819Y-93210839D01*
X163369819Y-93210839D02*
X163369819Y-92734649D01*
X164369819Y-92306077D02*
X163369819Y-92306077D01*
X163369819Y-92306077D02*
X164369819Y-91734649D01*
X164369819Y-91734649D02*
X163369819Y-91734649D01*
X164322200Y-91306077D02*
X164369819Y-91163220D01*
X164369819Y-91163220D02*
X164369819Y-90925125D01*
X164369819Y-90925125D02*
X164322200Y-90829887D01*
X164322200Y-90829887D02*
X164274580Y-90782268D01*
X164274580Y-90782268D02*
X164179342Y-90734649D01*
X164179342Y-90734649D02*
X164084104Y-90734649D01*
X164084104Y-90734649D02*
X163988866Y-90782268D01*
X163988866Y-90782268D02*
X163941247Y-90829887D01*
X163941247Y-90829887D02*
X163893628Y-90925125D01*
X163893628Y-90925125D02*
X163846009Y-91115601D01*
X163846009Y-91115601D02*
X163798390Y-91210839D01*
X163798390Y-91210839D02*
X163750771Y-91258458D01*
X163750771Y-91258458D02*
X163655533Y-91306077D01*
X163655533Y-91306077D02*
X163560295Y-91306077D01*
X163560295Y-91306077D02*
X163465057Y-91258458D01*
X163465057Y-91258458D02*
X163417438Y-91210839D01*
X163417438Y-91210839D02*
X163369819Y-91115601D01*
X163369819Y-91115601D02*
X163369819Y-90877506D01*
X163369819Y-90877506D02*
X163417438Y-90734649D01*
X163369819Y-90115601D02*
X163369819Y-89925125D01*
X163369819Y-89925125D02*
X163417438Y-89829887D01*
X163417438Y-89829887D02*
X163512676Y-89734649D01*
X163512676Y-89734649D02*
X163703152Y-89687030D01*
X163703152Y-89687030D02*
X164036485Y-89687030D01*
X164036485Y-89687030D02*
X164226961Y-89734649D01*
X164226961Y-89734649D02*
X164322200Y-89829887D01*
X164322200Y-89829887D02*
X164369819Y-89925125D01*
X164369819Y-89925125D02*
X164369819Y-90115601D01*
X164369819Y-90115601D02*
X164322200Y-90210839D01*
X164322200Y-90210839D02*
X164226961Y-90306077D01*
X164226961Y-90306077D02*
X164036485Y-90353696D01*
X164036485Y-90353696D02*
X163703152Y-90353696D01*
X163703152Y-90353696D02*
X163512676Y-90306077D01*
X163512676Y-90306077D02*
X163417438Y-90210839D01*
X163417438Y-90210839D02*
X163369819Y-90115601D01*
X164369819Y-88687030D02*
X163893628Y-89020363D01*
X164369819Y-89258458D02*
X163369819Y-89258458D01*
X163369819Y-89258458D02*
X163369819Y-88877506D01*
X163369819Y-88877506D02*
X163417438Y-88782268D01*
X163417438Y-88782268D02*
X163465057Y-88734649D01*
X163465057Y-88734649D02*
X163560295Y-88687030D01*
X163560295Y-88687030D02*
X163703152Y-88687030D01*
X163703152Y-88687030D02*
X163798390Y-88734649D01*
X163798390Y-88734649D02*
X163846009Y-88782268D01*
X163846009Y-88782268D02*
X163893628Y-88877506D01*
X163893628Y-88877506D02*
X163893628Y-89258458D01*
X101527255Y-89369819D02*
X101717731Y-89369819D01*
X101717731Y-89369819D02*
X101812969Y-89417438D01*
X101812969Y-89417438D02*
X101908207Y-89512676D01*
X101908207Y-89512676D02*
X101955826Y-89703152D01*
X101955826Y-89703152D02*
X101955826Y-90036485D01*
X101955826Y-90036485D02*
X101908207Y-90226961D01*
X101908207Y-90226961D02*
X101812969Y-90322200D01*
X101812969Y-90322200D02*
X101717731Y-90369819D01*
X101717731Y-90369819D02*
X101527255Y-90369819D01*
X101527255Y-90369819D02*
X101432017Y-90322200D01*
X101432017Y-90322200D02*
X101336779Y-90226961D01*
X101336779Y-90226961D02*
X101289160Y-90036485D01*
X101289160Y-90036485D02*
X101289160Y-89703152D01*
X101289160Y-89703152D02*
X101336779Y-89512676D01*
X101336779Y-89512676D02*
X101432017Y-89417438D01*
X101432017Y-89417438D02*
X101527255Y-89369819D01*
X102860588Y-90369819D02*
X102384398Y-90369819D01*
X102384398Y-90369819D02*
X102384398Y-89369819D01*
X103193922Y-89846009D02*
X103527255Y-89846009D01*
X103670112Y-90369819D02*
X103193922Y-90369819D01*
X103193922Y-90369819D02*
X103193922Y-89369819D01*
X103193922Y-89369819D02*
X103670112Y-89369819D01*
X104098684Y-90369819D02*
X104098684Y-89369819D01*
X104098684Y-89369819D02*
X104336779Y-89369819D01*
X104336779Y-89369819D02*
X104479636Y-89417438D01*
X104479636Y-89417438D02*
X104574874Y-89512676D01*
X104574874Y-89512676D02*
X104622493Y-89607914D01*
X104622493Y-89607914D02*
X104670112Y-89798390D01*
X104670112Y-89798390D02*
X104670112Y-89941247D01*
X104670112Y-89941247D02*
X104622493Y-90131723D01*
X104622493Y-90131723D02*
X104574874Y-90226961D01*
X104574874Y-90226961D02*
X104479636Y-90322200D01*
X104479636Y-90322200D02*
X104336779Y-90369819D01*
X104336779Y-90369819D02*
X104098684Y-90369819D01*
X149274580Y-79091792D02*
X149322200Y-79139411D01*
X149322200Y-79139411D02*
X149369819Y-79282268D01*
X149369819Y-79282268D02*
X149369819Y-79377506D01*
X149369819Y-79377506D02*
X149322200Y-79520363D01*
X149322200Y-79520363D02*
X149226961Y-79615601D01*
X149226961Y-79615601D02*
X149131723Y-79663220D01*
X149131723Y-79663220D02*
X148941247Y-79710839D01*
X148941247Y-79710839D02*
X148798390Y-79710839D01*
X148798390Y-79710839D02*
X148607914Y-79663220D01*
X148607914Y-79663220D02*
X148512676Y-79615601D01*
X148512676Y-79615601D02*
X148417438Y-79520363D01*
X148417438Y-79520363D02*
X148369819Y-79377506D01*
X148369819Y-79377506D02*
X148369819Y-79282268D01*
X148369819Y-79282268D02*
X148417438Y-79139411D01*
X148417438Y-79139411D02*
X148465057Y-79091792D01*
X149084104Y-78710839D02*
X149084104Y-78234649D01*
X149369819Y-78806077D02*
X148369819Y-78472744D01*
X148369819Y-78472744D02*
X149369819Y-78139411D01*
X149369819Y-77329887D02*
X149369819Y-77806077D01*
X149369819Y-77806077D02*
X148369819Y-77806077D01*
X149369819Y-76996553D02*
X148369819Y-76996553D01*
X148846009Y-76187030D02*
X148893628Y-76044173D01*
X148893628Y-76044173D02*
X148941247Y-75996554D01*
X148941247Y-75996554D02*
X149036485Y-75948935D01*
X149036485Y-75948935D02*
X149179342Y-75948935D01*
X149179342Y-75948935D02*
X149274580Y-75996554D01*
X149274580Y-75996554D02*
X149322200Y-76044173D01*
X149322200Y-76044173D02*
X149369819Y-76139411D01*
X149369819Y-76139411D02*
X149369819Y-76520363D01*
X149369819Y-76520363D02*
X148369819Y-76520363D01*
X148369819Y-76520363D02*
X148369819Y-76187030D01*
X148369819Y-76187030D02*
X148417438Y-76091792D01*
X148417438Y-76091792D02*
X148465057Y-76044173D01*
X148465057Y-76044173D02*
X148560295Y-75996554D01*
X148560295Y-75996554D02*
X148655533Y-75996554D01*
X148655533Y-75996554D02*
X148750771Y-76044173D01*
X148750771Y-76044173D02*
X148798390Y-76091792D01*
X148798390Y-76091792D02*
X148846009Y-76187030D01*
X148846009Y-76187030D02*
X148846009Y-76520363D01*
X149369819Y-74948935D02*
X148893628Y-75282268D01*
X149369819Y-75520363D02*
X148369819Y-75520363D01*
X148369819Y-75520363D02*
X148369819Y-75139411D01*
X148369819Y-75139411D02*
X148417438Y-75044173D01*
X148417438Y-75044173D02*
X148465057Y-74996554D01*
X148465057Y-74996554D02*
X148560295Y-74948935D01*
X148560295Y-74948935D02*
X148703152Y-74948935D01*
X148703152Y-74948935D02*
X148798390Y-74996554D01*
X148798390Y-74996554D02*
X148846009Y-75044173D01*
X148846009Y-75044173D02*
X148893628Y-75139411D01*
X148893628Y-75139411D02*
X148893628Y-75520363D01*
X149084104Y-74567982D02*
X149084104Y-74091792D01*
X149369819Y-74663220D02*
X148369819Y-74329887D01*
X148369819Y-74329887D02*
X149369819Y-73996554D01*
X148369819Y-73806077D02*
X148369819Y-73234649D01*
X149369819Y-73520363D02*
X148369819Y-73520363D01*
X148846009Y-72901315D02*
X148846009Y-72567982D01*
X149369819Y-72425125D02*
X149369819Y-72901315D01*
X149369819Y-72901315D02*
X148369819Y-72901315D01*
X148369819Y-72901315D02*
X148369819Y-72425125D01*
X141312969Y-85869819D02*
X140836779Y-85869819D01*
X140836779Y-85869819D02*
X140836779Y-84869819D01*
X141646303Y-85869819D02*
X141646303Y-84869819D01*
X142646302Y-84917438D02*
X142551064Y-84869819D01*
X142551064Y-84869819D02*
X142408207Y-84869819D01*
X142408207Y-84869819D02*
X142265350Y-84917438D01*
X142265350Y-84917438D02*
X142170112Y-85012676D01*
X142170112Y-85012676D02*
X142122493Y-85107914D01*
X142122493Y-85107914D02*
X142074874Y-85298390D01*
X142074874Y-85298390D02*
X142074874Y-85441247D01*
X142074874Y-85441247D02*
X142122493Y-85631723D01*
X142122493Y-85631723D02*
X142170112Y-85726961D01*
X142170112Y-85726961D02*
X142265350Y-85822200D01*
X142265350Y-85822200D02*
X142408207Y-85869819D01*
X142408207Y-85869819D02*
X142503445Y-85869819D01*
X142503445Y-85869819D02*
X142646302Y-85822200D01*
X142646302Y-85822200D02*
X142693921Y-85774580D01*
X142693921Y-85774580D02*
X142693921Y-85441247D01*
X142693921Y-85441247D02*
X142503445Y-85441247D01*
X143122493Y-85869819D02*
X143122493Y-84869819D01*
X143122493Y-85346009D02*
X143693921Y-85346009D01*
X143693921Y-85869819D02*
X143693921Y-84869819D01*
X144027255Y-84869819D02*
X144598683Y-84869819D01*
X144312969Y-85869819D02*
X144312969Y-84869819D01*
X148369819Y-59972744D02*
X148369819Y-59782268D01*
X148369819Y-59782268D02*
X148417438Y-59687030D01*
X148417438Y-59687030D02*
X148512676Y-59591792D01*
X148512676Y-59591792D02*
X148703152Y-59544173D01*
X148703152Y-59544173D02*
X149036485Y-59544173D01*
X149036485Y-59544173D02*
X149226961Y-59591792D01*
X149226961Y-59591792D02*
X149322200Y-59687030D01*
X149322200Y-59687030D02*
X149369819Y-59782268D01*
X149369819Y-59782268D02*
X149369819Y-59972744D01*
X149369819Y-59972744D02*
X149322200Y-60067982D01*
X149322200Y-60067982D02*
X149226961Y-60163220D01*
X149226961Y-60163220D02*
X149036485Y-60210839D01*
X149036485Y-60210839D02*
X148703152Y-60210839D01*
X148703152Y-60210839D02*
X148512676Y-60163220D01*
X148512676Y-60163220D02*
X148417438Y-60067982D01*
X148417438Y-60067982D02*
X148369819Y-59972744D01*
X149369819Y-59115601D02*
X148369819Y-59115601D01*
X148369819Y-59115601D02*
X149369819Y-58544173D01*
X149369819Y-58544173D02*
X148369819Y-58544173D01*
X148322200Y-57353697D02*
X149607914Y-58210839D01*
X148369819Y-56829887D02*
X148369819Y-56639411D01*
X148369819Y-56639411D02*
X148417438Y-56544173D01*
X148417438Y-56544173D02*
X148512676Y-56448935D01*
X148512676Y-56448935D02*
X148703152Y-56401316D01*
X148703152Y-56401316D02*
X149036485Y-56401316D01*
X149036485Y-56401316D02*
X149226961Y-56448935D01*
X149226961Y-56448935D02*
X149322200Y-56544173D01*
X149322200Y-56544173D02*
X149369819Y-56639411D01*
X149369819Y-56639411D02*
X149369819Y-56829887D01*
X149369819Y-56829887D02*
X149322200Y-56925125D01*
X149322200Y-56925125D02*
X149226961Y-57020363D01*
X149226961Y-57020363D02*
X149036485Y-57067982D01*
X149036485Y-57067982D02*
X148703152Y-57067982D01*
X148703152Y-57067982D02*
X148512676Y-57020363D01*
X148512676Y-57020363D02*
X148417438Y-56925125D01*
X148417438Y-56925125D02*
X148369819Y-56829887D01*
X148846009Y-55639411D02*
X148846009Y-55972744D01*
X149369819Y-55972744D02*
X148369819Y-55972744D01*
X148369819Y-55972744D02*
X148369819Y-55496554D01*
X148846009Y-54782268D02*
X148846009Y-55115601D01*
X149369819Y-55115601D02*
X148369819Y-55115601D01*
X148369819Y-55115601D02*
X148369819Y-54639411D01*
X101789160Y-94364216D02*
X102265350Y-94364216D01*
X101693922Y-94649931D02*
X102027255Y-93649931D01*
X102027255Y-93649931D02*
X102360588Y-94649931D01*
X103265350Y-94649931D02*
X102932017Y-94173740D01*
X102693922Y-94649931D02*
X102693922Y-93649931D01*
X102693922Y-93649931D02*
X103074874Y-93649931D01*
X103074874Y-93649931D02*
X103170112Y-93697550D01*
X103170112Y-93697550D02*
X103217731Y-93745169D01*
X103217731Y-93745169D02*
X103265350Y-93840407D01*
X103265350Y-93840407D02*
X103265350Y-93983264D01*
X103265350Y-93983264D02*
X103217731Y-94078502D01*
X103217731Y-94078502D02*
X103170112Y-94126121D01*
X103170112Y-94126121D02*
X103074874Y-94173740D01*
X103074874Y-94173740D02*
X102693922Y-94173740D01*
X103693922Y-94649931D02*
X103693922Y-93649931D01*
X103693922Y-93649931D02*
X103932017Y-93649931D01*
X103932017Y-93649931D02*
X104074874Y-93697550D01*
X104074874Y-93697550D02*
X104170112Y-93792788D01*
X104170112Y-93792788D02*
X104217731Y-93888026D01*
X104217731Y-93888026D02*
X104265350Y-94078502D01*
X104265350Y-94078502D02*
X104265350Y-94221359D01*
X104265350Y-94221359D02*
X104217731Y-94411835D01*
X104217731Y-94411835D02*
X104170112Y-94507073D01*
X104170112Y-94507073D02*
X104074874Y-94602312D01*
X104074874Y-94602312D02*
X103932017Y-94649931D01*
X103932017Y-94649931D02*
X103693922Y-94649931D01*
X104693922Y-93649931D02*
X104693922Y-94459454D01*
X104693922Y-94459454D02*
X104741541Y-94554692D01*
X104741541Y-94554692D02*
X104789160Y-94602312D01*
X104789160Y-94602312D02*
X104884398Y-94649931D01*
X104884398Y-94649931D02*
X105074874Y-94649931D01*
X105074874Y-94649931D02*
X105170112Y-94602312D01*
X105170112Y-94602312D02*
X105217731Y-94554692D01*
X105217731Y-94554692D02*
X105265350Y-94459454D01*
X105265350Y-94459454D02*
X105265350Y-93649931D01*
X105741541Y-94649931D02*
X105741541Y-93649931D01*
X106217731Y-94649931D02*
X106217731Y-93649931D01*
X106217731Y-93649931D02*
X106789159Y-94649931D01*
X106789159Y-94649931D02*
X106789159Y-93649931D01*
X107455826Y-93649931D02*
X107646302Y-93649931D01*
X107646302Y-93649931D02*
X107741540Y-93697550D01*
X107741540Y-93697550D02*
X107836778Y-93792788D01*
X107836778Y-93792788D02*
X107884397Y-93983264D01*
X107884397Y-93983264D02*
X107884397Y-94316597D01*
X107884397Y-94316597D02*
X107836778Y-94507073D01*
X107836778Y-94507073D02*
X107741540Y-94602312D01*
X107741540Y-94602312D02*
X107646302Y-94649931D01*
X107646302Y-94649931D02*
X107455826Y-94649931D01*
X107455826Y-94649931D02*
X107360588Y-94602312D01*
X107360588Y-94602312D02*
X107265350Y-94507073D01*
X107265350Y-94507073D02*
X107217731Y-94316597D01*
X107217731Y-94316597D02*
X107217731Y-93983264D01*
X107217731Y-93983264D02*
X107265350Y-93792788D01*
X107265350Y-93792788D02*
X107360588Y-93697550D01*
X107360588Y-93697550D02*
X107455826Y-93649931D01*
X108932017Y-93649931D02*
X109503445Y-93649931D01*
X109217731Y-94649931D02*
X109217731Y-93649931D01*
X109836779Y-94649931D02*
X109836779Y-93649931D01*
X109836779Y-94126121D02*
X110408207Y-94126121D01*
X110408207Y-94649931D02*
X110408207Y-93649931D01*
X110884398Y-94126121D02*
X111217731Y-94126121D01*
X111360588Y-94649931D02*
X110884398Y-94649931D01*
X110884398Y-94649931D02*
X110884398Y-93649931D01*
X110884398Y-93649931D02*
X111360588Y-93649931D01*
X112360588Y-94649931D02*
X112027255Y-94173740D01*
X111789160Y-94649931D02*
X111789160Y-93649931D01*
X111789160Y-93649931D02*
X112170112Y-93649931D01*
X112170112Y-93649931D02*
X112265350Y-93697550D01*
X112265350Y-93697550D02*
X112312969Y-93745169D01*
X112312969Y-93745169D02*
X112360588Y-93840407D01*
X112360588Y-93840407D02*
X112360588Y-93983264D01*
X112360588Y-93983264D02*
X112312969Y-94078502D01*
X112312969Y-94078502D02*
X112265350Y-94126121D01*
X112265350Y-94126121D02*
X112170112Y-94173740D01*
X112170112Y-94173740D02*
X111789160Y-94173740D01*
X112789160Y-94649931D02*
X112789160Y-93649931D01*
X112789160Y-93649931D02*
X113122493Y-94364216D01*
X113122493Y-94364216D02*
X113455826Y-93649931D01*
X113455826Y-93649931D02*
X113455826Y-94649931D01*
X114122493Y-93649931D02*
X114312969Y-93649931D01*
X114312969Y-93649931D02*
X114408207Y-93697550D01*
X114408207Y-93697550D02*
X114503445Y-93792788D01*
X114503445Y-93792788D02*
X114551064Y-93983264D01*
X114551064Y-93983264D02*
X114551064Y-94316597D01*
X114551064Y-94316597D02*
X114503445Y-94507073D01*
X114503445Y-94507073D02*
X114408207Y-94602312D01*
X114408207Y-94602312D02*
X114312969Y-94649931D01*
X114312969Y-94649931D02*
X114122493Y-94649931D01*
X114122493Y-94649931D02*
X114027255Y-94602312D01*
X114027255Y-94602312D02*
X113932017Y-94507073D01*
X113932017Y-94507073D02*
X113884398Y-94316597D01*
X113884398Y-94316597D02*
X113884398Y-93983264D01*
X113884398Y-93983264D02*
X113932017Y-93792788D01*
X113932017Y-93792788D02*
X114027255Y-93697550D01*
X114027255Y-93697550D02*
X114122493Y-93649931D01*
X114979636Y-94649931D02*
X114979636Y-93649931D01*
X114979636Y-93649931D02*
X115360588Y-93649931D01*
X115360588Y-93649931D02*
X115455826Y-93697550D01*
X115455826Y-93697550D02*
X115503445Y-93745169D01*
X115503445Y-93745169D02*
X115551064Y-93840407D01*
X115551064Y-93840407D02*
X115551064Y-93983264D01*
X115551064Y-93983264D02*
X115503445Y-94078502D01*
X115503445Y-94078502D02*
X115455826Y-94126121D01*
X115455826Y-94126121D02*
X115360588Y-94173740D01*
X115360588Y-94173740D02*
X114979636Y-94173740D01*
X116551064Y-94649931D02*
X116217731Y-94173740D01*
X115979636Y-94649931D02*
X115979636Y-93649931D01*
X115979636Y-93649931D02*
X116360588Y-93649931D01*
X116360588Y-93649931D02*
X116455826Y-93697550D01*
X116455826Y-93697550D02*
X116503445Y-93745169D01*
X116503445Y-93745169D02*
X116551064Y-93840407D01*
X116551064Y-93840407D02*
X116551064Y-93983264D01*
X116551064Y-93983264D02*
X116503445Y-94078502D01*
X116503445Y-94078502D02*
X116455826Y-94126121D01*
X116455826Y-94126121D02*
X116360588Y-94173740D01*
X116360588Y-94173740D02*
X115979636Y-94173740D01*
X117170112Y-93649931D02*
X117360588Y-93649931D01*
X117360588Y-93649931D02*
X117455826Y-93697550D01*
X117455826Y-93697550D02*
X117551064Y-93792788D01*
X117551064Y-93792788D02*
X117598683Y-93983264D01*
X117598683Y-93983264D02*
X117598683Y-94316597D01*
X117598683Y-94316597D02*
X117551064Y-94507073D01*
X117551064Y-94507073D02*
X117455826Y-94602312D01*
X117455826Y-94602312D02*
X117360588Y-94649931D01*
X117360588Y-94649931D02*
X117170112Y-94649931D01*
X117170112Y-94649931D02*
X117074874Y-94602312D01*
X117074874Y-94602312D02*
X116979636Y-94507073D01*
X116979636Y-94507073D02*
X116932017Y-94316597D01*
X116932017Y-94316597D02*
X116932017Y-93983264D01*
X116932017Y-93983264D02*
X116979636Y-93792788D01*
X116979636Y-93792788D02*
X117074874Y-93697550D01*
X117074874Y-93697550D02*
X117170112Y-93649931D01*
X118360588Y-94126121D02*
X118503445Y-94173740D01*
X118503445Y-94173740D02*
X118551064Y-94221359D01*
X118551064Y-94221359D02*
X118598683Y-94316597D01*
X118598683Y-94316597D02*
X118598683Y-94459454D01*
X118598683Y-94459454D02*
X118551064Y-94554692D01*
X118551064Y-94554692D02*
X118503445Y-94602312D01*
X118503445Y-94602312D02*
X118408207Y-94649931D01*
X118408207Y-94649931D02*
X118027255Y-94649931D01*
X118027255Y-94649931D02*
X118027255Y-93649931D01*
X118027255Y-93649931D02*
X118360588Y-93649931D01*
X118360588Y-93649931D02*
X118455826Y-93697550D01*
X118455826Y-93697550D02*
X118503445Y-93745169D01*
X118503445Y-93745169D02*
X118551064Y-93840407D01*
X118551064Y-93840407D02*
X118551064Y-93935645D01*
X118551064Y-93935645D02*
X118503445Y-94030883D01*
X118503445Y-94030883D02*
X118455826Y-94078502D01*
X118455826Y-94078502D02*
X118360588Y-94126121D01*
X118360588Y-94126121D02*
X118027255Y-94126121D01*
X119027255Y-94126121D02*
X119360588Y-94126121D01*
X119503445Y-94649931D02*
X119027255Y-94649931D01*
X119027255Y-94649931D02*
X119027255Y-93649931D01*
X119027255Y-93649931D02*
X119503445Y-93649931D01*
X120646303Y-94602312D02*
X120789160Y-94649931D01*
X120789160Y-94649931D02*
X121027255Y-94649931D01*
X121027255Y-94649931D02*
X121122493Y-94602312D01*
X121122493Y-94602312D02*
X121170112Y-94554692D01*
X121170112Y-94554692D02*
X121217731Y-94459454D01*
X121217731Y-94459454D02*
X121217731Y-94364216D01*
X121217731Y-94364216D02*
X121170112Y-94268978D01*
X121170112Y-94268978D02*
X121122493Y-94221359D01*
X121122493Y-94221359D02*
X121027255Y-94173740D01*
X121027255Y-94173740D02*
X120836779Y-94126121D01*
X120836779Y-94126121D02*
X120741541Y-94078502D01*
X120741541Y-94078502D02*
X120693922Y-94030883D01*
X120693922Y-94030883D02*
X120646303Y-93935645D01*
X120646303Y-93935645D02*
X120646303Y-93840407D01*
X120646303Y-93840407D02*
X120693922Y-93745169D01*
X120693922Y-93745169D02*
X120741541Y-93697550D01*
X120741541Y-93697550D02*
X120836779Y-93649931D01*
X120836779Y-93649931D02*
X121074874Y-93649931D01*
X121074874Y-93649931D02*
X121217731Y-93697550D01*
X121646303Y-94649931D02*
X121646303Y-93649931D01*
X121646303Y-94126121D02*
X122217731Y-94126121D01*
X122217731Y-94649931D02*
X122217731Y-93649931D01*
X122693922Y-94649931D02*
X122693922Y-93649931D01*
X123170112Y-94126121D02*
X123503445Y-94126121D01*
X123646302Y-94649931D02*
X123170112Y-94649931D01*
X123170112Y-94649931D02*
X123170112Y-93649931D01*
X123170112Y-93649931D02*
X123646302Y-93649931D01*
X124551064Y-94649931D02*
X124074874Y-94649931D01*
X124074874Y-94649931D02*
X124074874Y-93649931D01*
X124884398Y-94649931D02*
X124884398Y-93649931D01*
X124884398Y-93649931D02*
X125122493Y-93649931D01*
X125122493Y-93649931D02*
X125265350Y-93697550D01*
X125265350Y-93697550D02*
X125360588Y-93792788D01*
X125360588Y-93792788D02*
X125408207Y-93888026D01*
X125408207Y-93888026D02*
X125455826Y-94078502D01*
X125455826Y-94078502D02*
X125455826Y-94221359D01*
X125455826Y-94221359D02*
X125408207Y-94411835D01*
X125408207Y-94411835D02*
X125360588Y-94507073D01*
X125360588Y-94507073D02*
X125265350Y-94602312D01*
X125265350Y-94602312D02*
X125122493Y-94649931D01*
X125122493Y-94649931D02*
X124884398Y-94649931D01*
X101693922Y-95259875D02*
X102027255Y-96259875D01*
X102027255Y-96259875D02*
X102360588Y-95259875D01*
X103217731Y-96259875D02*
X102646303Y-96259875D01*
X102932017Y-96259875D02*
X102932017Y-95259875D01*
X102932017Y-95259875D02*
X102836779Y-95402732D01*
X102836779Y-95402732D02*
X102741541Y-95497970D01*
X102741541Y-95497970D02*
X102646303Y-95545589D01*
X103646303Y-96164636D02*
X103693922Y-96212256D01*
X103693922Y-96212256D02*
X103646303Y-96259875D01*
X103646303Y-96259875D02*
X103598684Y-96212256D01*
X103598684Y-96212256D02*
X103646303Y-96164636D01*
X103646303Y-96164636D02*
X103646303Y-96259875D01*
X104312969Y-95259875D02*
X104408207Y-95259875D01*
X104408207Y-95259875D02*
X104503445Y-95307494D01*
X104503445Y-95307494D02*
X104551064Y-95355113D01*
X104551064Y-95355113D02*
X104598683Y-95450351D01*
X104598683Y-95450351D02*
X104646302Y-95640827D01*
X104646302Y-95640827D02*
X104646302Y-95878922D01*
X104646302Y-95878922D02*
X104598683Y-96069398D01*
X104598683Y-96069398D02*
X104551064Y-96164636D01*
X104551064Y-96164636D02*
X104503445Y-96212256D01*
X104503445Y-96212256D02*
X104408207Y-96259875D01*
X104408207Y-96259875D02*
X104312969Y-96259875D01*
X104312969Y-96259875D02*
X104217731Y-96212256D01*
X104217731Y-96212256D02*
X104170112Y-96164636D01*
X104170112Y-96164636D02*
X104122493Y-96069398D01*
X104122493Y-96069398D02*
X104074874Y-95878922D01*
X104074874Y-95878922D02*
X104074874Y-95640827D01*
X104074874Y-95640827D02*
X104122493Y-95450351D01*
X104122493Y-95450351D02*
X104170112Y-95355113D01*
X104170112Y-95355113D02*
X104217731Y-95307494D01*
X104217731Y-95307494D02*
X104312969Y-95259875D01*
X105836779Y-95878922D02*
X106598684Y-95878922D01*
X107789160Y-95355113D02*
X107836779Y-95307494D01*
X107836779Y-95307494D02*
X107932017Y-95259875D01*
X107932017Y-95259875D02*
X108170112Y-95259875D01*
X108170112Y-95259875D02*
X108265350Y-95307494D01*
X108265350Y-95307494D02*
X108312969Y-95355113D01*
X108312969Y-95355113D02*
X108360588Y-95450351D01*
X108360588Y-95450351D02*
X108360588Y-95545589D01*
X108360588Y-95545589D02*
X108312969Y-95688446D01*
X108312969Y-95688446D02*
X107741541Y-96259875D01*
X107741541Y-96259875D02*
X108360588Y-96259875D01*
X109503445Y-95212256D02*
X108646303Y-96497970D01*
X109741541Y-95259875D02*
X110360588Y-95259875D01*
X110360588Y-95259875D02*
X110027255Y-95640827D01*
X110027255Y-95640827D02*
X110170112Y-95640827D01*
X110170112Y-95640827D02*
X110265350Y-95688446D01*
X110265350Y-95688446D02*
X110312969Y-95736065D01*
X110312969Y-95736065D02*
X110360588Y-95831303D01*
X110360588Y-95831303D02*
X110360588Y-96069398D01*
X110360588Y-96069398D02*
X110312969Y-96164636D01*
X110312969Y-96164636D02*
X110265350Y-96212256D01*
X110265350Y-96212256D02*
X110170112Y-96259875D01*
X110170112Y-96259875D02*
X109884398Y-96259875D01*
X109884398Y-96259875D02*
X109789160Y-96212256D01*
X109789160Y-96212256D02*
X109741541Y-96164636D01*
X111503445Y-95212256D02*
X110646303Y-96497970D01*
X111789160Y-95355113D02*
X111836779Y-95307494D01*
X111836779Y-95307494D02*
X111932017Y-95259875D01*
X111932017Y-95259875D02*
X112170112Y-95259875D01*
X112170112Y-95259875D02*
X112265350Y-95307494D01*
X112265350Y-95307494D02*
X112312969Y-95355113D01*
X112312969Y-95355113D02*
X112360588Y-95450351D01*
X112360588Y-95450351D02*
X112360588Y-95545589D01*
X112360588Y-95545589D02*
X112312969Y-95688446D01*
X112312969Y-95688446D02*
X111741541Y-96259875D01*
X111741541Y-96259875D02*
X112360588Y-96259875D01*
X112979636Y-95259875D02*
X113074874Y-95259875D01*
X113074874Y-95259875D02*
X113170112Y-95307494D01*
X113170112Y-95307494D02*
X113217731Y-95355113D01*
X113217731Y-95355113D02*
X113265350Y-95450351D01*
X113265350Y-95450351D02*
X113312969Y-95640827D01*
X113312969Y-95640827D02*
X113312969Y-95878922D01*
X113312969Y-95878922D02*
X113265350Y-96069398D01*
X113265350Y-96069398D02*
X113217731Y-96164636D01*
X113217731Y-96164636D02*
X113170112Y-96212256D01*
X113170112Y-96212256D02*
X113074874Y-96259875D01*
X113074874Y-96259875D02*
X112979636Y-96259875D01*
X112979636Y-96259875D02*
X112884398Y-96212256D01*
X112884398Y-96212256D02*
X112836779Y-96164636D01*
X112836779Y-96164636D02*
X112789160Y-96069398D01*
X112789160Y-96069398D02*
X112741541Y-95878922D01*
X112741541Y-95878922D02*
X112741541Y-95640827D01*
X112741541Y-95640827D02*
X112789160Y-95450351D01*
X112789160Y-95450351D02*
X112836779Y-95355113D01*
X112836779Y-95355113D02*
X112884398Y-95307494D01*
X112884398Y-95307494D02*
X112979636Y-95259875D01*
X113693922Y-95355113D02*
X113741541Y-95307494D01*
X113741541Y-95307494D02*
X113836779Y-95259875D01*
X113836779Y-95259875D02*
X114074874Y-95259875D01*
X114074874Y-95259875D02*
X114170112Y-95307494D01*
X114170112Y-95307494D02*
X114217731Y-95355113D01*
X114217731Y-95355113D02*
X114265350Y-95450351D01*
X114265350Y-95450351D02*
X114265350Y-95545589D01*
X114265350Y-95545589D02*
X114217731Y-95688446D01*
X114217731Y-95688446D02*
X113646303Y-96259875D01*
X113646303Y-96259875D02*
X114265350Y-96259875D01*
X115170112Y-95259875D02*
X114693922Y-95259875D01*
X114693922Y-95259875D02*
X114646303Y-95736065D01*
X114646303Y-95736065D02*
X114693922Y-95688446D01*
X114693922Y-95688446D02*
X114789160Y-95640827D01*
X114789160Y-95640827D02*
X115027255Y-95640827D01*
X115027255Y-95640827D02*
X115122493Y-95688446D01*
X115122493Y-95688446D02*
X115170112Y-95736065D01*
X115170112Y-95736065D02*
X115217731Y-95831303D01*
X115217731Y-95831303D02*
X115217731Y-96069398D01*
X115217731Y-96069398D02*
X115170112Y-96164636D01*
X115170112Y-96164636D02*
X115122493Y-96212256D01*
X115122493Y-96212256D02*
X115027255Y-96259875D01*
X115027255Y-96259875D02*
X114789160Y-96259875D01*
X114789160Y-96259875D02*
X114693922Y-96212256D01*
X114693922Y-96212256D02*
X114646303Y-96164636D01*
X101836779Y-97869819D02*
X101836779Y-96869819D01*
X101836779Y-97346009D02*
X102408207Y-97346009D01*
X102408207Y-97869819D02*
X102408207Y-96869819D01*
X102836779Y-97584104D02*
X103312969Y-97584104D01*
X102741541Y-97869819D02*
X103074874Y-96869819D01*
X103074874Y-96869819D02*
X103408207Y-97869819D01*
X103741541Y-97869819D02*
X103741541Y-96869819D01*
X103741541Y-96869819D02*
X104074874Y-97584104D01*
X104074874Y-97584104D02*
X104408207Y-96869819D01*
X104408207Y-96869819D02*
X104408207Y-97869819D01*
X104884398Y-97869819D02*
X104884398Y-96869819D01*
X104884398Y-96869819D02*
X105265350Y-96869819D01*
X105265350Y-96869819D02*
X105360588Y-96917438D01*
X105360588Y-96917438D02*
X105408207Y-96965057D01*
X105408207Y-96965057D02*
X105455826Y-97060295D01*
X105455826Y-97060295D02*
X105455826Y-97203152D01*
X105455826Y-97203152D02*
X105408207Y-97298390D01*
X105408207Y-97298390D02*
X105360588Y-97346009D01*
X105360588Y-97346009D02*
X105265350Y-97393628D01*
X105265350Y-97393628D02*
X104884398Y-97393628D01*
X105741541Y-96869819D02*
X106312969Y-96869819D01*
X106027255Y-97869819D02*
X106027255Y-96869819D01*
X106836779Y-96869819D02*
X107027255Y-96869819D01*
X107027255Y-96869819D02*
X107122493Y-96917438D01*
X107122493Y-96917438D02*
X107217731Y-97012676D01*
X107217731Y-97012676D02*
X107265350Y-97203152D01*
X107265350Y-97203152D02*
X107265350Y-97536485D01*
X107265350Y-97536485D02*
X107217731Y-97726961D01*
X107217731Y-97726961D02*
X107122493Y-97822200D01*
X107122493Y-97822200D02*
X107027255Y-97869819D01*
X107027255Y-97869819D02*
X106836779Y-97869819D01*
X106836779Y-97869819D02*
X106741541Y-97822200D01*
X106741541Y-97822200D02*
X106646303Y-97726961D01*
X106646303Y-97726961D02*
X106598684Y-97536485D01*
X106598684Y-97536485D02*
X106598684Y-97203152D01*
X106598684Y-97203152D02*
X106646303Y-97012676D01*
X106646303Y-97012676D02*
X106741541Y-96917438D01*
X106741541Y-96917438D02*
X106836779Y-96869819D01*
X107693922Y-97869819D02*
X107693922Y-96869819D01*
X107693922Y-96869819D02*
X108265350Y-97869819D01*
X108265350Y-97869819D02*
X108265350Y-96869819D01*
X109408208Y-96869819D02*
X110074874Y-96869819D01*
X110074874Y-96869819D02*
X109408208Y-97869819D01*
X109408208Y-97869819D02*
X110074874Y-97869819D01*
X110455827Y-97869819D02*
X110455827Y-96869819D01*
X110932017Y-97869819D02*
X110932017Y-96869819D01*
X110932017Y-96869819D02*
X111503445Y-97869819D01*
X111503445Y-97869819D02*
X111503445Y-96869819D01*
X111979636Y-97869819D02*
X111979636Y-96869819D01*
X111979636Y-96869819D02*
X112551064Y-97869819D01*
X112551064Y-97869819D02*
X112551064Y-96869819D01*
X102336779Y-63369819D02*
X102336779Y-62369819D01*
X102336779Y-62369819D02*
X102670112Y-63084104D01*
X102670112Y-63084104D02*
X103003445Y-62369819D01*
X103003445Y-62369819D02*
X103003445Y-63369819D01*
X103479636Y-63369819D02*
X103479636Y-62369819D01*
X103479636Y-62369819D02*
X103860588Y-62369819D01*
X103860588Y-62369819D02*
X103955826Y-62417438D01*
X103955826Y-62417438D02*
X104003445Y-62465057D01*
X104003445Y-62465057D02*
X104051064Y-62560295D01*
X104051064Y-62560295D02*
X104051064Y-62703152D01*
X104051064Y-62703152D02*
X104003445Y-62798390D01*
X104003445Y-62798390D02*
X103955826Y-62846009D01*
X103955826Y-62846009D02*
X103860588Y-62893628D01*
X103860588Y-62893628D02*
X103479636Y-62893628D01*
X104479636Y-62369819D02*
X104479636Y-63179342D01*
X104479636Y-63179342D02*
X104527255Y-63274580D01*
X104527255Y-63274580D02*
X104574874Y-63322200D01*
X104574874Y-63322200D02*
X104670112Y-63369819D01*
X104670112Y-63369819D02*
X104860588Y-63369819D01*
X104860588Y-63369819D02*
X104955826Y-63322200D01*
X104955826Y-63322200D02*
X105003445Y-63274580D01*
X105003445Y-63274580D02*
X105051064Y-63179342D01*
X105051064Y-63179342D02*
X105051064Y-62369819D01*
X105955826Y-62369819D02*
X105765350Y-62369819D01*
X105765350Y-62369819D02*
X105670112Y-62417438D01*
X105670112Y-62417438D02*
X105622493Y-62465057D01*
X105622493Y-62465057D02*
X105527255Y-62607914D01*
X105527255Y-62607914D02*
X105479636Y-62798390D01*
X105479636Y-62798390D02*
X105479636Y-63179342D01*
X105479636Y-63179342D02*
X105527255Y-63274580D01*
X105527255Y-63274580D02*
X105574874Y-63322200D01*
X105574874Y-63322200D02*
X105670112Y-63369819D01*
X105670112Y-63369819D02*
X105860588Y-63369819D01*
X105860588Y-63369819D02*
X105955826Y-63322200D01*
X105955826Y-63322200D02*
X106003445Y-63274580D01*
X106003445Y-63274580D02*
X106051064Y-63179342D01*
X106051064Y-63179342D02*
X106051064Y-62941247D01*
X106051064Y-62941247D02*
X106003445Y-62846009D01*
X106003445Y-62846009D02*
X105955826Y-62798390D01*
X105955826Y-62798390D02*
X105860588Y-62750771D01*
X105860588Y-62750771D02*
X105670112Y-62750771D01*
X105670112Y-62750771D02*
X105574874Y-62798390D01*
X105574874Y-62798390D02*
X105527255Y-62846009D01*
X105527255Y-62846009D02*
X105479636Y-62941247D01*
X106670112Y-62369819D02*
X106765350Y-62369819D01*
X106765350Y-62369819D02*
X106860588Y-62417438D01*
X106860588Y-62417438D02*
X106908207Y-62465057D01*
X106908207Y-62465057D02*
X106955826Y-62560295D01*
X106955826Y-62560295D02*
X107003445Y-62750771D01*
X107003445Y-62750771D02*
X107003445Y-62988866D01*
X107003445Y-62988866D02*
X106955826Y-63179342D01*
X106955826Y-63179342D02*
X106908207Y-63274580D01*
X106908207Y-63274580D02*
X106860588Y-63322200D01*
X106860588Y-63322200D02*
X106765350Y-63369819D01*
X106765350Y-63369819D02*
X106670112Y-63369819D01*
X106670112Y-63369819D02*
X106574874Y-63322200D01*
X106574874Y-63322200D02*
X106527255Y-63274580D01*
X106527255Y-63274580D02*
X106479636Y-63179342D01*
X106479636Y-63179342D02*
X106432017Y-62988866D01*
X106432017Y-62988866D02*
X106432017Y-62750771D01*
X106432017Y-62750771D02*
X106479636Y-62560295D01*
X106479636Y-62560295D02*
X106527255Y-62465057D01*
X106527255Y-62465057D02*
X106574874Y-62417438D01*
X106574874Y-62417438D02*
X106670112Y-62369819D01*
X107908207Y-62369819D02*
X107432017Y-62369819D01*
X107432017Y-62369819D02*
X107384398Y-62846009D01*
X107384398Y-62846009D02*
X107432017Y-62798390D01*
X107432017Y-62798390D02*
X107527255Y-62750771D01*
X107527255Y-62750771D02*
X107765350Y-62750771D01*
X107765350Y-62750771D02*
X107860588Y-62798390D01*
X107860588Y-62798390D02*
X107908207Y-62846009D01*
X107908207Y-62846009D02*
X107955826Y-62941247D01*
X107955826Y-62941247D02*
X107955826Y-63179342D01*
X107955826Y-63179342D02*
X107908207Y-63274580D01*
X107908207Y-63274580D02*
X107860588Y-63322200D01*
X107860588Y-63322200D02*
X107765350Y-63369819D01*
X107765350Y-63369819D02*
X107527255Y-63369819D01*
X107527255Y-63369819D02*
X107432017Y-63322200D01*
X107432017Y-63322200D02*
X107384398Y-63274580D01*
X108574874Y-62369819D02*
X108670112Y-62369819D01*
X108670112Y-62369819D02*
X108765350Y-62417438D01*
X108765350Y-62417438D02*
X108812969Y-62465057D01*
X108812969Y-62465057D02*
X108860588Y-62560295D01*
X108860588Y-62560295D02*
X108908207Y-62750771D01*
X108908207Y-62750771D02*
X108908207Y-62988866D01*
X108908207Y-62988866D02*
X108860588Y-63179342D01*
X108860588Y-63179342D02*
X108812969Y-63274580D01*
X108812969Y-63274580D02*
X108765350Y-63322200D01*
X108765350Y-63322200D02*
X108670112Y-63369819D01*
X108670112Y-63369819D02*
X108574874Y-63369819D01*
X108574874Y-63369819D02*
X108479636Y-63322200D01*
X108479636Y-63322200D02*
X108432017Y-63274580D01*
X108432017Y-63274580D02*
X108384398Y-63179342D01*
X108384398Y-63179342D02*
X108336779Y-62988866D01*
X108336779Y-62988866D02*
X108336779Y-62750771D01*
X108336779Y-62750771D02*
X108384398Y-62560295D01*
X108384398Y-62560295D02*
X108432017Y-62465057D01*
X108432017Y-62465057D02*
X108479636Y-62417438D01*
X108479636Y-62417438D02*
X108574874Y-62369819D01*
X138312969Y-82869819D02*
X137836779Y-82869819D01*
X137836779Y-82869819D02*
X137836779Y-81869819D01*
X138836779Y-81869819D02*
X139027255Y-81869819D01*
X139027255Y-81869819D02*
X139122493Y-81917438D01*
X139122493Y-81917438D02*
X139217731Y-82012676D01*
X139217731Y-82012676D02*
X139265350Y-82203152D01*
X139265350Y-82203152D02*
X139265350Y-82536485D01*
X139265350Y-82536485D02*
X139217731Y-82726961D01*
X139217731Y-82726961D02*
X139122493Y-82822200D01*
X139122493Y-82822200D02*
X139027255Y-82869819D01*
X139027255Y-82869819D02*
X138836779Y-82869819D01*
X138836779Y-82869819D02*
X138741541Y-82822200D01*
X138741541Y-82822200D02*
X138646303Y-82726961D01*
X138646303Y-82726961D02*
X138598684Y-82536485D01*
X138598684Y-82536485D02*
X138598684Y-82203152D01*
X138598684Y-82203152D02*
X138646303Y-82012676D01*
X138646303Y-82012676D02*
X138741541Y-81917438D01*
X138741541Y-81917438D02*
X138836779Y-81869819D01*
X140265350Y-82774580D02*
X140217731Y-82822200D01*
X140217731Y-82822200D02*
X140074874Y-82869819D01*
X140074874Y-82869819D02*
X139979636Y-82869819D01*
X139979636Y-82869819D02*
X139836779Y-82822200D01*
X139836779Y-82822200D02*
X139741541Y-82726961D01*
X139741541Y-82726961D02*
X139693922Y-82631723D01*
X139693922Y-82631723D02*
X139646303Y-82441247D01*
X139646303Y-82441247D02*
X139646303Y-82298390D01*
X139646303Y-82298390D02*
X139693922Y-82107914D01*
X139693922Y-82107914D02*
X139741541Y-82012676D01*
X139741541Y-82012676D02*
X139836779Y-81917438D01*
X139836779Y-81917438D02*
X139979636Y-81869819D01*
X139979636Y-81869819D02*
X140074874Y-81869819D01*
X140074874Y-81869819D02*
X140217731Y-81917438D01*
X140217731Y-81917438D02*
X140265350Y-81965057D01*
X140693922Y-82869819D02*
X140693922Y-81869819D01*
X141265350Y-82869819D02*
X140836779Y-82298390D01*
X141265350Y-81869819D02*
X140693922Y-82441247D01*
X148369819Y-68163220D02*
X149179342Y-68163220D01*
X149179342Y-68163220D02*
X149274580Y-68115601D01*
X149274580Y-68115601D02*
X149322200Y-68067982D01*
X149322200Y-68067982D02*
X149369819Y-67972744D01*
X149369819Y-67972744D02*
X149369819Y-67782268D01*
X149369819Y-67782268D02*
X149322200Y-67687030D01*
X149322200Y-67687030D02*
X149274580Y-67639411D01*
X149274580Y-67639411D02*
X149179342Y-67591792D01*
X149179342Y-67591792D02*
X148369819Y-67591792D01*
X149369819Y-67115601D02*
X148369819Y-67115601D01*
X148369819Y-67115601D02*
X149369819Y-66544173D01*
X149369819Y-66544173D02*
X148369819Y-66544173D01*
X149369819Y-66067982D02*
X148369819Y-66067982D01*
X148369819Y-65734649D02*
X148369819Y-65163221D01*
X149369819Y-65448935D02*
X148369819Y-65448935D01*
X149322200Y-64877506D02*
X149369819Y-64734649D01*
X149369819Y-64734649D02*
X149369819Y-64496554D01*
X149369819Y-64496554D02*
X149322200Y-64401316D01*
X149322200Y-64401316D02*
X149274580Y-64353697D01*
X149274580Y-64353697D02*
X149179342Y-64306078D01*
X149179342Y-64306078D02*
X149084104Y-64306078D01*
X149084104Y-64306078D02*
X148988866Y-64353697D01*
X148988866Y-64353697D02*
X148941247Y-64401316D01*
X148941247Y-64401316D02*
X148893628Y-64496554D01*
X148893628Y-64496554D02*
X148846009Y-64687030D01*
X148846009Y-64687030D02*
X148798390Y-64782268D01*
X148798390Y-64782268D02*
X148750771Y-64829887D01*
X148750771Y-64829887D02*
X148655533Y-64877506D01*
X148655533Y-64877506D02*
X148560295Y-64877506D01*
X148560295Y-64877506D02*
X148465057Y-64829887D01*
X148465057Y-64829887D02*
X148417438Y-64782268D01*
X148417438Y-64782268D02*
X148369819Y-64687030D01*
X148369819Y-64687030D02*
X148369819Y-64448935D01*
X148369819Y-64448935D02*
X148417438Y-64306078D01*
X154166667Y-57907200D02*
X154309524Y-57954819D01*
X154309524Y-57954819D02*
X154547619Y-57954819D01*
X154547619Y-57954819D02*
X154642857Y-57907200D01*
X154642857Y-57907200D02*
X154690476Y-57859580D01*
X154690476Y-57859580D02*
X154738095Y-57764342D01*
X154738095Y-57764342D02*
X154738095Y-57669104D01*
X154738095Y-57669104D02*
X154690476Y-57573866D01*
X154690476Y-57573866D02*
X154642857Y-57526247D01*
X154642857Y-57526247D02*
X154547619Y-57478628D01*
X154547619Y-57478628D02*
X154357143Y-57431009D01*
X154357143Y-57431009D02*
X154261905Y-57383390D01*
X154261905Y-57383390D02*
X154214286Y-57335771D01*
X154214286Y-57335771D02*
X154166667Y-57240533D01*
X154166667Y-57240533D02*
X154166667Y-57145295D01*
X154166667Y-57145295D02*
X154214286Y-57050057D01*
X154214286Y-57050057D02*
X154261905Y-57002438D01*
X154261905Y-57002438D02*
X154357143Y-56954819D01*
X154357143Y-56954819D02*
X154595238Y-56954819D01*
X154595238Y-56954819D02*
X154738095Y-57002438D01*
X155071429Y-56954819D02*
X155309524Y-57954819D01*
X155309524Y-57954819D02*
X155500000Y-57240533D01*
X155500000Y-57240533D02*
X155690476Y-57954819D01*
X155690476Y-57954819D02*
X155928572Y-56954819D01*
X156833333Y-57954819D02*
X156261905Y-57954819D01*
X156547619Y-57954819D02*
X156547619Y-56954819D01*
X156547619Y-56954819D02*
X156452381Y-57097676D01*
X156452381Y-57097676D02*
X156357143Y-57192914D01*
X156357143Y-57192914D02*
X156261905Y-57240533D01*
X153666667Y-67407200D02*
X153809524Y-67454819D01*
X153809524Y-67454819D02*
X154047619Y-67454819D01*
X154047619Y-67454819D02*
X154142857Y-67407200D01*
X154142857Y-67407200D02*
X154190476Y-67359580D01*
X154190476Y-67359580D02*
X154238095Y-67264342D01*
X154238095Y-67264342D02*
X154238095Y-67169104D01*
X154238095Y-67169104D02*
X154190476Y-67073866D01*
X154190476Y-67073866D02*
X154142857Y-67026247D01*
X154142857Y-67026247D02*
X154047619Y-66978628D01*
X154047619Y-66978628D02*
X153857143Y-66931009D01*
X153857143Y-66931009D02*
X153761905Y-66883390D01*
X153761905Y-66883390D02*
X153714286Y-66835771D01*
X153714286Y-66835771D02*
X153666667Y-66740533D01*
X153666667Y-66740533D02*
X153666667Y-66645295D01*
X153666667Y-66645295D02*
X153714286Y-66550057D01*
X153714286Y-66550057D02*
X153761905Y-66502438D01*
X153761905Y-66502438D02*
X153857143Y-66454819D01*
X153857143Y-66454819D02*
X154095238Y-66454819D01*
X154095238Y-66454819D02*
X154238095Y-66502438D01*
X154571429Y-66454819D02*
X154809524Y-67454819D01*
X154809524Y-67454819D02*
X155000000Y-66740533D01*
X155000000Y-66740533D02*
X155190476Y-67454819D01*
X155190476Y-67454819D02*
X155428572Y-66454819D01*
X155761905Y-66550057D02*
X155809524Y-66502438D01*
X155809524Y-66502438D02*
X155904762Y-66454819D01*
X155904762Y-66454819D02*
X156142857Y-66454819D01*
X156142857Y-66454819D02*
X156238095Y-66502438D01*
X156238095Y-66502438D02*
X156285714Y-66550057D01*
X156285714Y-66550057D02*
X156333333Y-66645295D01*
X156333333Y-66645295D02*
X156333333Y-66740533D01*
X156333333Y-66740533D02*
X156285714Y-66883390D01*
X156285714Y-66883390D02*
X155714286Y-67454819D01*
X155714286Y-67454819D02*
X156333333Y-67454819D01*
X129333333Y-58584819D02*
X129000000Y-58108628D01*
X128761905Y-58584819D02*
X128761905Y-57584819D01*
X128761905Y-57584819D02*
X129142857Y-57584819D01*
X129142857Y-57584819D02*
X129238095Y-57632438D01*
X129238095Y-57632438D02*
X129285714Y-57680057D01*
X129285714Y-57680057D02*
X129333333Y-57775295D01*
X129333333Y-57775295D02*
X129333333Y-57918152D01*
X129333333Y-57918152D02*
X129285714Y-58013390D01*
X129285714Y-58013390D02*
X129238095Y-58061009D01*
X129238095Y-58061009D02*
X129142857Y-58108628D01*
X129142857Y-58108628D02*
X128761905Y-58108628D01*
X130190476Y-57584819D02*
X130000000Y-57584819D01*
X130000000Y-57584819D02*
X129904762Y-57632438D01*
X129904762Y-57632438D02*
X129857143Y-57680057D01*
X129857143Y-57680057D02*
X129761905Y-57822914D01*
X129761905Y-57822914D02*
X129714286Y-58013390D01*
X129714286Y-58013390D02*
X129714286Y-58394342D01*
X129714286Y-58394342D02*
X129761905Y-58489580D01*
X129761905Y-58489580D02*
X129809524Y-58537200D01*
X129809524Y-58537200D02*
X129904762Y-58584819D01*
X129904762Y-58584819D02*
X130095238Y-58584819D01*
X130095238Y-58584819D02*
X130190476Y-58537200D01*
X130190476Y-58537200D02*
X130238095Y-58489580D01*
X130238095Y-58489580D02*
X130285714Y-58394342D01*
X130285714Y-58394342D02*
X130285714Y-58156247D01*
X130285714Y-58156247D02*
X130238095Y-58061009D01*
X130238095Y-58061009D02*
X130190476Y-58013390D01*
X130190476Y-58013390D02*
X130095238Y-57965771D01*
X130095238Y-57965771D02*
X129904762Y-57965771D01*
X129904762Y-57965771D02*
X129809524Y-58013390D01*
X129809524Y-58013390D02*
X129761905Y-58061009D01*
X129761905Y-58061009D02*
X129714286Y-58156247D01*
X130833333Y-91324819D02*
X130500000Y-90848628D01*
X130261905Y-91324819D02*
X130261905Y-90324819D01*
X130261905Y-90324819D02*
X130642857Y-90324819D01*
X130642857Y-90324819D02*
X130738095Y-90372438D01*
X130738095Y-90372438D02*
X130785714Y-90420057D01*
X130785714Y-90420057D02*
X130833333Y-90515295D01*
X130833333Y-90515295D02*
X130833333Y-90658152D01*
X130833333Y-90658152D02*
X130785714Y-90753390D01*
X130785714Y-90753390D02*
X130738095Y-90801009D01*
X130738095Y-90801009D02*
X130642857Y-90848628D01*
X130642857Y-90848628D02*
X130261905Y-90848628D01*
X131738095Y-90324819D02*
X131261905Y-90324819D01*
X131261905Y-90324819D02*
X131214286Y-90801009D01*
X131214286Y-90801009D02*
X131261905Y-90753390D01*
X131261905Y-90753390D02*
X131357143Y-90705771D01*
X131357143Y-90705771D02*
X131595238Y-90705771D01*
X131595238Y-90705771D02*
X131690476Y-90753390D01*
X131690476Y-90753390D02*
X131738095Y-90801009D01*
X131738095Y-90801009D02*
X131785714Y-90896247D01*
X131785714Y-90896247D02*
X131785714Y-91134342D01*
X131785714Y-91134342D02*
X131738095Y-91229580D01*
X131738095Y-91229580D02*
X131690476Y-91277200D01*
X131690476Y-91277200D02*
X131595238Y-91324819D01*
X131595238Y-91324819D02*
X131357143Y-91324819D01*
X131357143Y-91324819D02*
X131261905Y-91277200D01*
X131261905Y-91277200D02*
X131214286Y-91229580D01*
X138253333Y-73824819D02*
X137920000Y-73348628D01*
X137681905Y-73824819D02*
X137681905Y-72824819D01*
X137681905Y-72824819D02*
X138062857Y-72824819D01*
X138062857Y-72824819D02*
X138158095Y-72872438D01*
X138158095Y-72872438D02*
X138205714Y-72920057D01*
X138205714Y-72920057D02*
X138253333Y-73015295D01*
X138253333Y-73015295D02*
X138253333Y-73158152D01*
X138253333Y-73158152D02*
X138205714Y-73253390D01*
X138205714Y-73253390D02*
X138158095Y-73301009D01*
X138158095Y-73301009D02*
X138062857Y-73348628D01*
X138062857Y-73348628D02*
X137681905Y-73348628D01*
X139110476Y-73158152D02*
X139110476Y-73824819D01*
X138872381Y-72777200D02*
X138634286Y-73491485D01*
X138634286Y-73491485D02*
X139253333Y-73491485D01*
X165324819Y-57746666D02*
X164848628Y-58079999D01*
X165324819Y-58318094D02*
X164324819Y-58318094D01*
X164324819Y-58318094D02*
X164324819Y-57937142D01*
X164324819Y-57937142D02*
X164372438Y-57841904D01*
X164372438Y-57841904D02*
X164420057Y-57794285D01*
X164420057Y-57794285D02*
X164515295Y-57746666D01*
X164515295Y-57746666D02*
X164658152Y-57746666D01*
X164658152Y-57746666D02*
X164753390Y-57794285D01*
X164753390Y-57794285D02*
X164801009Y-57841904D01*
X164801009Y-57841904D02*
X164848628Y-57937142D01*
X164848628Y-57937142D02*
X164848628Y-58318094D01*
X165324819Y-56794285D02*
X165324819Y-57365713D01*
X165324819Y-57079999D02*
X164324819Y-57079999D01*
X164324819Y-57079999D02*
X164467676Y-57175237D01*
X164467676Y-57175237D02*
X164562914Y-57270475D01*
X164562914Y-57270475D02*
X164610533Y-57365713D01*
X154833333Y-81084819D02*
X154500000Y-80608628D01*
X154261905Y-81084819D02*
X154261905Y-80084819D01*
X154261905Y-80084819D02*
X154642857Y-80084819D01*
X154642857Y-80084819D02*
X154738095Y-80132438D01*
X154738095Y-80132438D02*
X154785714Y-80180057D01*
X154785714Y-80180057D02*
X154833333Y-80275295D01*
X154833333Y-80275295D02*
X154833333Y-80418152D01*
X154833333Y-80418152D02*
X154785714Y-80513390D01*
X154785714Y-80513390D02*
X154738095Y-80561009D01*
X154738095Y-80561009D02*
X154642857Y-80608628D01*
X154642857Y-80608628D02*
X154261905Y-80608628D01*
X155166667Y-80084819D02*
X155785714Y-80084819D01*
X155785714Y-80084819D02*
X155452381Y-80465771D01*
X155452381Y-80465771D02*
X155595238Y-80465771D01*
X155595238Y-80465771D02*
X155690476Y-80513390D01*
X155690476Y-80513390D02*
X155738095Y-80561009D01*
X155738095Y-80561009D02*
X155785714Y-80656247D01*
X155785714Y-80656247D02*
X155785714Y-80894342D01*
X155785714Y-80894342D02*
X155738095Y-80989580D01*
X155738095Y-80989580D02*
X155690476Y-81037200D01*
X155690476Y-81037200D02*
X155595238Y-81084819D01*
X155595238Y-81084819D02*
X155309524Y-81084819D01*
X155309524Y-81084819D02*
X155214286Y-81037200D01*
X155214286Y-81037200D02*
X155166667Y-80989580D01*
X138166667Y-78407200D02*
X138309524Y-78454819D01*
X138309524Y-78454819D02*
X138547619Y-78454819D01*
X138547619Y-78454819D02*
X138642857Y-78407200D01*
X138642857Y-78407200D02*
X138690476Y-78359580D01*
X138690476Y-78359580D02*
X138738095Y-78264342D01*
X138738095Y-78264342D02*
X138738095Y-78169104D01*
X138738095Y-78169104D02*
X138690476Y-78073866D01*
X138690476Y-78073866D02*
X138642857Y-78026247D01*
X138642857Y-78026247D02*
X138547619Y-77978628D01*
X138547619Y-77978628D02*
X138357143Y-77931009D01*
X138357143Y-77931009D02*
X138261905Y-77883390D01*
X138261905Y-77883390D02*
X138214286Y-77835771D01*
X138214286Y-77835771D02*
X138166667Y-77740533D01*
X138166667Y-77740533D02*
X138166667Y-77645295D01*
X138166667Y-77645295D02*
X138214286Y-77550057D01*
X138214286Y-77550057D02*
X138261905Y-77502438D01*
X138261905Y-77502438D02*
X138357143Y-77454819D01*
X138357143Y-77454819D02*
X138595238Y-77454819D01*
X138595238Y-77454819D02*
X138738095Y-77502438D01*
X139071429Y-77454819D02*
X139309524Y-78454819D01*
X139309524Y-78454819D02*
X139500000Y-77740533D01*
X139500000Y-77740533D02*
X139690476Y-78454819D01*
X139690476Y-78454819D02*
X139928572Y-77454819D01*
X140738095Y-77788152D02*
X140738095Y-78454819D01*
X140500000Y-77407200D02*
X140261905Y-78121485D01*
X140261905Y-78121485D02*
X140880952Y-78121485D01*
X154166667Y-76907200D02*
X154309524Y-76954819D01*
X154309524Y-76954819D02*
X154547619Y-76954819D01*
X154547619Y-76954819D02*
X154642857Y-76907200D01*
X154642857Y-76907200D02*
X154690476Y-76859580D01*
X154690476Y-76859580D02*
X154738095Y-76764342D01*
X154738095Y-76764342D02*
X154738095Y-76669104D01*
X154738095Y-76669104D02*
X154690476Y-76573866D01*
X154690476Y-76573866D02*
X154642857Y-76526247D01*
X154642857Y-76526247D02*
X154547619Y-76478628D01*
X154547619Y-76478628D02*
X154357143Y-76431009D01*
X154357143Y-76431009D02*
X154261905Y-76383390D01*
X154261905Y-76383390D02*
X154214286Y-76335771D01*
X154214286Y-76335771D02*
X154166667Y-76240533D01*
X154166667Y-76240533D02*
X154166667Y-76145295D01*
X154166667Y-76145295D02*
X154214286Y-76050057D01*
X154214286Y-76050057D02*
X154261905Y-76002438D01*
X154261905Y-76002438D02*
X154357143Y-75954819D01*
X154357143Y-75954819D02*
X154595238Y-75954819D01*
X154595238Y-75954819D02*
X154738095Y-76002438D01*
X155071429Y-75954819D02*
X155309524Y-76954819D01*
X155309524Y-76954819D02*
X155500000Y-76240533D01*
X155500000Y-76240533D02*
X155690476Y-76954819D01*
X155690476Y-76954819D02*
X155928572Y-75954819D01*
X156214286Y-75954819D02*
X156833333Y-75954819D01*
X156833333Y-75954819D02*
X156500000Y-76335771D01*
X156500000Y-76335771D02*
X156642857Y-76335771D01*
X156642857Y-76335771D02*
X156738095Y-76383390D01*
X156738095Y-76383390D02*
X156785714Y-76431009D01*
X156785714Y-76431009D02*
X156833333Y-76526247D01*
X156833333Y-76526247D02*
X156833333Y-76764342D01*
X156833333Y-76764342D02*
X156785714Y-76859580D01*
X156785714Y-76859580D02*
X156738095Y-76907200D01*
X156738095Y-76907200D02*
X156642857Y-76954819D01*
X156642857Y-76954819D02*
X156357143Y-76954819D01*
X156357143Y-76954819D02*
X156261905Y-76907200D01*
X156261905Y-76907200D02*
X156214286Y-76859580D01*
X123224819Y-66833333D02*
X123939104Y-66833333D01*
X123939104Y-66833333D02*
X124081961Y-66880952D01*
X124081961Y-66880952D02*
X124177200Y-66976190D01*
X124177200Y-66976190D02*
X124224819Y-67119047D01*
X124224819Y-67119047D02*
X124224819Y-67214285D01*
X123224819Y-65880952D02*
X123224819Y-66357142D01*
X123224819Y-66357142D02*
X123701009Y-66404761D01*
X123701009Y-66404761D02*
X123653390Y-66357142D01*
X123653390Y-66357142D02*
X123605771Y-66261904D01*
X123605771Y-66261904D02*
X123605771Y-66023809D01*
X123605771Y-66023809D02*
X123653390Y-65928571D01*
X123653390Y-65928571D02*
X123701009Y-65880952D01*
X123701009Y-65880952D02*
X123796247Y-65833333D01*
X123796247Y-65833333D02*
X124034342Y-65833333D01*
X124034342Y-65833333D02*
X124129580Y-65880952D01*
X124129580Y-65880952D02*
X124177200Y-65928571D01*
X124177200Y-65928571D02*
X124224819Y-66023809D01*
X124224819Y-66023809D02*
X124224819Y-66261904D01*
X124224819Y-66261904D02*
X124177200Y-66357142D01*
X124177200Y-66357142D02*
X124129580Y-66404761D01*
X160584819Y-70746666D02*
X160108628Y-71079999D01*
X160584819Y-71318094D02*
X159584819Y-71318094D01*
X159584819Y-71318094D02*
X159584819Y-70937142D01*
X159584819Y-70937142D02*
X159632438Y-70841904D01*
X159632438Y-70841904D02*
X159680057Y-70794285D01*
X159680057Y-70794285D02*
X159775295Y-70746666D01*
X159775295Y-70746666D02*
X159918152Y-70746666D01*
X159918152Y-70746666D02*
X160013390Y-70794285D01*
X160013390Y-70794285D02*
X160061009Y-70841904D01*
X160061009Y-70841904D02*
X160108628Y-70937142D01*
X160108628Y-70937142D02*
X160108628Y-71318094D01*
X159680057Y-70365713D02*
X159632438Y-70318094D01*
X159632438Y-70318094D02*
X159584819Y-70222856D01*
X159584819Y-70222856D02*
X159584819Y-69984761D01*
X159584819Y-69984761D02*
X159632438Y-69889523D01*
X159632438Y-69889523D02*
X159680057Y-69841904D01*
X159680057Y-69841904D02*
X159775295Y-69794285D01*
X159775295Y-69794285D02*
X159870533Y-69794285D01*
X159870533Y-69794285D02*
X160013390Y-69841904D01*
X160013390Y-69841904D02*
X160584819Y-70413332D01*
X160584819Y-70413332D02*
X160584819Y-69794285D01*
X135404819Y-62833333D02*
X136119104Y-62833333D01*
X136119104Y-62833333D02*
X136261961Y-62880952D01*
X136261961Y-62880952D02*
X136357200Y-62976190D01*
X136357200Y-62976190D02*
X136404819Y-63119047D01*
X136404819Y-63119047D02*
X136404819Y-63214285D01*
X135404819Y-62452380D02*
X135404819Y-61785714D01*
X135404819Y-61785714D02*
X136404819Y-62214285D01*
X160969819Y-91095238D02*
X160493628Y-91428571D01*
X160969819Y-91666666D02*
X159969819Y-91666666D01*
X159969819Y-91666666D02*
X159969819Y-91285714D01*
X159969819Y-91285714D02*
X160017438Y-91190476D01*
X160017438Y-91190476D02*
X160065057Y-91142857D01*
X160065057Y-91142857D02*
X160160295Y-91095238D01*
X160160295Y-91095238D02*
X160303152Y-91095238D01*
X160303152Y-91095238D02*
X160398390Y-91142857D01*
X160398390Y-91142857D02*
X160446009Y-91190476D01*
X160446009Y-91190476D02*
X160493628Y-91285714D01*
X160493628Y-91285714D02*
X160493628Y-91666666D01*
X159969819Y-90809523D02*
X160969819Y-90476190D01*
X160969819Y-90476190D02*
X159969819Y-90142857D01*
X160969819Y-89285714D02*
X160969819Y-89857142D01*
X160969819Y-89571428D02*
X159969819Y-89571428D01*
X159969819Y-89571428D02*
X160112676Y-89666666D01*
X160112676Y-89666666D02*
X160207914Y-89761904D01*
X160207914Y-89761904D02*
X160255533Y-89857142D01*
X141416667Y-91157200D02*
X141559524Y-91204819D01*
X141559524Y-91204819D02*
X141797619Y-91204819D01*
X141797619Y-91204819D02*
X141892857Y-91157200D01*
X141892857Y-91157200D02*
X141940476Y-91109580D01*
X141940476Y-91109580D02*
X141988095Y-91014342D01*
X141988095Y-91014342D02*
X141988095Y-90919104D01*
X141988095Y-90919104D02*
X141940476Y-90823866D01*
X141940476Y-90823866D02*
X141892857Y-90776247D01*
X141892857Y-90776247D02*
X141797619Y-90728628D01*
X141797619Y-90728628D02*
X141607143Y-90681009D01*
X141607143Y-90681009D02*
X141511905Y-90633390D01*
X141511905Y-90633390D02*
X141464286Y-90585771D01*
X141464286Y-90585771D02*
X141416667Y-90490533D01*
X141416667Y-90490533D02*
X141416667Y-90395295D01*
X141416667Y-90395295D02*
X141464286Y-90300057D01*
X141464286Y-90300057D02*
X141511905Y-90252438D01*
X141511905Y-90252438D02*
X141607143Y-90204819D01*
X141607143Y-90204819D02*
X141845238Y-90204819D01*
X141845238Y-90204819D02*
X141988095Y-90252438D01*
X142321429Y-90204819D02*
X142559524Y-91204819D01*
X142559524Y-91204819D02*
X142750000Y-90490533D01*
X142750000Y-90490533D02*
X142940476Y-91204819D01*
X142940476Y-91204819D02*
X143178572Y-90204819D01*
X144035714Y-90204819D02*
X143559524Y-90204819D01*
X143559524Y-90204819D02*
X143511905Y-90681009D01*
X143511905Y-90681009D02*
X143559524Y-90633390D01*
X143559524Y-90633390D02*
X143654762Y-90585771D01*
X143654762Y-90585771D02*
X143892857Y-90585771D01*
X143892857Y-90585771D02*
X143988095Y-90633390D01*
X143988095Y-90633390D02*
X144035714Y-90681009D01*
X144035714Y-90681009D02*
X144083333Y-90776247D01*
X144083333Y-90776247D02*
X144083333Y-91014342D01*
X144083333Y-91014342D02*
X144035714Y-91109580D01*
X144035714Y-91109580D02*
X143988095Y-91157200D01*
X143988095Y-91157200D02*
X143892857Y-91204819D01*
X143892857Y-91204819D02*
X143654762Y-91204819D01*
X143654762Y-91204819D02*
X143559524Y-91157200D01*
X143559524Y-91157200D02*
X143511905Y-91109580D01*
X117224819Y-90333333D02*
X117939104Y-90333333D01*
X117939104Y-90333333D02*
X118081961Y-90380952D01*
X118081961Y-90380952D02*
X118177200Y-90476190D01*
X118177200Y-90476190D02*
X118224819Y-90619047D01*
X118224819Y-90619047D02*
X118224819Y-90714285D01*
X117224819Y-89428571D02*
X117224819Y-89619047D01*
X117224819Y-89619047D02*
X117272438Y-89714285D01*
X117272438Y-89714285D02*
X117320057Y-89761904D01*
X117320057Y-89761904D02*
X117462914Y-89857142D01*
X117462914Y-89857142D02*
X117653390Y-89904761D01*
X117653390Y-89904761D02*
X118034342Y-89904761D01*
X118034342Y-89904761D02*
X118129580Y-89857142D01*
X118129580Y-89857142D02*
X118177200Y-89809523D01*
X118177200Y-89809523D02*
X118224819Y-89714285D01*
X118224819Y-89714285D02*
X118224819Y-89523809D01*
X118224819Y-89523809D02*
X118177200Y-89428571D01*
X118177200Y-89428571D02*
X118129580Y-89380952D01*
X118129580Y-89380952D02*
X118034342Y-89333333D01*
X118034342Y-89333333D02*
X117796247Y-89333333D01*
X117796247Y-89333333D02*
X117701009Y-89380952D01*
X117701009Y-89380952D02*
X117653390Y-89428571D01*
X117653390Y-89428571D02*
X117605771Y-89523809D01*
X117605771Y-89523809D02*
X117605771Y-89714285D01*
X117605771Y-89714285D02*
X117653390Y-89809523D01*
X117653390Y-89809523D02*
X117701009Y-89857142D01*
X117701009Y-89857142D02*
X117796247Y-89904761D01*
X126054819Y-66608094D02*
X125054819Y-66608094D01*
X125054819Y-66608094D02*
X125054819Y-66369999D01*
X125054819Y-66369999D02*
X125102438Y-66227142D01*
X125102438Y-66227142D02*
X125197676Y-66131904D01*
X125197676Y-66131904D02*
X125292914Y-66084285D01*
X125292914Y-66084285D02*
X125483390Y-66036666D01*
X125483390Y-66036666D02*
X125626247Y-66036666D01*
X125626247Y-66036666D02*
X125816723Y-66084285D01*
X125816723Y-66084285D02*
X125911961Y-66131904D01*
X125911961Y-66131904D02*
X126007200Y-66227142D01*
X126007200Y-66227142D02*
X126054819Y-66369999D01*
X126054819Y-66369999D02*
X126054819Y-66608094D01*
X126054819Y-65084285D02*
X126054819Y-65655713D01*
X126054819Y-65369999D02*
X125054819Y-65369999D01*
X125054819Y-65369999D02*
X125197676Y-65465237D01*
X125197676Y-65465237D02*
X125292914Y-65560475D01*
X125292914Y-65560475D02*
X125340533Y-65655713D01*
D11*
%TO.C,J1*%
X126610000Y-96130000D02*
X127940000Y-96130000D01*
X126610000Y-97460000D02*
X126610000Y-96130000D01*
X129210000Y-96130000D02*
X147050000Y-96130000D01*
X129210000Y-98790000D02*
X129210000Y-96130000D01*
X129210000Y-98790000D02*
X147050000Y-98790000D01*
X147050000Y-98790000D02*
X147050000Y-96130000D01*
%TO.C,J3*%
X149470000Y-96130000D02*
X150800000Y-96130000D01*
X149470000Y-97460000D02*
X149470000Y-96130000D01*
X152070000Y-96130000D02*
X164830000Y-96130000D01*
X152070000Y-98790000D02*
X152070000Y-96130000D01*
X152070000Y-98790000D02*
X164830000Y-98790000D01*
X164830000Y-98790000D02*
X164830000Y-96130000D01*
%TO.C,J2*%
X117466000Y-47870000D02*
X118796000Y-47870000D01*
X117466000Y-49200000D02*
X117466000Y-47870000D01*
X120066000Y-47870000D02*
X142986000Y-47870000D01*
X120066000Y-50530000D02*
X120066000Y-47870000D01*
X120066000Y-50530000D02*
X142986000Y-50530000D01*
X142986000Y-50530000D02*
X142986000Y-47870000D01*
%TO.C,J4*%
X144390000Y-47870000D02*
X145720000Y-47870000D01*
X144390000Y-49200000D02*
X144390000Y-47870000D01*
X146990000Y-47870000D02*
X164830000Y-47870000D01*
X146990000Y-50530000D02*
X146990000Y-47870000D01*
X146990000Y-50530000D02*
X164830000Y-50530000D01*
X164830000Y-50530000D02*
X164830000Y-47870000D01*
%TO.C,SW1*%
X152000000Y-56750000D02*
X152000000Y-58250000D01*
X153250000Y-60750000D02*
X157750000Y-60750000D01*
X157750000Y-54250000D02*
X153250000Y-54250000D01*
X159000000Y-58250000D02*
X159000000Y-56750000D01*
%TO.C,SW2*%
X151500000Y-66250000D02*
X151500000Y-67750000D01*
X152750000Y-70250000D02*
X157250000Y-70250000D01*
X157250000Y-63750000D02*
X152750000Y-63750000D01*
X158500000Y-67750000D02*
X158500000Y-66250000D01*
%TO.C,R6*%
X125460000Y-60500000D02*
X126230000Y-60500000D01*
X126230000Y-59130000D02*
X126230000Y-61870000D01*
X126230000Y-61870000D02*
X132770000Y-61870000D01*
X132770000Y-59130000D02*
X126230000Y-59130000D01*
X132770000Y-61870000D02*
X132770000Y-59130000D01*
X133540000Y-60500000D02*
X132770000Y-60500000D01*
%TO.C,R5*%
X126960000Y-88500000D02*
X127730000Y-88500000D01*
X127730000Y-87130000D02*
X127730000Y-89870000D01*
X127730000Y-89870000D02*
X134270000Y-89870000D01*
X134270000Y-87130000D02*
X127730000Y-87130000D01*
X134270000Y-89870000D02*
X134270000Y-87130000D01*
X135040000Y-88500000D02*
X134270000Y-88500000D01*
%TO.C,R4*%
X134380000Y-71000000D02*
X135150000Y-71000000D01*
X135150000Y-69630000D02*
X135150000Y-72370000D01*
X135150000Y-72370000D02*
X141690000Y-72370000D01*
X141690000Y-69630000D02*
X135150000Y-69630000D01*
X141690000Y-72370000D02*
X141690000Y-69630000D01*
X142460000Y-71000000D02*
X141690000Y-71000000D01*
%TO.C,R1*%
X161130000Y-54310000D02*
X161130000Y-60850000D01*
X161130000Y-60850000D02*
X163870000Y-60850000D01*
X162500000Y-53540000D02*
X162500000Y-54310000D01*
X162500000Y-61620000D02*
X162500000Y-60850000D01*
X163870000Y-54310000D02*
X161130000Y-54310000D01*
X163870000Y-60850000D02*
X163870000Y-54310000D01*
%TO.C,R3*%
X150960000Y-83000000D02*
X151730000Y-83000000D01*
X151730000Y-81630000D02*
X151730000Y-84370000D01*
X151730000Y-84370000D02*
X158270000Y-84370000D01*
X158270000Y-81630000D02*
X151730000Y-81630000D01*
X158270000Y-84370000D02*
X158270000Y-81630000D01*
X159040000Y-83000000D02*
X158270000Y-83000000D01*
%TO.C,SW4*%
X136000000Y-77250000D02*
X136000000Y-78750000D01*
X137250000Y-81250000D02*
X141750000Y-81250000D01*
X141750000Y-74750000D02*
X137250000Y-74750000D01*
X143000000Y-78750000D02*
X143000000Y-77250000D01*
%TO.C,SW3*%
X152000000Y-75750000D02*
X152000000Y-77250000D01*
X153250000Y-79750000D02*
X157750000Y-79750000D01*
X157750000Y-73250000D02*
X153250000Y-73250000D01*
X159000000Y-77250000D02*
X159000000Y-75750000D01*
%TO.C,J5*%
X101890000Y-65170000D02*
X101890000Y-67830000D01*
X119730000Y-65170000D02*
X101890000Y-65170000D01*
X119730000Y-65170000D02*
X119730000Y-67830000D01*
X119730000Y-67830000D02*
X101890000Y-67830000D01*
X122330000Y-66500000D02*
X122330000Y-67830000D01*
X122330000Y-67830000D02*
X121000000Y-67830000D01*
%TO.C,R2*%
X161130000Y-67310000D02*
X161130000Y-73850000D01*
X161130000Y-73850000D02*
X163870000Y-73850000D01*
X162500000Y-66540000D02*
X162500000Y-67310000D01*
X162500000Y-74620000D02*
X162500000Y-73850000D01*
X163870000Y-67310000D02*
X161130000Y-67310000D01*
X163870000Y-73850000D02*
X163870000Y-67310000D01*
%TO.C,J7*%
X136750000Y-66600000D02*
X136750000Y-67850000D01*
X136750000Y-67850000D02*
X138000000Y-67850000D01*
X137040000Y-57440000D02*
X137040000Y-67560000D01*
X137040000Y-67560000D02*
X143010000Y-67560000D01*
X137050000Y-57450000D02*
X137050000Y-59250000D01*
X137050000Y-59250000D02*
X137800000Y-59250000D01*
X137050000Y-60750000D02*
X137050000Y-64250000D01*
X137050000Y-64250000D02*
X137800000Y-64250000D01*
X137050000Y-65750000D02*
X137050000Y-67550000D01*
X137050000Y-67550000D02*
X137800000Y-67550000D01*
X137800000Y-57450000D02*
X137050000Y-57450000D01*
X137800000Y-59250000D02*
X137800000Y-57450000D01*
X137800000Y-60750000D02*
X137050000Y-60750000D01*
X137800000Y-64250000D02*
X137800000Y-60750000D01*
X137800000Y-65750000D02*
X137050000Y-65750000D01*
X137800000Y-67550000D02*
X137800000Y-65750000D01*
X139300000Y-57450000D02*
X139300000Y-58200000D01*
X139300000Y-58200000D02*
X142250000Y-58200000D01*
X139300000Y-66800000D02*
X142250000Y-66800000D01*
X139300000Y-67550000D02*
X139300000Y-66800000D01*
X142250000Y-58200000D02*
X142250000Y-62500000D01*
X142250000Y-66800000D02*
X142250000Y-62500000D01*
X143010000Y-57440000D02*
X137040000Y-57440000D01*
X143010000Y-67560000D02*
X143010000Y-57440000D01*
%TO.C,RV1*%
X149615000Y-85615000D02*
X149615000Y-95385000D01*
X159385000Y-85615000D02*
X149615000Y-85615000D01*
X159385000Y-85615000D02*
X159385000Y-95385000D01*
X159385000Y-95385000D02*
X149615000Y-95385000D01*
%TO.C,SW5*%
X139250000Y-90000000D02*
X139250000Y-91500000D01*
X140500000Y-94000000D02*
X145000000Y-94000000D01*
X145000000Y-87500000D02*
X140500000Y-87500000D01*
X146250000Y-91500000D02*
X146250000Y-90000000D01*
%TO.C,J6*%
X106050000Y-88670000D02*
X106050000Y-91330000D01*
X113730000Y-88670000D02*
X106050000Y-88670000D01*
X113730000Y-88670000D02*
X113730000Y-91330000D01*
X113730000Y-91330000D02*
X106050000Y-91330000D01*
X116330000Y-90000000D02*
X116330000Y-91330000D01*
X116330000Y-91330000D02*
X115000000Y-91330000D01*
%TO.C,D1*%
X128015000Y-68430000D02*
X131105000Y-68430000D01*
X128015170Y-68430000D02*
G75*
G02*
X129559952Y-62880000I1544830J2560000D01*
G01*
X129560048Y-62880000D02*
G75*
G02*
X131104830Y-68430000I-48J-2990000D01*
G01*
X132060000Y-65870000D02*
G75*
G02*
X127060000Y-65870000I-2500000J0D01*
G01*
X127060000Y-65870000D02*
G75*
G02*
X132060000Y-65870000I2500000J0D01*
G01*
%TD*%
M02*
