%TF.GenerationSoftware,KiCad,Pcbnew,8.0.8*%
%TF.CreationDate,2025-02-03T18:19:12-07:00*%
%TF.ProjectId,project1,70726f6a-6563-4743-912e-6b696361645f,rev?*%
%TF.SameCoordinates,Original*%
%TF.FileFunction,Copper,L2,Bot*%
%TF.FilePolarity,Positive*%
%FSLAX46Y46*%
G04 Gerber Fmt 4.6, Leading zero omitted, Abs format (unit mm)*
G04 Created by KiCad (PCBNEW 8.0.8) date 2025-02-03 18:19:12*
%MOMM*%
%LPD*%
G01*
G04 APERTURE LIST*
G04 Aperture macros list*
%AMRoundRect*
0 Rectangle with rounded corners*
0 $1 Rounding radius*
0 $2 $3 $4 $5 $6 $7 $8 $9 X,Y pos of 4 corners*
0 Add a 4 corners polygon primitive as box body*
4,1,4,$2,$3,$4,$5,$6,$7,$8,$9,$2,$3,0*
0 Add four circle primitives for the rounded corners*
1,1,$1+$1,$2,$3*
1,1,$1+$1,$4,$5*
1,1,$1+$1,$6,$7*
1,1,$1+$1,$8,$9*
0 Add four rect primitives between the rounded corners*
20,1,$1+$1,$2,$3,$4,$5,0*
20,1,$1+$1,$4,$5,$6,$7,0*
20,1,$1+$1,$6,$7,$8,$9,0*
20,1,$1+$1,$8,$9,$2,$3,0*%
G04 Aperture macros list end*
%TA.AperFunction,ComponentPad*%
%ADD10R,1.700000X1.700000*%
%TD*%
%TA.AperFunction,ComponentPad*%
%ADD11O,1.700000X1.700000*%
%TD*%
%TA.AperFunction,ComponentPad*%
%ADD12C,2.000000*%
%TD*%
%TA.AperFunction,ComponentPad*%
%ADD13C,1.600000*%
%TD*%
%TA.AperFunction,ComponentPad*%
%ADD14O,1.600000X1.600000*%
%TD*%
%TA.AperFunction,ComponentPad*%
%ADD15RoundRect,0.250000X0.725000X-0.600000X0.725000X0.600000X-0.725000X0.600000X-0.725000X-0.600000X0*%
%TD*%
%TA.AperFunction,ComponentPad*%
%ADD16O,1.950000X1.700000*%
%TD*%
%TA.AperFunction,ComponentPad*%
%ADD17C,1.440000*%
%TD*%
%TA.AperFunction,ComponentPad*%
%ADD18R,1.800000X1.800000*%
%TD*%
%TA.AperFunction,ComponentPad*%
%ADD19C,1.800000*%
%TD*%
G04 APERTURE END LIST*
D10*
%TO.P,J1,1,Pin_1*%
%TO.N,unconnected-(J1-Pin_1-Pad1)*%
X127940000Y-97460000D03*
D11*
%TO.P,J1,2,Pin_2*%
%TO.N,/IOREF*%
X130480000Y-97460000D03*
%TO.P,J1,3,Pin_3*%
%TO.N,/~{RESET}*%
X133020000Y-97460000D03*
%TO.P,J1,4,Pin_4*%
%TO.N,+3V3*%
X135560000Y-97460000D03*
%TO.P,J1,5,Pin_5*%
%TO.N,+5V*%
X138100000Y-97460000D03*
%TO.P,J1,6,Pin_6*%
%TO.N,GND*%
X140640000Y-97460000D03*
%TO.P,J1,7,Pin_7*%
X143180000Y-97460000D03*
%TO.P,J1,8,Pin_8*%
%TO.N,VCC*%
X145720000Y-97460000D03*
%TD*%
D10*
%TO.P,J3,1,Pin_1*%
%TO.N,/temp_sensor*%
X150800000Y-97460000D03*
D11*
%TO.P,J3,2,Pin_2*%
%TO.N,/A1*%
X153340000Y-97460000D03*
%TO.P,J3,3,Pin_3*%
%TO.N,/A2*%
X155880000Y-97460000D03*
%TO.P,J3,4,Pin_4*%
%TO.N,/A3*%
X158420000Y-97460000D03*
%TO.P,J3,5,Pin_5*%
%TO.N,/SDA{slash}A4*%
X160960000Y-97460000D03*
%TO.P,J3,6,Pin_6*%
%TO.N,/SCL{slash}A5*%
X163500000Y-97460000D03*
%TD*%
D10*
%TO.P,J2,1,Pin_1*%
%TO.N,/I2C_SDA*%
X118796000Y-49200000D03*
D11*
%TO.P,J2,2,Pin_2*%
%TO.N,/I2C_SCL*%
X121336000Y-49200000D03*
%TO.P,J2,3,Pin_3*%
%TO.N,/AREF*%
X123876000Y-49200000D03*
%TO.P,J2,4,Pin_4*%
%TO.N,GND*%
X126416000Y-49200000D03*
%TO.P,J2,5,Pin_5*%
%TO.N,/13*%
X128956000Y-49200000D03*
%TO.P,J2,6,Pin_6*%
%TO.N,/12*%
X131496000Y-49200000D03*
%TO.P,J2,7,Pin_7*%
%TO.N,/\u002A11*%
X134036000Y-49200000D03*
%TO.P,J2,8,Pin_8*%
%TO.N,/\u002A10*%
X136576000Y-49200000D03*
%TO.P,J2,9,Pin_9*%
%TO.N,/led_light*%
X139116000Y-49200000D03*
%TO.P,J2,10,Pin_10*%
%TO.N,/temp_digital*%
X141656000Y-49200000D03*
%TD*%
D10*
%TO.P,J4,1,Pin_1*%
%TO.N,/7*%
X145720000Y-49200000D03*
D11*
%TO.P,J4,2,Pin_2*%
%TO.N,/button_lock*%
X148260000Y-49200000D03*
%TO.P,J4,3,Pin_3*%
%TO.N,/button_light*%
X150800000Y-49200000D03*
%TO.P,J4,4,Pin_4*%
%TO.N,/button_units*%
X153340000Y-49200000D03*
%TO.P,J4,5,Pin_5*%
%TO.N,/button_cal*%
X155880000Y-49200000D03*
%TO.P,J4,6,Pin_6*%
%TO.N,/button_onoff*%
X158420000Y-49200000D03*
%TO.P,J4,7,Pin_7*%
%TO.N,/TX{slash}1*%
X160960000Y-49200000D03*
%TO.P,J4,8,Pin_8*%
%TO.N,/RX{slash}0*%
X163500000Y-49200000D03*
%TD*%
D12*
%TO.P,SW1,1,A*%
%TO.N,/button_onoff*%
X152250000Y-55250000D03*
X158750000Y-55250000D03*
%TO.P,SW1,2,B*%
%TO.N,+5V*%
X152250000Y-59750000D03*
X158750000Y-59750000D03*
%TD*%
%TO.P,SW2,1,A*%
%TO.N,/button_units*%
X158250000Y-69250000D03*
X151750000Y-69250000D03*
%TO.P,SW2,2,B*%
%TO.N,+5V*%
X158250000Y-64750000D03*
X151750000Y-64750000D03*
%TD*%
D13*
%TO.P,R6,1*%
%TO.N,Net-(D1-A)*%
X124420000Y-60500000D03*
D14*
%TO.P,R6,2*%
%TO.N,/led_light*%
X134580000Y-60500000D03*
%TD*%
D13*
%TO.P,R5,1*%
%TO.N,/button_light*%
X136080000Y-88500000D03*
D14*
%TO.P,R5,2*%
%TO.N,GND*%
X125920000Y-88500000D03*
%TD*%
D13*
%TO.P,R4,1*%
%TO.N,/button_lock*%
X143500000Y-71000000D03*
D14*
%TO.P,R4,2*%
%TO.N,GND*%
X133340000Y-71000000D03*
%TD*%
D13*
%TO.P,R1,1*%
%TO.N,/button_onoff*%
X162500000Y-52500000D03*
D14*
%TO.P,R1,2*%
%TO.N,GND*%
X162500000Y-62660000D03*
%TD*%
D13*
%TO.P,R3,1*%
%TO.N,/button_cal*%
X149920000Y-83000000D03*
D14*
%TO.P,R3,2*%
%TO.N,GND*%
X160080000Y-83000000D03*
%TD*%
D12*
%TO.P,SW4,1,A*%
%TO.N,/button_lock*%
X142750000Y-80250000D03*
X136250000Y-80250000D03*
%TO.P,SW4,2,B*%
%TO.N,+5V*%
X142750000Y-75750000D03*
X136250000Y-75750000D03*
%TD*%
%TO.P,SW3,1,A*%
%TO.N,/button_cal*%
X152250000Y-74250000D03*
X158750000Y-74250000D03*
%TO.P,SW3,2,B*%
%TO.N,+5V*%
X152250000Y-78750000D03*
X158750000Y-78750000D03*
%TD*%
D10*
%TO.P,J5,1,Pin_1*%
%TO.N,+5V*%
X121000000Y-66500000D03*
D11*
%TO.P,J5,2,Pin_2*%
%TO.N,GND*%
X118460000Y-66500000D03*
%TO.P,J5,3,Pin_3*%
%TO.N,/I2C_SCL*%
X115920000Y-66500000D03*
%TO.P,J5,4,Pin_4*%
%TO.N,/I2C_SDA*%
X113380000Y-66500000D03*
%TO.P,J5,5,Pin_5*%
%TO.N,unconnected-(J5-Pin_5-Pad5)*%
X110840000Y-66500000D03*
%TO.P,J5,6,Pin_6*%
%TO.N,unconnected-(J5-Pin_6-Pad6)*%
X108300000Y-66500000D03*
%TO.P,J5,7,Pin_7*%
%TO.N,unconnected-(J5-Pin_7-Pad7)*%
X105760000Y-66500000D03*
%TO.P,J5,8,Pin_8*%
%TO.N,unconnected-(J5-Pin_8-Pad8)*%
X103220000Y-66500000D03*
%TD*%
D13*
%TO.P,R2,1*%
%TO.N,/button_units*%
X162500000Y-75660000D03*
D14*
%TO.P,R2,2*%
%TO.N,GND*%
X162500000Y-65500000D03*
%TD*%
D15*
%TO.P,J7,1,Pin_1*%
%TO.N,+5V*%
X139500000Y-65000000D03*
D16*
%TO.P,J7,2,Pin_2*%
%TO.N,/temp_digital*%
X139500000Y-62500000D03*
%TO.P,J7,3,Pin_3*%
%TO.N,GND*%
X139500000Y-60000000D03*
%TD*%
D17*
%TO.P,RV1,1,1*%
%TO.N,+5V*%
X151960000Y-90515000D03*
%TO.P,RV1,2,2*%
%TO.N,/temp_sensor*%
X154500000Y-93055000D03*
%TO.P,RV1,3,3*%
%TO.N,GND*%
X157040000Y-90515000D03*
%TD*%
D12*
%TO.P,SW5,1,A*%
%TO.N,/button_light*%
X139500000Y-88500000D03*
X146000000Y-88500000D03*
%TO.P,SW5,2,B*%
%TO.N,+5V*%
X139500000Y-93000000D03*
X146000000Y-93000000D03*
%TD*%
D10*
%TO.P,J6,1,Pin_1*%
%TO.N,GND*%
X115000000Y-90000000D03*
D11*
%TO.P,J6,2,Pin_2*%
%TO.N,+5V*%
X112460000Y-90000000D03*
%TO.P,J6,3,Pin_3*%
%TO.N,/I2C_SCL*%
X109920000Y-90000000D03*
%TO.P,J6,4,Pin_4*%
%TO.N,/I2C_SDA*%
X107380000Y-90000000D03*
%TD*%
D18*
%TO.P,D1,1,K*%
%TO.N,GND*%
X129560000Y-67140000D03*
D19*
%TO.P,D1,2,A*%
%TO.N,Net-(D1-A)*%
X129560000Y-64600000D03*
%TD*%
%TA.AperFunction,Conductor*%
%TO.N,GND*%
G36*
X142714075Y-97267007D02*
G01*
X142680000Y-97394174D01*
X142680000Y-97525826D01*
X142714075Y-97652993D01*
X142746988Y-97710000D01*
X141073012Y-97710000D01*
X141105925Y-97652993D01*
X141140000Y-97525826D01*
X141140000Y-97394174D01*
X141105925Y-97267007D01*
X141073012Y-97210000D01*
X142746988Y-97210000D01*
X142714075Y-97267007D01*
G37*
%TD.AperFunction*%
%TA.AperFunction,Conductor*%
G36*
X163484404Y-46755185D02*
G01*
X163505046Y-46771819D01*
X165928181Y-49194954D01*
X165961666Y-49256277D01*
X165964500Y-49282635D01*
X165964500Y-59344982D01*
X165964500Y-59375018D01*
X165975994Y-59402767D01*
X165975995Y-59402768D01*
X168468181Y-61894954D01*
X168501666Y-61956277D01*
X168504500Y-61982635D01*
X168504500Y-96107364D01*
X168484815Y-96174403D01*
X168468181Y-96195045D01*
X165997233Y-98665994D01*
X165975995Y-98687231D01*
X165964500Y-98714982D01*
X165964500Y-99231907D01*
X165963903Y-99244062D01*
X165952505Y-99359778D01*
X165947763Y-99383618D01*
X165917832Y-99482290D01*
X165915789Y-99489024D01*
X165906486Y-99511482D01*
X165854561Y-99608627D01*
X165841056Y-99628839D01*
X165771176Y-99713988D01*
X165753988Y-99731176D01*
X165668839Y-99801056D01*
X165648627Y-99814561D01*
X165551482Y-99866486D01*
X165529028Y-99875787D01*
X165487028Y-99888528D01*
X165423618Y-99907763D01*
X165399778Y-99912505D01*
X165291162Y-99923203D01*
X165284060Y-99923903D01*
X165271907Y-99924500D01*
X100768093Y-99924500D01*
X100755939Y-99923903D01*
X100747995Y-99923120D01*
X100640221Y-99912505D01*
X100616381Y-99907763D01*
X100599445Y-99902625D01*
X100510968Y-99875786D01*
X100488517Y-99866486D01*
X100391372Y-99814561D01*
X100371160Y-99801056D01*
X100286011Y-99731176D01*
X100268823Y-99713988D01*
X100198943Y-99628839D01*
X100185438Y-99608627D01*
X100133510Y-99511476D01*
X100124215Y-99489037D01*
X100092234Y-99383612D01*
X100087494Y-99359777D01*
X100076097Y-99244061D01*
X100075500Y-99231907D01*
X100075500Y-96561345D01*
X126581500Y-96561345D01*
X126581500Y-98358654D01*
X126588011Y-98419202D01*
X126588011Y-98419204D01*
X126639111Y-98556204D01*
X126726739Y-98673261D01*
X126843796Y-98760889D01*
X126980799Y-98811989D01*
X127008050Y-98814918D01*
X127041345Y-98818499D01*
X127041362Y-98818500D01*
X128838638Y-98818500D01*
X128838654Y-98818499D01*
X128865692Y-98815591D01*
X128899201Y-98811989D01*
X129036204Y-98760889D01*
X129153261Y-98673261D01*
X129240889Y-98556204D01*
X129286138Y-98434887D01*
X129328009Y-98378956D01*
X129393474Y-98354539D01*
X129461746Y-98369391D01*
X129493545Y-98394236D01*
X129556760Y-98462906D01*
X129734424Y-98601189D01*
X129734425Y-98601189D01*
X129734427Y-98601191D01*
X129861135Y-98669761D01*
X129932426Y-98708342D01*
X130145365Y-98781444D01*
X130367431Y-98818500D01*
X130592569Y-98818500D01*
X130814635Y-98781444D01*
X131027574Y-98708342D01*
X131225576Y-98601189D01*
X131403240Y-98462906D01*
X131524594Y-98331082D01*
X131555715Y-98297276D01*
X131555715Y-98297275D01*
X131555722Y-98297268D01*
X131646193Y-98158790D01*
X131699338Y-98113437D01*
X131768569Y-98104013D01*
X131831905Y-98133515D01*
X131853804Y-98158787D01*
X131944278Y-98297268D01*
X131944283Y-98297273D01*
X131944284Y-98297276D01*
X132070968Y-98434889D01*
X132096760Y-98462906D01*
X132274424Y-98601189D01*
X132274425Y-98601189D01*
X132274427Y-98601191D01*
X132401135Y-98669761D01*
X132472426Y-98708342D01*
X132685365Y-98781444D01*
X132907431Y-98818500D01*
X133132569Y-98818500D01*
X133354635Y-98781444D01*
X133567574Y-98708342D01*
X133765576Y-98601189D01*
X133943240Y-98462906D01*
X134064594Y-98331082D01*
X134095715Y-98297276D01*
X134095715Y-98297275D01*
X134095722Y-98297268D01*
X134186193Y-98158790D01*
X134239338Y-98113437D01*
X134308569Y-98104013D01*
X134371905Y-98133515D01*
X134393804Y-98158787D01*
X134484278Y-98297268D01*
X134484283Y-98297273D01*
X134484284Y-98297276D01*
X134610968Y-98434889D01*
X134636760Y-98462906D01*
X134814424Y-98601189D01*
X134814425Y-98601189D01*
X134814427Y-98601191D01*
X134941135Y-98669761D01*
X135012426Y-98708342D01*
X135225365Y-98781444D01*
X135447431Y-98818500D01*
X135672569Y-98818500D01*
X135894635Y-98781444D01*
X136107574Y-98708342D01*
X136305576Y-98601189D01*
X136483240Y-98462906D01*
X136604594Y-98331082D01*
X136635715Y-98297276D01*
X136635715Y-98297275D01*
X136635722Y-98297268D01*
X136726193Y-98158790D01*
X136779338Y-98113437D01*
X136848569Y-98104013D01*
X136911905Y-98133515D01*
X136933804Y-98158787D01*
X137024278Y-98297268D01*
X137024283Y-98297273D01*
X137024284Y-98297276D01*
X137150968Y-98434889D01*
X137176760Y-98462906D01*
X137354424Y-98601189D01*
X137354425Y-98601189D01*
X137354427Y-98601191D01*
X137481135Y-98669761D01*
X137552426Y-98708342D01*
X137765365Y-98781444D01*
X137987431Y-98818500D01*
X138212569Y-98818500D01*
X138434635Y-98781444D01*
X138647574Y-98708342D01*
X138845576Y-98601189D01*
X139023240Y-98462906D01*
X139144594Y-98331082D01*
X139175715Y-98297276D01*
X139175715Y-98297275D01*
X139175722Y-98297268D01*
X139269749Y-98153347D01*
X139322894Y-98107994D01*
X139392125Y-98098570D01*
X139455461Y-98128072D01*
X139475130Y-98150048D01*
X139601890Y-98331078D01*
X139768917Y-98498105D01*
X139962421Y-98633600D01*
X140176507Y-98733429D01*
X140176516Y-98733433D01*
X140390000Y-98790634D01*
X140390000Y-97893012D01*
X140447007Y-97925925D01*
X140574174Y-97960000D01*
X140705826Y-97960000D01*
X140832993Y-97925925D01*
X140890000Y-97893012D01*
X140890000Y-98790633D01*
X141103483Y-98733433D01*
X141103492Y-98733429D01*
X141317578Y-98633600D01*
X141511082Y-98498105D01*
X141678105Y-98331082D01*
X141808425Y-98144968D01*
X141863002Y-98101344D01*
X141932501Y-98094151D01*
X141994855Y-98125673D01*
X142011575Y-98144968D01*
X142141894Y-98331082D01*
X142308917Y-98498105D01*
X142502421Y-98633600D01*
X142716507Y-98733429D01*
X142716516Y-98733433D01*
X142930000Y-98790634D01*
X142930000Y-97893012D01*
X142987007Y-97925925D01*
X143114174Y-97960000D01*
X143245826Y-97960000D01*
X143372993Y-97925925D01*
X143430000Y-97893012D01*
X143430000Y-98790633D01*
X143643483Y-98733433D01*
X143643492Y-98733429D01*
X143857578Y-98633600D01*
X144051082Y-98498105D01*
X144218105Y-98331082D01*
X144344868Y-98150048D01*
X144399445Y-98106423D01*
X144468944Y-98099231D01*
X144531298Y-98130753D01*
X144550251Y-98153350D01*
X144644276Y-98297265D01*
X144644284Y-98297276D01*
X144770968Y-98434889D01*
X144796760Y-98462906D01*
X144974424Y-98601189D01*
X144974425Y-98601189D01*
X144974427Y-98601191D01*
X145101135Y-98669761D01*
X145172426Y-98708342D01*
X145385365Y-98781444D01*
X145607431Y-98818500D01*
X145832569Y-98818500D01*
X146054635Y-98781444D01*
X146267574Y-98708342D01*
X146465576Y-98601189D01*
X146643240Y-98462906D01*
X146764594Y-98331082D01*
X146795715Y-98297276D01*
X146795717Y-98297273D01*
X146795722Y-98297268D01*
X146918860Y-98108791D01*
X147009296Y-97902616D01*
X147064564Y-97684368D01*
X147067164Y-97652993D01*
X147083156Y-97460005D01*
X147083156Y-97459994D01*
X147064565Y-97235640D01*
X147064563Y-97235628D01*
X147009296Y-97017385D01*
X146999071Y-96994075D01*
X146918860Y-96811209D01*
X146902706Y-96786484D01*
X146795723Y-96622734D01*
X146795715Y-96622723D01*
X146739212Y-96561345D01*
X149441500Y-96561345D01*
X149441500Y-98358654D01*
X149448011Y-98419202D01*
X149448011Y-98419204D01*
X149499111Y-98556204D01*
X149586739Y-98673261D01*
X149703796Y-98760889D01*
X149840799Y-98811989D01*
X149868050Y-98814918D01*
X149901345Y-98818499D01*
X149901362Y-98818500D01*
X151698638Y-98818500D01*
X151698654Y-98818499D01*
X151725692Y-98815591D01*
X151759201Y-98811989D01*
X151896204Y-98760889D01*
X152013261Y-98673261D01*
X152100889Y-98556204D01*
X152146138Y-98434887D01*
X152188009Y-98378956D01*
X152253474Y-98354539D01*
X152321746Y-98369391D01*
X152353545Y-98394236D01*
X152416760Y-98462906D01*
X152594424Y-98601189D01*
X152594425Y-98601189D01*
X152594427Y-98601191D01*
X152721135Y-98669761D01*
X152792426Y-98708342D01*
X153005365Y-98781444D01*
X153227431Y-98818500D01*
X153452569Y-98818500D01*
X153674635Y-98781444D01*
X153887574Y-98708342D01*
X154085576Y-98601189D01*
X154263240Y-98462906D01*
X154384594Y-98331082D01*
X154415715Y-98297276D01*
X154415715Y-98297275D01*
X154415722Y-98297268D01*
X154506193Y-98158790D01*
X154559338Y-98113437D01*
X154628569Y-98104013D01*
X154691905Y-98133515D01*
X154713804Y-98158787D01*
X154804278Y-98297268D01*
X154804283Y-98297273D01*
X154804284Y-98297276D01*
X154930968Y-98434889D01*
X154956760Y-98462906D01*
X155134424Y-98601189D01*
X155134425Y-98601189D01*
X155134427Y-98601191D01*
X155261135Y-98669761D01*
X155332426Y-98708342D01*
X155545365Y-98781444D01*
X155767431Y-98818500D01*
X155992569Y-98818500D01*
X156214635Y-98781444D01*
X156427574Y-98708342D01*
X156625576Y-98601189D01*
X156803240Y-98462906D01*
X156924594Y-98331082D01*
X156955715Y-98297276D01*
X156955715Y-98297275D01*
X156955722Y-98297268D01*
X157046193Y-98158790D01*
X157099338Y-98113437D01*
X157168569Y-98104013D01*
X157231905Y-98133515D01*
X157253804Y-98158787D01*
X157344278Y-98297268D01*
X157344283Y-98297273D01*
X157344284Y-98297276D01*
X157470968Y-98434889D01*
X157496760Y-98462906D01*
X157674424Y-98601189D01*
X157674425Y-98601189D01*
X157674427Y-98601191D01*
X157801135Y-98669761D01*
X157872426Y-98708342D01*
X158085365Y-98781444D01*
X158307431Y-98818500D01*
X158532569Y-98818500D01*
X158754635Y-98781444D01*
X158967574Y-98708342D01*
X159165576Y-98601189D01*
X159343240Y-98462906D01*
X159464594Y-98331082D01*
X159495715Y-98297276D01*
X159495715Y-98297275D01*
X159495722Y-98297268D01*
X159586193Y-98158790D01*
X159639338Y-98113437D01*
X159708569Y-98104013D01*
X159771905Y-98133515D01*
X159793804Y-98158787D01*
X159884278Y-98297268D01*
X159884283Y-98297273D01*
X159884284Y-98297276D01*
X160010968Y-98434889D01*
X160036760Y-98462906D01*
X160214424Y-98601189D01*
X160214425Y-98601189D01*
X160214427Y-98601191D01*
X160341135Y-98669761D01*
X160412426Y-98708342D01*
X160625365Y-98781444D01*
X160847431Y-98818500D01*
X161072569Y-98818500D01*
X161294635Y-98781444D01*
X161507574Y-98708342D01*
X161705576Y-98601189D01*
X161883240Y-98462906D01*
X162004594Y-98331082D01*
X162035715Y-98297276D01*
X162035715Y-98297275D01*
X162035722Y-98297268D01*
X162126193Y-98158790D01*
X162179338Y-98113437D01*
X162248569Y-98104013D01*
X162311905Y-98133515D01*
X162333804Y-98158787D01*
X162424278Y-98297268D01*
X162424283Y-98297273D01*
X162424284Y-98297276D01*
X162550968Y-98434889D01*
X162576760Y-98462906D01*
X162754424Y-98601189D01*
X162754425Y-98601189D01*
X162754427Y-98601191D01*
X162881135Y-98669761D01*
X162952426Y-98708342D01*
X163165365Y-98781444D01*
X163387431Y-98818500D01*
X163612569Y-98818500D01*
X163834635Y-98781444D01*
X164047574Y-98708342D01*
X164245576Y-98601189D01*
X164423240Y-98462906D01*
X164544594Y-98331082D01*
X164575715Y-98297276D01*
X164575717Y-98297273D01*
X164575722Y-98297268D01*
X164698860Y-98108791D01*
X164789296Y-97902616D01*
X164844564Y-97684368D01*
X164847164Y-97652993D01*
X164863156Y-97460005D01*
X164863156Y-97459994D01*
X164844565Y-97235640D01*
X164844563Y-97235628D01*
X164789296Y-97017385D01*
X164779071Y-96994075D01*
X164698860Y-96811209D01*
X164682706Y-96786484D01*
X164575723Y-96622734D01*
X164575715Y-96622723D01*
X164423243Y-96457097D01*
X164423238Y-96457092D01*
X164245577Y-96318812D01*
X164245572Y-96318808D01*
X164047580Y-96211661D01*
X164047577Y-96211659D01*
X164047574Y-96211658D01*
X164047571Y-96211657D01*
X164047569Y-96211656D01*
X163834637Y-96138556D01*
X163612569Y-96101500D01*
X163387431Y-96101500D01*
X163165362Y-96138556D01*
X162952430Y-96211656D01*
X162952419Y-96211661D01*
X162754427Y-96318808D01*
X162754422Y-96318812D01*
X162576761Y-96457092D01*
X162576756Y-96457097D01*
X162424284Y-96622723D01*
X162424276Y-96622734D01*
X162333808Y-96761206D01*
X162280662Y-96806562D01*
X162211431Y-96815986D01*
X162148095Y-96786484D01*
X162126192Y-96761206D01*
X162035723Y-96622734D01*
X162035715Y-96622723D01*
X161883243Y-96457097D01*
X161883238Y-96457092D01*
X161705577Y-96318812D01*
X161705572Y-96318808D01*
X161507580Y-96211661D01*
X161507577Y-96211659D01*
X161507574Y-96211658D01*
X161507571Y-96211657D01*
X161507569Y-96211656D01*
X161294637Y-96138556D01*
X161072569Y-96101500D01*
X160847431Y-96101500D01*
X160625362Y-96138556D01*
X160412430Y-96211656D01*
X160412419Y-96211661D01*
X160214427Y-96318808D01*
X160214422Y-96318812D01*
X160036761Y-96457092D01*
X160036756Y-96457097D01*
X159884284Y-96622723D01*
X159884276Y-96622734D01*
X159793808Y-96761206D01*
X159740662Y-96806562D01*
X159671431Y-96815986D01*
X159608095Y-96786484D01*
X159586192Y-96761206D01*
X159495723Y-96622734D01*
X159495715Y-96622723D01*
X159343243Y-96457097D01*
X159343238Y-96457092D01*
X159165577Y-96318812D01*
X159165572Y-96318808D01*
X158967580Y-96211661D01*
X158967577Y-96211659D01*
X158967574Y-96211658D01*
X158967571Y-96211657D01*
X158967569Y-96211656D01*
X158754637Y-96138556D01*
X158532569Y-96101500D01*
X158307431Y-96101500D01*
X158085362Y-96138556D01*
X157872430Y-96211656D01*
X157872419Y-96211661D01*
X157674427Y-96318808D01*
X157674422Y-96318812D01*
X157496761Y-96457092D01*
X157496756Y-96457097D01*
X157344284Y-96622723D01*
X157344276Y-96622734D01*
X157253808Y-96761206D01*
X157200662Y-96806562D01*
X157131431Y-96815986D01*
X157068095Y-96786484D01*
X157046192Y-96761206D01*
X156955723Y-96622734D01*
X156955715Y-96622723D01*
X156803243Y-96457097D01*
X156803238Y-96457092D01*
X156625577Y-96318812D01*
X156625572Y-96318808D01*
X156427580Y-96211661D01*
X156427577Y-96211659D01*
X156427574Y-96211658D01*
X156427571Y-96211657D01*
X156427569Y-96211656D01*
X156214637Y-96138556D01*
X155992569Y-96101500D01*
X155767431Y-96101500D01*
X155545362Y-96138556D01*
X155332430Y-96211656D01*
X155332419Y-96211661D01*
X155134427Y-96318808D01*
X155134422Y-96318812D01*
X154956761Y-96457092D01*
X154956756Y-96457097D01*
X154804284Y-96622723D01*
X154804276Y-96622734D01*
X154713808Y-96761206D01*
X154660662Y-96806562D01*
X154591431Y-96815986D01*
X154528095Y-96786484D01*
X154506192Y-96761206D01*
X154415723Y-96622734D01*
X154415715Y-96622723D01*
X154263243Y-96457097D01*
X154263238Y-96457092D01*
X154085577Y-96318812D01*
X154085572Y-96318808D01*
X153887580Y-96211661D01*
X153887577Y-96211659D01*
X153887574Y-96211658D01*
X153887571Y-96211657D01*
X153887569Y-96211656D01*
X153674637Y-96138556D01*
X153452569Y-96101500D01*
X153227431Y-96101500D01*
X153005362Y-96138556D01*
X152792430Y-96211656D01*
X152792419Y-96211661D01*
X152594427Y-96318808D01*
X152594422Y-96318812D01*
X152416761Y-96457092D01*
X152353548Y-96525760D01*
X152293661Y-96561750D01*
X152223823Y-96559649D01*
X152166207Y-96520124D01*
X152146138Y-96485110D01*
X152100889Y-96363796D01*
X152067214Y-96318812D01*
X152013261Y-96246739D01*
X151896204Y-96159111D01*
X151895172Y-96158726D01*
X151759203Y-96108011D01*
X151698654Y-96101500D01*
X151698638Y-96101500D01*
X149901362Y-96101500D01*
X149901345Y-96101500D01*
X149840797Y-96108011D01*
X149840795Y-96108011D01*
X149703795Y-96159111D01*
X149586739Y-96246739D01*
X149499111Y-96363795D01*
X149448011Y-96500795D01*
X149448011Y-96500797D01*
X149441500Y-96561345D01*
X146739212Y-96561345D01*
X146643243Y-96457097D01*
X146643238Y-96457092D01*
X146465577Y-96318812D01*
X146465572Y-96318808D01*
X146267580Y-96211661D01*
X146267577Y-96211659D01*
X146267574Y-96211658D01*
X146267571Y-96211657D01*
X146267569Y-96211656D01*
X146054637Y-96138556D01*
X145832569Y-96101500D01*
X145607431Y-96101500D01*
X145385362Y-96138556D01*
X145172430Y-96211656D01*
X145172419Y-96211661D01*
X144974427Y-96318808D01*
X144974422Y-96318812D01*
X144796761Y-96457092D01*
X144796756Y-96457097D01*
X144644284Y-96622723D01*
X144644276Y-96622734D01*
X144550251Y-96766650D01*
X144497105Y-96812007D01*
X144427873Y-96821430D01*
X144364538Y-96791928D01*
X144344868Y-96769951D01*
X144218113Y-96588926D01*
X144218108Y-96588920D01*
X144051082Y-96421894D01*
X143857578Y-96286399D01*
X143643492Y-96186570D01*
X143643486Y-96186567D01*
X143430000Y-96129364D01*
X143430000Y-97026988D01*
X143372993Y-96994075D01*
X143245826Y-96960000D01*
X143114174Y-96960000D01*
X142987007Y-96994075D01*
X142930000Y-97026988D01*
X142930000Y-96129364D01*
X142929999Y-96129364D01*
X142716513Y-96186567D01*
X142716507Y-96186570D01*
X142502422Y-96286399D01*
X142502420Y-96286400D01*
X142308926Y-96421886D01*
X142308920Y-96421891D01*
X142141891Y-96588920D01*
X142141890Y-96588922D01*
X142011575Y-96775031D01*
X141956998Y-96818655D01*
X141887499Y-96825848D01*
X141825145Y-96794326D01*
X141808425Y-96775031D01*
X141678109Y-96588922D01*
X141678108Y-96588920D01*
X141511082Y-96421894D01*
X141317578Y-96286399D01*
X141103492Y-96186570D01*
X141103486Y-96186567D01*
X140890000Y-96129364D01*
X140890000Y-97026988D01*
X140832993Y-96994075D01*
X140705826Y-96960000D01*
X140574174Y-96960000D01*
X140447007Y-96994075D01*
X140390000Y-97026988D01*
X140390000Y-96129364D01*
X140389999Y-96129364D01*
X140176513Y-96186567D01*
X140176507Y-96186570D01*
X139962422Y-96286399D01*
X139962420Y-96286400D01*
X139768926Y-96421886D01*
X139768920Y-96421891D01*
X139601891Y-96588920D01*
X139601890Y-96588922D01*
X139475131Y-96769952D01*
X139420554Y-96813577D01*
X139351055Y-96820769D01*
X139288701Y-96789247D01*
X139269752Y-96766656D01*
X139175722Y-96622732D01*
X139175715Y-96622725D01*
X139175715Y-96622723D01*
X139023243Y-96457097D01*
X139023238Y-96457092D01*
X138845577Y-96318812D01*
X138845572Y-96318808D01*
X138647580Y-96211661D01*
X138647577Y-96211659D01*
X138647574Y-96211658D01*
X138647571Y-96211657D01*
X138647569Y-96211656D01*
X138434637Y-96138556D01*
X138212569Y-96101500D01*
X137987431Y-96101500D01*
X137765362Y-96138556D01*
X137552430Y-96211656D01*
X137552419Y-96211661D01*
X137354427Y-96318808D01*
X137354422Y-96318812D01*
X137176761Y-96457092D01*
X137176756Y-96457097D01*
X137024284Y-96622723D01*
X137024276Y-96622734D01*
X136933808Y-96761206D01*
X136880662Y-96806562D01*
X136811431Y-96815986D01*
X136748095Y-96786484D01*
X136726192Y-96761206D01*
X136635723Y-96622734D01*
X136635715Y-96622723D01*
X136483243Y-96457097D01*
X136483238Y-96457092D01*
X136305577Y-96318812D01*
X136305572Y-96318808D01*
X136107580Y-96211661D01*
X136107577Y-96211659D01*
X136107574Y-96211658D01*
X136107571Y-96211657D01*
X136107569Y-96211656D01*
X135894637Y-96138556D01*
X135672569Y-96101500D01*
X135447431Y-96101500D01*
X135225362Y-96138556D01*
X135012430Y-96211656D01*
X135012419Y-96211661D01*
X134814427Y-96318808D01*
X134814422Y-96318812D01*
X134636761Y-96457092D01*
X134636756Y-96457097D01*
X134484284Y-96622723D01*
X134484276Y-96622734D01*
X134393808Y-96761206D01*
X134340662Y-96806562D01*
X134271431Y-96815986D01*
X134208095Y-96786484D01*
X134186192Y-96761206D01*
X134095723Y-96622734D01*
X134095715Y-96622723D01*
X133943243Y-96457097D01*
X133943238Y-96457092D01*
X133765577Y-96318812D01*
X133765572Y-96318808D01*
X133567580Y-96211661D01*
X133567577Y-96211659D01*
X133567574Y-96211658D01*
X133567571Y-96211657D01*
X133567569Y-96211656D01*
X133354637Y-96138556D01*
X133132569Y-96101500D01*
X132907431Y-96101500D01*
X132685362Y-96138556D01*
X132472430Y-96211656D01*
X132472419Y-96211661D01*
X132274427Y-96318808D01*
X132274422Y-96318812D01*
X132096761Y-96457092D01*
X132096756Y-96457097D01*
X131944284Y-96622723D01*
X131944276Y-96622734D01*
X131853808Y-96761206D01*
X131800662Y-96806562D01*
X131731431Y-96815986D01*
X131668095Y-96786484D01*
X131646192Y-96761206D01*
X131555723Y-96622734D01*
X131555715Y-96622723D01*
X131403243Y-96457097D01*
X131403238Y-96457092D01*
X131225577Y-96318812D01*
X131225572Y-96318808D01*
X131027580Y-96211661D01*
X131027577Y-96211659D01*
X131027574Y-96211658D01*
X131027571Y-96211657D01*
X131027569Y-96211656D01*
X130814637Y-96138556D01*
X130592569Y-96101500D01*
X130367431Y-96101500D01*
X130145362Y-96138556D01*
X129932430Y-96211656D01*
X129932419Y-96211661D01*
X129734427Y-96318808D01*
X129734422Y-96318812D01*
X129556761Y-96457092D01*
X129493548Y-96525760D01*
X129433661Y-96561750D01*
X129363823Y-96559649D01*
X129306207Y-96520124D01*
X129286138Y-96485110D01*
X129240889Y-96363796D01*
X129207214Y-96318812D01*
X129153261Y-96246739D01*
X129036204Y-96159111D01*
X129035172Y-96158726D01*
X128899203Y-96108011D01*
X128838654Y-96101500D01*
X128838638Y-96101500D01*
X127041362Y-96101500D01*
X127041345Y-96101500D01*
X126980797Y-96108011D01*
X126980795Y-96108011D01*
X126843795Y-96159111D01*
X126726739Y-96246739D01*
X126639111Y-96363795D01*
X126588011Y-96500795D01*
X126588011Y-96500797D01*
X126581500Y-96561345D01*
X100075500Y-96561345D01*
X100075500Y-93000000D01*
X137986835Y-93000000D01*
X138005465Y-93236714D01*
X138060895Y-93467595D01*
X138060895Y-93467597D01*
X138151757Y-93686959D01*
X138151759Y-93686962D01*
X138275820Y-93889410D01*
X138275821Y-93889413D01*
X138275824Y-93889416D01*
X138430031Y-94069969D01*
X138569797Y-94189340D01*
X138610586Y-94224178D01*
X138610588Y-94224178D01*
X138684477Y-94269458D01*
X138813037Y-94348240D01*
X138813040Y-94348242D01*
X139032403Y-94439104D01*
X139032404Y-94439104D01*
X139032406Y-94439105D01*
X139263289Y-94494535D01*
X139500000Y-94513165D01*
X139736711Y-94494535D01*
X139967594Y-94439105D01*
X139967596Y-94439104D01*
X139967597Y-94439104D01*
X140186959Y-94348242D01*
X140186960Y-94348241D01*
X140186963Y-94348240D01*
X140389416Y-94224176D01*
X140569969Y-94069969D01*
X140724176Y-93889416D01*
X140848240Y-93686963D01*
X140935302Y-93476777D01*
X140939104Y-93467597D01*
X140939104Y-93467596D01*
X140939105Y-93467594D01*
X140994535Y-93236711D01*
X141013165Y-93000000D01*
X144486835Y-93000000D01*
X144505465Y-93236714D01*
X144560895Y-93467595D01*
X144560895Y-93467597D01*
X144651757Y-93686959D01*
X144651759Y-93686962D01*
X144775820Y-93889410D01*
X144775821Y-93889413D01*
X144775824Y-93889416D01*
X144930031Y-94069969D01*
X145069797Y-94189340D01*
X145110586Y-94224178D01*
X145110588Y-94224178D01*
X145184477Y-94269458D01*
X145313037Y-94348240D01*
X145313040Y-94348242D01*
X145532403Y-94439104D01*
X145532404Y-94439104D01*
X145532406Y-94439105D01*
X145763289Y-94494535D01*
X146000000Y-94513165D01*
X146236711Y-94494535D01*
X146467594Y-94439105D01*
X146467596Y-94439104D01*
X146467597Y-94439104D01*
X146686959Y-94348242D01*
X146686960Y-94348241D01*
X146686963Y-94348240D01*
X146889416Y-94224176D01*
X147069969Y-94069969D01*
X147224176Y-93889416D01*
X147348240Y-93686963D01*
X147435302Y-93476777D01*
X147439104Y-93467597D01*
X147439104Y-93467596D01*
X147439105Y-93467594D01*
X147494535Y-93236711D01*
X147508836Y-93054998D01*
X153266807Y-93054998D01*
X153266807Y-93055001D01*
X153285541Y-93269136D01*
X153285542Y-93269144D01*
X153341176Y-93476772D01*
X153341177Y-93476774D01*
X153341178Y-93476777D01*
X153432024Y-93671597D01*
X153432026Y-93671601D01*
X153555319Y-93847682D01*
X153707317Y-93999680D01*
X153883398Y-94122973D01*
X153883400Y-94122974D01*
X153883403Y-94122976D01*
X154078223Y-94213822D01*
X154285858Y-94269458D01*
X154438816Y-94282840D01*
X154499998Y-94288193D01*
X154500000Y-94288193D01*
X154500002Y-94288193D01*
X154553535Y-94283509D01*
X154714142Y-94269458D01*
X154921777Y-94213822D01*
X155116597Y-94122976D01*
X155292681Y-93999681D01*
X155444681Y-93847681D01*
X155567976Y-93671597D01*
X155658822Y-93476777D01*
X155714458Y-93269142D01*
X155733193Y-93055000D01*
X155714458Y-92840858D01*
X155658822Y-92633223D01*
X155567976Y-92438404D01*
X155444681Y-92262319D01*
X155444679Y-92262316D01*
X155292682Y-92110319D01*
X155116601Y-91987026D01*
X155116597Y-91987024D01*
X155116595Y-91987023D01*
X154921777Y-91896178D01*
X154921774Y-91896177D01*
X154921772Y-91896176D01*
X154714144Y-91840542D01*
X154714136Y-91840541D01*
X154500002Y-91821807D01*
X154499998Y-91821807D01*
X154285863Y-91840541D01*
X154285855Y-91840542D01*
X154078227Y-91896176D01*
X154078221Y-91896179D01*
X153883405Y-91987023D01*
X153883403Y-91987024D01*
X153707316Y-92110320D01*
X153555320Y-92262316D01*
X153432024Y-92438403D01*
X153432023Y-92438405D01*
X153341179Y-92633221D01*
X153341176Y-92633227D01*
X153285542Y-92840855D01*
X153285541Y-92840863D01*
X153266807Y-93054998D01*
X147508836Y-93054998D01*
X147513165Y-93000000D01*
X147494535Y-92763289D01*
X147439105Y-92532406D01*
X147439104Y-92532403D01*
X147439104Y-92532402D01*
X147348242Y-92313040D01*
X147348240Y-92313037D01*
X147224179Y-92110589D01*
X147224178Y-92110586D01*
X147118647Y-91987026D01*
X147069969Y-91930031D01*
X146943255Y-91821807D01*
X146889413Y-91775821D01*
X146889410Y-91775820D01*
X146686962Y-91651759D01*
X146686959Y-91651757D01*
X146467596Y-91560895D01*
X146236714Y-91505465D01*
X146000000Y-91486835D01*
X145763285Y-91505465D01*
X145532404Y-91560895D01*
X145532402Y-91560895D01*
X145313040Y-91651757D01*
X145313037Y-91651759D01*
X145110589Y-91775820D01*
X145110586Y-91775821D01*
X144930031Y-91930031D01*
X144775821Y-92110586D01*
X144775820Y-92110589D01*
X144651759Y-92313037D01*
X144651757Y-92313040D01*
X144560895Y-92532402D01*
X144560895Y-92532404D01*
X144505465Y-92763285D01*
X144486835Y-93000000D01*
X141013165Y-93000000D01*
X140994535Y-92763289D01*
X140939105Y-92532406D01*
X140939104Y-92532403D01*
X140939104Y-92532402D01*
X140848242Y-92313040D01*
X140848240Y-92313037D01*
X140724179Y-92110589D01*
X140724178Y-92110586D01*
X140618647Y-91987026D01*
X140569969Y-91930031D01*
X140443255Y-91821807D01*
X140389413Y-91775821D01*
X140389410Y-91775820D01*
X140186962Y-91651759D01*
X140186959Y-91651757D01*
X139967596Y-91560895D01*
X139736714Y-91505465D01*
X139500000Y-91486835D01*
X139263285Y-91505465D01*
X139032404Y-91560895D01*
X139032402Y-91560895D01*
X138813040Y-91651757D01*
X138813037Y-91651759D01*
X138610589Y-91775820D01*
X138610586Y-91775821D01*
X138430031Y-91930031D01*
X138275821Y-92110586D01*
X138275820Y-92110589D01*
X138151759Y-92313037D01*
X138151757Y-92313040D01*
X138060895Y-92532402D01*
X138060895Y-92532404D01*
X138005465Y-92763285D01*
X137986835Y-93000000D01*
X100075500Y-93000000D01*
X100075500Y-89999994D01*
X106016844Y-89999994D01*
X106016844Y-90000005D01*
X106035434Y-90224359D01*
X106035436Y-90224371D01*
X106090703Y-90442614D01*
X106181140Y-90648792D01*
X106304276Y-90837265D01*
X106304284Y-90837276D01*
X106424513Y-90967877D01*
X106456760Y-91002906D01*
X106634424Y-91141189D01*
X106634425Y-91141189D01*
X106634427Y-91141191D01*
X106756378Y-91207187D01*
X106832426Y-91248342D01*
X107045365Y-91321444D01*
X107267431Y-91358500D01*
X107492569Y-91358500D01*
X107714635Y-91321444D01*
X107927574Y-91248342D01*
X108125576Y-91141189D01*
X108303240Y-91002906D01*
X108455722Y-90837268D01*
X108546193Y-90698790D01*
X108599338Y-90653437D01*
X108668569Y-90644013D01*
X108731905Y-90673515D01*
X108753804Y-90698787D01*
X108844278Y-90837268D01*
X108844283Y-90837273D01*
X108844284Y-90837276D01*
X108964513Y-90967877D01*
X108996760Y-91002906D01*
X109174424Y-91141189D01*
X109174425Y-91141189D01*
X109174427Y-91141191D01*
X109296378Y-91207187D01*
X109372426Y-91248342D01*
X109585365Y-91321444D01*
X109807431Y-91358500D01*
X110032569Y-91358500D01*
X110254635Y-91321444D01*
X110467574Y-91248342D01*
X110665576Y-91141189D01*
X110843240Y-91002906D01*
X110995722Y-90837268D01*
X111086193Y-90698790D01*
X111139338Y-90653437D01*
X111208569Y-90644013D01*
X111271905Y-90673515D01*
X111293804Y-90698787D01*
X111384278Y-90837268D01*
X111384283Y-90837273D01*
X111384284Y-90837276D01*
X111504513Y-90967877D01*
X111536760Y-91002906D01*
X111714424Y-91141189D01*
X111714425Y-91141189D01*
X111714427Y-91141191D01*
X111836378Y-91207187D01*
X111912426Y-91248342D01*
X112125365Y-91321444D01*
X112347431Y-91358500D01*
X112572569Y-91358500D01*
X112794635Y-91321444D01*
X113007574Y-91248342D01*
X113205576Y-91141189D01*
X113383240Y-91002906D01*
X113452908Y-90927226D01*
X113512793Y-90891237D01*
X113582631Y-90893337D01*
X113640247Y-90932860D01*
X113660318Y-90967877D01*
X113706645Y-91092086D01*
X113706649Y-91092093D01*
X113792809Y-91207187D01*
X113792812Y-91207190D01*
X113907906Y-91293350D01*
X113907913Y-91293354D01*
X114042620Y-91343596D01*
X114042627Y-91343598D01*
X114102155Y-91349999D01*
X114102172Y-91350000D01*
X114750000Y-91350000D01*
X114750000Y-90433012D01*
X114807007Y-90465925D01*
X114934174Y-90500000D01*
X115065826Y-90500000D01*
X115192993Y-90465925D01*
X115250000Y-90433012D01*
X115250000Y-91350000D01*
X115897828Y-91350000D01*
X115897844Y-91349999D01*
X115957372Y-91343598D01*
X115957379Y-91343596D01*
X116092086Y-91293354D01*
X116092093Y-91293350D01*
X116207187Y-91207190D01*
X116207190Y-91207187D01*
X116293350Y-91092093D01*
X116293354Y-91092086D01*
X116343596Y-90957379D01*
X116343598Y-90957372D01*
X116349999Y-90897844D01*
X116350000Y-90897827D01*
X116350000Y-90514998D01*
X150726807Y-90514998D01*
X150726807Y-90515001D01*
X150745541Y-90729136D01*
X150745542Y-90729144D01*
X150801176Y-90936772D01*
X150801177Y-90936774D01*
X150801178Y-90936777D01*
X150832015Y-91002907D01*
X150892024Y-91131597D01*
X150892026Y-91131601D01*
X151015319Y-91307682D01*
X151167317Y-91459680D01*
X151343398Y-91582973D01*
X151343400Y-91582974D01*
X151343403Y-91582976D01*
X151538223Y-91673822D01*
X151745858Y-91729458D01*
X151898816Y-91742840D01*
X151959998Y-91748193D01*
X151960000Y-91748193D01*
X151960002Y-91748193D01*
X152013535Y-91743509D01*
X152174142Y-91729458D01*
X152381777Y-91673822D01*
X152576597Y-91582976D01*
X152752681Y-91459681D01*
X152904681Y-91307681D01*
X153027976Y-91131597D01*
X153118822Y-90936777D01*
X153174458Y-90729142D01*
X153193193Y-90515000D01*
X153193193Y-90514997D01*
X155815340Y-90514997D01*
X155815340Y-90515002D01*
X155833944Y-90727654D01*
X155833945Y-90727662D01*
X155889194Y-90933853D01*
X155889197Y-90933859D01*
X155979413Y-91127329D01*
X156018415Y-91183030D01*
X156640000Y-90561445D01*
X156640000Y-90567661D01*
X156667259Y-90669394D01*
X156719920Y-90760606D01*
X156794394Y-90835080D01*
X156885606Y-90887741D01*
X156987339Y-90915000D01*
X156993554Y-90915000D01*
X156371968Y-91536584D01*
X156427663Y-91575582D01*
X156427669Y-91575586D01*
X156621140Y-91665802D01*
X156621146Y-91665805D01*
X156827337Y-91721054D01*
X156827345Y-91721055D01*
X157039998Y-91739660D01*
X157040002Y-91739660D01*
X157252654Y-91721055D01*
X157252662Y-91721054D01*
X157458853Y-91665805D01*
X157458864Y-91665801D01*
X157652325Y-91575589D01*
X157708030Y-91536583D01*
X157086447Y-90915000D01*
X157092661Y-90915000D01*
X157194394Y-90887741D01*
X157285606Y-90835080D01*
X157360080Y-90760606D01*
X157412741Y-90669394D01*
X157440000Y-90567661D01*
X157440000Y-90561446D01*
X158061583Y-91183029D01*
X158100589Y-91127325D01*
X158190801Y-90933864D01*
X158190805Y-90933853D01*
X158246054Y-90727662D01*
X158246055Y-90727654D01*
X158264660Y-90515002D01*
X158264660Y-90514997D01*
X158246055Y-90302345D01*
X158246054Y-90302337D01*
X158190805Y-90096146D01*
X158190802Y-90096140D01*
X158100586Y-89902669D01*
X158100582Y-89902663D01*
X158061584Y-89846968D01*
X157440000Y-90468552D01*
X157440000Y-90462339D01*
X157412741Y-90360606D01*
X157360080Y-90269394D01*
X157285606Y-90194920D01*
X157194394Y-90142259D01*
X157092661Y-90115000D01*
X157086447Y-90115000D01*
X157708030Y-89493415D01*
X157652329Y-89454413D01*
X157458859Y-89364197D01*
X157458853Y-89364194D01*
X157252662Y-89308945D01*
X157252654Y-89308944D01*
X157040002Y-89290340D01*
X157039998Y-89290340D01*
X156827345Y-89308944D01*
X156827337Y-89308945D01*
X156621146Y-89364194D01*
X156621140Y-89364197D01*
X156427671Y-89454412D01*
X156427669Y-89454413D01*
X156371969Y-89493415D01*
X156371968Y-89493415D01*
X156993554Y-90115000D01*
X156987339Y-90115000D01*
X156885606Y-90142259D01*
X156794394Y-90194920D01*
X156719920Y-90269394D01*
X156667259Y-90360606D01*
X156640000Y-90462339D01*
X156640000Y-90468553D01*
X156018415Y-89846968D01*
X156018415Y-89846969D01*
X155979413Y-89902669D01*
X155979412Y-89902671D01*
X155889197Y-90096140D01*
X155889194Y-90096146D01*
X155833945Y-90302337D01*
X155833944Y-90302345D01*
X155815340Y-90514997D01*
X153193193Y-90514997D01*
X153188899Y-90465925D01*
X153174458Y-90300863D01*
X153174458Y-90300858D01*
X153118822Y-90093223D01*
X153027976Y-89898404D01*
X152904681Y-89722319D01*
X152904679Y-89722316D01*
X152752682Y-89570319D01*
X152576601Y-89447026D01*
X152576597Y-89447024D01*
X152576595Y-89447023D01*
X152381777Y-89356178D01*
X152381774Y-89356177D01*
X152381772Y-89356176D01*
X152174144Y-89300542D01*
X152174136Y-89300541D01*
X151960002Y-89281807D01*
X151959998Y-89281807D01*
X151745863Y-89300541D01*
X151745855Y-89300542D01*
X151538227Y-89356176D01*
X151538221Y-89356179D01*
X151343405Y-89447023D01*
X151343403Y-89447024D01*
X151167316Y-89570320D01*
X151015320Y-89722316D01*
X150892024Y-89898403D01*
X150892023Y-89898405D01*
X150801179Y-90093221D01*
X150801176Y-90093227D01*
X150745542Y-90300855D01*
X150745541Y-90300863D01*
X150726807Y-90514998D01*
X116350000Y-90514998D01*
X116350000Y-90250000D01*
X115433012Y-90250000D01*
X115465925Y-90192993D01*
X115500000Y-90065826D01*
X115500000Y-89934174D01*
X115465925Y-89807007D01*
X115433012Y-89750000D01*
X116350000Y-89750000D01*
X116350000Y-89102172D01*
X116349999Y-89102155D01*
X116343598Y-89042627D01*
X116343596Y-89042620D01*
X116293354Y-88907913D01*
X116293350Y-88907906D01*
X116207190Y-88792812D01*
X116207187Y-88792809D01*
X116092093Y-88706649D01*
X116092086Y-88706645D01*
X115957379Y-88656403D01*
X115957372Y-88656401D01*
X115897844Y-88650000D01*
X115250000Y-88650000D01*
X115250000Y-89566988D01*
X115192993Y-89534075D01*
X115065826Y-89500000D01*
X114934174Y-89500000D01*
X114807007Y-89534075D01*
X114750000Y-89566988D01*
X114750000Y-88650000D01*
X114102155Y-88650000D01*
X114042627Y-88656401D01*
X114042620Y-88656403D01*
X113907913Y-88706645D01*
X113907906Y-88706649D01*
X113792812Y-88792809D01*
X113792809Y-88792812D01*
X113706649Y-88907906D01*
X113706646Y-88907911D01*
X113660318Y-89032123D01*
X113618446Y-89088056D01*
X113552982Y-89112473D01*
X113484709Y-89097621D01*
X113452910Y-89072775D01*
X113383240Y-88997094D01*
X113205576Y-88858811D01*
X113205575Y-88858810D01*
X113205572Y-88858808D01*
X113007580Y-88751661D01*
X113007577Y-88751659D01*
X113007574Y-88751658D01*
X113007571Y-88751657D01*
X113007569Y-88751656D01*
X112794637Y-88678556D01*
X112572569Y-88641500D01*
X112347431Y-88641500D01*
X112125362Y-88678556D01*
X111912430Y-88751656D01*
X111912419Y-88751661D01*
X111714427Y-88858808D01*
X111714422Y-88858812D01*
X111536761Y-88997092D01*
X111536756Y-88997097D01*
X111384284Y-89162723D01*
X111384276Y-89162734D01*
X111293808Y-89301206D01*
X111240662Y-89346562D01*
X111171431Y-89355986D01*
X111108095Y-89326484D01*
X111086192Y-89301206D01*
X110995723Y-89162734D01*
X110995715Y-89162723D01*
X110843243Y-88997097D01*
X110843238Y-88997092D01*
X110665577Y-88858812D01*
X110665572Y-88858808D01*
X110467580Y-88751661D01*
X110467577Y-88751659D01*
X110467574Y-88751658D01*
X110467571Y-88751657D01*
X110467569Y-88751656D01*
X110254637Y-88678556D01*
X110032569Y-88641500D01*
X109807431Y-88641500D01*
X109585362Y-88678556D01*
X109372430Y-88751656D01*
X109372419Y-88751661D01*
X109174427Y-88858808D01*
X109174422Y-88858812D01*
X108996761Y-88997092D01*
X108996756Y-88997097D01*
X108844284Y-89162723D01*
X108844276Y-89162734D01*
X108753808Y-89301206D01*
X108700662Y-89346562D01*
X108631431Y-89355986D01*
X108568095Y-89326484D01*
X108546192Y-89301206D01*
X108455723Y-89162734D01*
X108455715Y-89162723D01*
X108303243Y-88997097D01*
X108303238Y-88997092D01*
X108125577Y-88858812D01*
X108125572Y-88858808D01*
X107927580Y-88751661D01*
X107927577Y-88751659D01*
X107927574Y-88751658D01*
X107927571Y-88751657D01*
X107927569Y-88751656D01*
X107714637Y-88678556D01*
X107492569Y-88641500D01*
X107267431Y-88641500D01*
X107045362Y-88678556D01*
X106832430Y-88751656D01*
X106832419Y-88751661D01*
X106634427Y-88858808D01*
X106634422Y-88858812D01*
X106456761Y-88997092D01*
X106456756Y-88997097D01*
X106304284Y-89162723D01*
X106304276Y-89162734D01*
X106181140Y-89351207D01*
X106090703Y-89557385D01*
X106035436Y-89775628D01*
X106035434Y-89775640D01*
X106016844Y-89999994D01*
X100075500Y-89999994D01*
X100075500Y-88249999D01*
X124641127Y-88249999D01*
X124641128Y-88250000D01*
X125604314Y-88250000D01*
X125599920Y-88254394D01*
X125547259Y-88345606D01*
X125520000Y-88447339D01*
X125520000Y-88552661D01*
X125547259Y-88654394D01*
X125599920Y-88745606D01*
X125604314Y-88750000D01*
X124641128Y-88750000D01*
X124693730Y-88946317D01*
X124693734Y-88946326D01*
X124789865Y-89152482D01*
X124920342Y-89338820D01*
X125081179Y-89499657D01*
X125267517Y-89630134D01*
X125473673Y-89726265D01*
X125473682Y-89726269D01*
X125669999Y-89778872D01*
X125670000Y-89778871D01*
X125670000Y-88815686D01*
X125674394Y-88820080D01*
X125765606Y-88872741D01*
X125867339Y-88900000D01*
X125972661Y-88900000D01*
X126074394Y-88872741D01*
X126165606Y-88820080D01*
X126170000Y-88815686D01*
X126170000Y-89778872D01*
X126366317Y-89726269D01*
X126366326Y-89726265D01*
X126572482Y-89630134D01*
X126758820Y-89499657D01*
X126919657Y-89338820D01*
X127050134Y-89152482D01*
X127146265Y-88946326D01*
X127146269Y-88946317D01*
X127198872Y-88750000D01*
X126235686Y-88750000D01*
X126240080Y-88745606D01*
X126292741Y-88654394D01*
X126320000Y-88552661D01*
X126320000Y-88499998D01*
X134766502Y-88499998D01*
X134766502Y-88500001D01*
X134786456Y-88728081D01*
X134786457Y-88728089D01*
X134845714Y-88949238D01*
X134845718Y-88949249D01*
X134917027Y-89102172D01*
X134942477Y-89156749D01*
X135073802Y-89344300D01*
X135235700Y-89506198D01*
X135423251Y-89637523D01*
X135542208Y-89692993D01*
X135630750Y-89734281D01*
X135630752Y-89734281D01*
X135630757Y-89734284D01*
X135851913Y-89793543D01*
X136014832Y-89807796D01*
X136079998Y-89813498D01*
X136080000Y-89813498D01*
X136080002Y-89813498D01*
X136137021Y-89808509D01*
X136308087Y-89793543D01*
X136529243Y-89734284D01*
X136736749Y-89637523D01*
X136924300Y-89506198D01*
X137086198Y-89344300D01*
X137217523Y-89156749D01*
X137314284Y-88949243D01*
X137373543Y-88728087D01*
X137393498Y-88500000D01*
X137986835Y-88500000D01*
X138005465Y-88736714D01*
X138060895Y-88967595D01*
X138060895Y-88967597D01*
X138151757Y-89186959D01*
X138151759Y-89186962D01*
X138275820Y-89389410D01*
X138275821Y-89389413D01*
X138275824Y-89389416D01*
X138430031Y-89569969D01*
X138509128Y-89637524D01*
X138610586Y-89724178D01*
X138610588Y-89724178D01*
X138627074Y-89734281D01*
X138813037Y-89848240D01*
X138813040Y-89848242D01*
X139032403Y-89939104D01*
X139032404Y-89939104D01*
X139032406Y-89939105D01*
X139263289Y-89994535D01*
X139500000Y-90013165D01*
X139736711Y-89994535D01*
X139967594Y-89939105D01*
X139967596Y-89939104D01*
X139967597Y-89939104D01*
X140186959Y-89848242D01*
X140186960Y-89848241D01*
X140186963Y-89848240D01*
X140389416Y-89724176D01*
X140569969Y-89569969D01*
X140724176Y-89389416D01*
X140848240Y-89186963D01*
X140858281Y-89162723D01*
X140939104Y-88967597D01*
X140939104Y-88967596D01*
X140939105Y-88967594D01*
X140994535Y-88736711D01*
X141013165Y-88500000D01*
X144486835Y-88500000D01*
X144505465Y-88736714D01*
X144560895Y-88967595D01*
X144560895Y-88967597D01*
X144651757Y-89186959D01*
X144651759Y-89186962D01*
X144775820Y-89389410D01*
X144775821Y-89389413D01*
X144775824Y-89389416D01*
X144930031Y-89569969D01*
X145009128Y-89637524D01*
X145110586Y-89724178D01*
X145110588Y-89724178D01*
X145127074Y-89734281D01*
X145313037Y-89848240D01*
X145313040Y-89848242D01*
X145532403Y-89939104D01*
X145532404Y-89939104D01*
X145532406Y-89939105D01*
X145763289Y-89994535D01*
X146000000Y-90013165D01*
X146236711Y-89994535D01*
X146467594Y-89939105D01*
X146467596Y-89939104D01*
X146467597Y-89939104D01*
X146686959Y-89848242D01*
X146686960Y-89848241D01*
X146686963Y-89848240D01*
X146889416Y-89724176D01*
X147069969Y-89569969D01*
X147224176Y-89389416D01*
X147348240Y-89186963D01*
X147358281Y-89162723D01*
X147439104Y-88967597D01*
X147439104Y-88967596D01*
X147439105Y-88967594D01*
X147494535Y-88736711D01*
X147513165Y-88500000D01*
X147494535Y-88263289D01*
X147439105Y-88032406D01*
X147439104Y-88032403D01*
X147439104Y-88032402D01*
X147348242Y-87813040D01*
X147348240Y-87813037D01*
X147224179Y-87610589D01*
X147224178Y-87610586D01*
X147124438Y-87493806D01*
X147069969Y-87430031D01*
X146950596Y-87328076D01*
X146889413Y-87275821D01*
X146889410Y-87275820D01*
X146686962Y-87151759D01*
X146686959Y-87151757D01*
X146467596Y-87060895D01*
X146236714Y-87005465D01*
X146000000Y-86986835D01*
X145763285Y-87005465D01*
X145532404Y-87060895D01*
X145532402Y-87060895D01*
X145313040Y-87151757D01*
X145313037Y-87151759D01*
X145110589Y-87275820D01*
X145110586Y-87275821D01*
X144930031Y-87430031D01*
X144775821Y-87610586D01*
X144775820Y-87610589D01*
X144651759Y-87813037D01*
X144651757Y-87813040D01*
X144560895Y-88032402D01*
X144560895Y-88032404D01*
X144505465Y-88263285D01*
X144486835Y-88500000D01*
X141013165Y-88500000D01*
X140994535Y-88263289D01*
X140939105Y-88032406D01*
X140939104Y-88032403D01*
X140939104Y-88032402D01*
X140848242Y-87813040D01*
X140848240Y-87813037D01*
X140724179Y-87610589D01*
X140724178Y-87610586D01*
X140624438Y-87493806D01*
X140569969Y-87430031D01*
X140450596Y-87328076D01*
X140389413Y-87275821D01*
X140389410Y-87275820D01*
X140186962Y-87151759D01*
X140186959Y-87151757D01*
X139967596Y-87060895D01*
X139736714Y-87005465D01*
X139500000Y-86986835D01*
X139263285Y-87005465D01*
X139032404Y-87060895D01*
X139032402Y-87060895D01*
X138813040Y-87151757D01*
X138813037Y-87151759D01*
X138610589Y-87275820D01*
X138610586Y-87275821D01*
X138430031Y-87430031D01*
X138275821Y-87610586D01*
X138275820Y-87610589D01*
X138151759Y-87813037D01*
X138151757Y-87813040D01*
X138060895Y-88032402D01*
X138060895Y-88032404D01*
X138005465Y-88263285D01*
X137986835Y-88500000D01*
X137393498Y-88500000D01*
X137373543Y-88271913D01*
X137314284Y-88050757D01*
X137217523Y-87843251D01*
X137086198Y-87655700D01*
X136924300Y-87493802D01*
X136736749Y-87362477D01*
X136736745Y-87362475D01*
X136529249Y-87265718D01*
X136529238Y-87265714D01*
X136308089Y-87206457D01*
X136308081Y-87206456D01*
X136080002Y-87186502D01*
X136079998Y-87186502D01*
X135851918Y-87206456D01*
X135851910Y-87206457D01*
X135630761Y-87265714D01*
X135630750Y-87265718D01*
X135423254Y-87362475D01*
X135423252Y-87362476D01*
X135423251Y-87362477D01*
X135235700Y-87493802D01*
X135235698Y-87493803D01*
X135235695Y-87493806D01*
X135073806Y-87655695D01*
X134942476Y-87843252D01*
X134942475Y-87843254D01*
X134845718Y-88050750D01*
X134845714Y-88050761D01*
X134786457Y-88271910D01*
X134786456Y-88271918D01*
X134766502Y-88499998D01*
X126320000Y-88499998D01*
X126320000Y-88447339D01*
X126292741Y-88345606D01*
X126240080Y-88254394D01*
X126235686Y-88250000D01*
X127198872Y-88250000D01*
X127198872Y-88249999D01*
X127146269Y-88053682D01*
X127146265Y-88053673D01*
X127050134Y-87847517D01*
X126919657Y-87661179D01*
X126758820Y-87500342D01*
X126572482Y-87369865D01*
X126366328Y-87273734D01*
X126170000Y-87221127D01*
X126170000Y-88184314D01*
X126165606Y-88179920D01*
X126074394Y-88127259D01*
X125972661Y-88100000D01*
X125867339Y-88100000D01*
X125765606Y-88127259D01*
X125674394Y-88179920D01*
X125670000Y-88184314D01*
X125670000Y-87221127D01*
X125473671Y-87273734D01*
X125267517Y-87369865D01*
X125081179Y-87500342D01*
X124920342Y-87661179D01*
X124789865Y-87847517D01*
X124693734Y-88053673D01*
X124693730Y-88053682D01*
X124641127Y-88249999D01*
X100075500Y-88249999D01*
X100075500Y-82999998D01*
X148606502Y-82999998D01*
X148606502Y-83000001D01*
X148626456Y-83228081D01*
X148626457Y-83228089D01*
X148685714Y-83449238D01*
X148685718Y-83449249D01*
X148780487Y-83652482D01*
X148782477Y-83656749D01*
X148913802Y-83844300D01*
X149075700Y-84006198D01*
X149263251Y-84137523D01*
X149388091Y-84195736D01*
X149470750Y-84234281D01*
X149470752Y-84234281D01*
X149470757Y-84234284D01*
X149691913Y-84293543D01*
X149854832Y-84307796D01*
X149919998Y-84313498D01*
X149920000Y-84313498D01*
X149920002Y-84313498D01*
X149977021Y-84308509D01*
X150148087Y-84293543D01*
X150369243Y-84234284D01*
X150576749Y-84137523D01*
X150764300Y-84006198D01*
X150926198Y-83844300D01*
X151057523Y-83656749D01*
X151154284Y-83449243D01*
X151213543Y-83228087D01*
X151233498Y-83000000D01*
X151213543Y-82771913D01*
X151207671Y-82749999D01*
X158801127Y-82749999D01*
X158801128Y-82750000D01*
X159764314Y-82750000D01*
X159759920Y-82754394D01*
X159707259Y-82845606D01*
X159680000Y-82947339D01*
X159680000Y-83052661D01*
X159707259Y-83154394D01*
X159759920Y-83245606D01*
X159764314Y-83250000D01*
X158801128Y-83250000D01*
X158853730Y-83446317D01*
X158853734Y-83446326D01*
X158949865Y-83652482D01*
X159080342Y-83838820D01*
X159241179Y-83999657D01*
X159427517Y-84130134D01*
X159633673Y-84226265D01*
X159633682Y-84226269D01*
X159829999Y-84278872D01*
X159830000Y-84278871D01*
X159830000Y-83315686D01*
X159834394Y-83320080D01*
X159925606Y-83372741D01*
X160027339Y-83400000D01*
X160132661Y-83400000D01*
X160234394Y-83372741D01*
X160325606Y-83320080D01*
X160330000Y-83315686D01*
X160330000Y-84278872D01*
X160526317Y-84226269D01*
X160526326Y-84226265D01*
X160732482Y-84130134D01*
X160918820Y-83999657D01*
X161079657Y-83838820D01*
X161210134Y-83652482D01*
X161306265Y-83446326D01*
X161306269Y-83446317D01*
X161358872Y-83250000D01*
X160395686Y-83250000D01*
X160400080Y-83245606D01*
X160452741Y-83154394D01*
X160480000Y-83052661D01*
X160480000Y-82947339D01*
X160452741Y-82845606D01*
X160400080Y-82754394D01*
X160395686Y-82750000D01*
X161358872Y-82750000D01*
X161358872Y-82749999D01*
X161306269Y-82553682D01*
X161306265Y-82553673D01*
X161210134Y-82347517D01*
X161079657Y-82161179D01*
X160918820Y-82000342D01*
X160732482Y-81869865D01*
X160526328Y-81773734D01*
X160330000Y-81721127D01*
X160330000Y-82684314D01*
X160325606Y-82679920D01*
X160234394Y-82627259D01*
X160132661Y-82600000D01*
X160027339Y-82600000D01*
X159925606Y-82627259D01*
X159834394Y-82679920D01*
X159830000Y-82684314D01*
X159830000Y-81721127D01*
X159633671Y-81773734D01*
X159427517Y-81869865D01*
X159241179Y-82000342D01*
X159080342Y-82161179D01*
X158949865Y-82347517D01*
X158853734Y-82553673D01*
X158853730Y-82553682D01*
X158801127Y-82749999D01*
X151207671Y-82749999D01*
X151154284Y-82550757D01*
X151057523Y-82343251D01*
X150926198Y-82155700D01*
X150764300Y-81993802D01*
X150576749Y-81862477D01*
X150576745Y-81862475D01*
X150369249Y-81765718D01*
X150369238Y-81765714D01*
X150148089Y-81706457D01*
X150148081Y-81706456D01*
X149920002Y-81686502D01*
X149919998Y-81686502D01*
X149691918Y-81706456D01*
X149691910Y-81706457D01*
X149470761Y-81765714D01*
X149470750Y-81765718D01*
X149263254Y-81862475D01*
X149263252Y-81862476D01*
X149263251Y-81862477D01*
X149075700Y-81993802D01*
X149075698Y-81993803D01*
X149075695Y-81993806D01*
X148913806Y-82155695D01*
X148782476Y-82343252D01*
X148782475Y-82343254D01*
X148685718Y-82550750D01*
X148685714Y-82550761D01*
X148626457Y-82771910D01*
X148626456Y-82771918D01*
X148606502Y-82999998D01*
X100075500Y-82999998D01*
X100075500Y-80250000D01*
X134736835Y-80250000D01*
X134755465Y-80486714D01*
X134810895Y-80717595D01*
X134810895Y-80717597D01*
X134901757Y-80936959D01*
X134901759Y-80936962D01*
X135025820Y-81139410D01*
X135025821Y-81139413D01*
X135025824Y-81139416D01*
X135180031Y-81319969D01*
X135319797Y-81439340D01*
X135360586Y-81474178D01*
X135360589Y-81474179D01*
X135563037Y-81598240D01*
X135563040Y-81598242D01*
X135782403Y-81689104D01*
X135782404Y-81689104D01*
X135782406Y-81689105D01*
X136013289Y-81744535D01*
X136250000Y-81763165D01*
X136486711Y-81744535D01*
X136717594Y-81689105D01*
X136717596Y-81689104D01*
X136717597Y-81689104D01*
X136936959Y-81598242D01*
X136936960Y-81598241D01*
X136936963Y-81598240D01*
X137139416Y-81474176D01*
X137319969Y-81319969D01*
X137474176Y-81139416D01*
X137598240Y-80936963D01*
X137689105Y-80717594D01*
X137744535Y-80486711D01*
X137763165Y-80250000D01*
X141236835Y-80250000D01*
X141255465Y-80486714D01*
X141310895Y-80717595D01*
X141310895Y-80717597D01*
X141401757Y-80936959D01*
X141401759Y-80936962D01*
X141525820Y-81139410D01*
X141525821Y-81139413D01*
X141525824Y-81139416D01*
X141680031Y-81319969D01*
X141819797Y-81439340D01*
X141860586Y-81474178D01*
X141860589Y-81474179D01*
X142063037Y-81598240D01*
X142063040Y-81598242D01*
X142282403Y-81689104D01*
X142282404Y-81689104D01*
X142282406Y-81689105D01*
X142513289Y-81744535D01*
X142750000Y-81763165D01*
X142986711Y-81744535D01*
X143217594Y-81689105D01*
X143217596Y-81689104D01*
X143217597Y-81689104D01*
X143436959Y-81598242D01*
X143436960Y-81598241D01*
X143436963Y-81598240D01*
X143639416Y-81474176D01*
X143819969Y-81319969D01*
X143974176Y-81139416D01*
X144098240Y-80936963D01*
X144189105Y-80717594D01*
X144244535Y-80486711D01*
X144263165Y-80250000D01*
X144244535Y-80013289D01*
X144189105Y-79782406D01*
X144189104Y-79782403D01*
X144189104Y-79782402D01*
X144098242Y-79563040D01*
X144098240Y-79563037D01*
X143974179Y-79360589D01*
X143974178Y-79360586D01*
X143852053Y-79217597D01*
X143819969Y-79180031D01*
X143700596Y-79078076D01*
X143639413Y-79025821D01*
X143639410Y-79025820D01*
X143436962Y-78901759D01*
X143436959Y-78901757D01*
X143217596Y-78810895D01*
X142986714Y-78755465D01*
X142917275Y-78750000D01*
X150736835Y-78750000D01*
X150755465Y-78986714D01*
X150810895Y-79217595D01*
X150810895Y-79217597D01*
X150901757Y-79436959D01*
X150901759Y-79436962D01*
X151025820Y-79639410D01*
X151025821Y-79639413D01*
X151025824Y-79639416D01*
X151180031Y-79819969D01*
X151319797Y-79939340D01*
X151360586Y-79974178D01*
X151360589Y-79974179D01*
X151563037Y-80098240D01*
X151563040Y-80098242D01*
X151782403Y-80189104D01*
X151782404Y-80189104D01*
X151782406Y-80189105D01*
X152013289Y-80244535D01*
X152250000Y-80263165D01*
X152486711Y-80244535D01*
X152717594Y-80189105D01*
X152717596Y-80189104D01*
X152717597Y-80189104D01*
X152936959Y-80098242D01*
X152936960Y-80098241D01*
X152936963Y-80098240D01*
X153139416Y-79974176D01*
X153319969Y-79819969D01*
X153474176Y-79639416D01*
X153598240Y-79436963D01*
X153689105Y-79217594D01*
X153744535Y-78986711D01*
X153763165Y-78750000D01*
X157236835Y-78750000D01*
X157255465Y-78986714D01*
X157310895Y-79217595D01*
X157310895Y-79217597D01*
X157401757Y-79436959D01*
X157401759Y-79436962D01*
X157525820Y-79639410D01*
X157525821Y-79639413D01*
X157525824Y-79639416D01*
X157680031Y-79819969D01*
X157819797Y-79939340D01*
X157860586Y-79974178D01*
X157860589Y-79974179D01*
X158063037Y-80098240D01*
X158063040Y-80098242D01*
X158282403Y-80189104D01*
X158282404Y-80189104D01*
X158282406Y-80189105D01*
X158513289Y-80244535D01*
X158750000Y-80263165D01*
X158986711Y-80244535D01*
X159217594Y-80189105D01*
X159217596Y-80189104D01*
X159217597Y-80189104D01*
X159436959Y-80098242D01*
X159436960Y-80098241D01*
X159436963Y-80098240D01*
X159639416Y-79974176D01*
X159819969Y-79819969D01*
X159974176Y-79639416D01*
X160098240Y-79436963D01*
X160189105Y-79217594D01*
X160244535Y-78986711D01*
X160263165Y-78750000D01*
X160244535Y-78513289D01*
X160189105Y-78282406D01*
X160189104Y-78282403D01*
X160189104Y-78282402D01*
X160098242Y-78063040D01*
X160098240Y-78063037D01*
X159974179Y-77860589D01*
X159974178Y-77860586D01*
X159939340Y-77819797D01*
X159819969Y-77680031D01*
X159700596Y-77578076D01*
X159639413Y-77525821D01*
X159639410Y-77525820D01*
X159436962Y-77401759D01*
X159436959Y-77401757D01*
X159217596Y-77310895D01*
X158986714Y-77255465D01*
X158750000Y-77236835D01*
X158513285Y-77255465D01*
X158282404Y-77310895D01*
X158282402Y-77310895D01*
X158063040Y-77401757D01*
X158063037Y-77401759D01*
X157860589Y-77525820D01*
X157860586Y-77525821D01*
X157680031Y-77680031D01*
X157525821Y-77860586D01*
X157525820Y-77860589D01*
X157401759Y-78063037D01*
X157401757Y-78063040D01*
X157310895Y-78282402D01*
X157310895Y-78282404D01*
X157255465Y-78513285D01*
X157236835Y-78750000D01*
X153763165Y-78750000D01*
X153744535Y-78513289D01*
X153689105Y-78282406D01*
X153689104Y-78282403D01*
X153689104Y-78282402D01*
X153598242Y-78063040D01*
X153598240Y-78063037D01*
X153474179Y-77860589D01*
X153474178Y-77860586D01*
X153439340Y-77819797D01*
X153319969Y-77680031D01*
X153200596Y-77578076D01*
X153139413Y-77525821D01*
X153139410Y-77525820D01*
X152936962Y-77401759D01*
X152936959Y-77401757D01*
X152717596Y-77310895D01*
X152486714Y-77255465D01*
X152250000Y-77236835D01*
X152013285Y-77255465D01*
X151782404Y-77310895D01*
X151782402Y-77310895D01*
X151563040Y-77401757D01*
X151563037Y-77401759D01*
X151360589Y-77525820D01*
X151360586Y-77525821D01*
X151180031Y-77680031D01*
X151025821Y-77860586D01*
X151025820Y-77860589D01*
X150901759Y-78063037D01*
X150901757Y-78063040D01*
X150810895Y-78282402D01*
X150810895Y-78282404D01*
X150755465Y-78513285D01*
X150736835Y-78750000D01*
X142917275Y-78750000D01*
X142750000Y-78736835D01*
X142513285Y-78755465D01*
X142282404Y-78810895D01*
X142282402Y-78810895D01*
X142063040Y-78901757D01*
X142063037Y-78901759D01*
X141860589Y-79025820D01*
X141860586Y-79025821D01*
X141680031Y-79180031D01*
X141525821Y-79360586D01*
X141525820Y-79360589D01*
X141401759Y-79563037D01*
X141401757Y-79563040D01*
X141310895Y-79782402D01*
X141310895Y-79782404D01*
X141255465Y-80013285D01*
X141236835Y-80250000D01*
X137763165Y-80250000D01*
X137744535Y-80013289D01*
X137689105Y-79782406D01*
X137689104Y-79782403D01*
X137689104Y-79782402D01*
X137598242Y-79563040D01*
X137598240Y-79563037D01*
X137474179Y-79360589D01*
X137474178Y-79360586D01*
X137352053Y-79217597D01*
X137319969Y-79180031D01*
X137200596Y-79078076D01*
X137139413Y-79025821D01*
X137139410Y-79025820D01*
X136936962Y-78901759D01*
X136936959Y-78901757D01*
X136717596Y-78810895D01*
X136486714Y-78755465D01*
X136250000Y-78736835D01*
X136013285Y-78755465D01*
X135782404Y-78810895D01*
X135782402Y-78810895D01*
X135563040Y-78901757D01*
X135563037Y-78901759D01*
X135360589Y-79025820D01*
X135360586Y-79025821D01*
X135180031Y-79180031D01*
X135025821Y-79360586D01*
X135025820Y-79360589D01*
X134901759Y-79563037D01*
X134901757Y-79563040D01*
X134810895Y-79782402D01*
X134810895Y-79782404D01*
X134755465Y-80013285D01*
X134736835Y-80250000D01*
X100075500Y-80250000D01*
X100075500Y-75750000D01*
X134736835Y-75750000D01*
X134755465Y-75986714D01*
X134810895Y-76217595D01*
X134810895Y-76217597D01*
X134901757Y-76436959D01*
X134901759Y-76436962D01*
X135025820Y-76639410D01*
X135025821Y-76639413D01*
X135048698Y-76666198D01*
X135180031Y-76819969D01*
X135267043Y-76894284D01*
X135360586Y-76974178D01*
X135360589Y-76974179D01*
X135563037Y-77098240D01*
X135563040Y-77098242D01*
X135782403Y-77189104D01*
X135782404Y-77189104D01*
X135782406Y-77189105D01*
X136013289Y-77244535D01*
X136250000Y-77263165D01*
X136486711Y-77244535D01*
X136717594Y-77189105D01*
X136717596Y-77189104D01*
X136717597Y-77189104D01*
X136936959Y-77098242D01*
X136936960Y-77098241D01*
X136936963Y-77098240D01*
X137139416Y-76974176D01*
X137319969Y-76819969D01*
X137474176Y-76639416D01*
X137598240Y-76436963D01*
X137689105Y-76217594D01*
X137744535Y-75986711D01*
X137763165Y-75750000D01*
X141236835Y-75750000D01*
X141255465Y-75986714D01*
X141310895Y-76217595D01*
X141310895Y-76217597D01*
X141401757Y-76436959D01*
X141401759Y-76436962D01*
X141525820Y-76639410D01*
X141525821Y-76639413D01*
X141548698Y-76666198D01*
X141680031Y-76819969D01*
X141767043Y-76894284D01*
X141860586Y-76974178D01*
X141860589Y-76974179D01*
X142063037Y-77098240D01*
X142063040Y-77098242D01*
X142282403Y-77189104D01*
X142282404Y-77189104D01*
X142282406Y-77189105D01*
X142513289Y-77244535D01*
X142750000Y-77263165D01*
X142986711Y-77244535D01*
X143217594Y-77189105D01*
X143217596Y-77189104D01*
X143217597Y-77189104D01*
X143436959Y-77098242D01*
X143436960Y-77098241D01*
X143436963Y-77098240D01*
X143639416Y-76974176D01*
X143819969Y-76819969D01*
X143974176Y-76639416D01*
X144098240Y-76436963D01*
X144189105Y-76217594D01*
X144244535Y-75986711D01*
X144263165Y-75750000D01*
X144244535Y-75513289D01*
X144189105Y-75282406D01*
X144189104Y-75282403D01*
X144189104Y-75282402D01*
X144098242Y-75063040D01*
X144098240Y-75063037D01*
X144061605Y-75003254D01*
X143974178Y-74860588D01*
X143974178Y-74860586D01*
X143852053Y-74717597D01*
X143819969Y-74680031D01*
X143700596Y-74578076D01*
X143639413Y-74525821D01*
X143639410Y-74525820D01*
X143436962Y-74401759D01*
X143436959Y-74401757D01*
X143217596Y-74310895D01*
X142986714Y-74255465D01*
X142917275Y-74250000D01*
X150736835Y-74250000D01*
X150755465Y-74486714D01*
X150810895Y-74717595D01*
X150810895Y-74717597D01*
X150901757Y-74936959D01*
X150901759Y-74936962D01*
X151025820Y-75139410D01*
X151025821Y-75139413D01*
X151025824Y-75139416D01*
X151180031Y-75319969D01*
X151311106Y-75431918D01*
X151360586Y-75474178D01*
X151360589Y-75474179D01*
X151563037Y-75598240D01*
X151563040Y-75598242D01*
X151782403Y-75689104D01*
X151782404Y-75689104D01*
X151782406Y-75689105D01*
X152013289Y-75744535D01*
X152250000Y-75763165D01*
X152486711Y-75744535D01*
X152717594Y-75689105D01*
X152717596Y-75689104D01*
X152717597Y-75689104D01*
X152936959Y-75598242D01*
X152936960Y-75598241D01*
X152936963Y-75598240D01*
X153139416Y-75474176D01*
X153319969Y-75319969D01*
X153474176Y-75139416D01*
X153598240Y-74936963D01*
X153648469Y-74815700D01*
X153689104Y-74717597D01*
X153689104Y-74717596D01*
X153689105Y-74717594D01*
X153744535Y-74486711D01*
X153763165Y-74250000D01*
X157236835Y-74250000D01*
X157255465Y-74486714D01*
X157310895Y-74717595D01*
X157310895Y-74717597D01*
X157401757Y-74936959D01*
X157401759Y-74936962D01*
X157525820Y-75139410D01*
X157525821Y-75139413D01*
X157525824Y-75139416D01*
X157680031Y-75319969D01*
X157811106Y-75431918D01*
X157860586Y-75474178D01*
X157860589Y-75474179D01*
X158063037Y-75598240D01*
X158063040Y-75598242D01*
X158282403Y-75689104D01*
X158282404Y-75689104D01*
X158282406Y-75689105D01*
X158513289Y-75744535D01*
X158750000Y-75763165D01*
X158986711Y-75744535D01*
X159217594Y-75689105D01*
X159217596Y-75689104D01*
X159217597Y-75689104D01*
X159287866Y-75659998D01*
X161186502Y-75659998D01*
X161186502Y-75660001D01*
X161206456Y-75888081D01*
X161206457Y-75888089D01*
X161265714Y-76109238D01*
X161265718Y-76109249D01*
X161316241Y-76217595D01*
X161362477Y-76316749D01*
X161493802Y-76504300D01*
X161655700Y-76666198D01*
X161843251Y-76797523D01*
X161891385Y-76819968D01*
X162050750Y-76894281D01*
X162050752Y-76894281D01*
X162050757Y-76894284D01*
X162271913Y-76953543D01*
X162434832Y-76967796D01*
X162499998Y-76973498D01*
X162500000Y-76973498D01*
X162500002Y-76973498D01*
X162557021Y-76968509D01*
X162728087Y-76953543D01*
X162949243Y-76894284D01*
X163156749Y-76797523D01*
X163344300Y-76666198D01*
X163506198Y-76504300D01*
X163637523Y-76316749D01*
X163734284Y-76109243D01*
X163793543Y-75888087D01*
X163813498Y-75660000D01*
X163793543Y-75431913D01*
X163734284Y-75210757D01*
X163637523Y-75003251D01*
X163506198Y-74815700D01*
X163344300Y-74653802D01*
X163156749Y-74522477D01*
X163156745Y-74522475D01*
X162949249Y-74425718D01*
X162949238Y-74425714D01*
X162728089Y-74366457D01*
X162728081Y-74366456D01*
X162500002Y-74346502D01*
X162499998Y-74346502D01*
X162271918Y-74366456D01*
X162271910Y-74366457D01*
X162050761Y-74425714D01*
X162050750Y-74425718D01*
X161843254Y-74522475D01*
X161843252Y-74522476D01*
X161838475Y-74525821D01*
X161655700Y-74653802D01*
X161655698Y-74653803D01*
X161655695Y-74653806D01*
X161493806Y-74815695D01*
X161493803Y-74815698D01*
X161493802Y-74815700D01*
X161411767Y-74932856D01*
X161362476Y-75003252D01*
X161362475Y-75003254D01*
X161265718Y-75210750D01*
X161265714Y-75210761D01*
X161206457Y-75431910D01*
X161206456Y-75431918D01*
X161186502Y-75659998D01*
X159287866Y-75659998D01*
X159436959Y-75598242D01*
X159436960Y-75598241D01*
X159436963Y-75598240D01*
X159639416Y-75474176D01*
X159819969Y-75319969D01*
X159974176Y-75139416D01*
X160098240Y-74936963D01*
X160148469Y-74815700D01*
X160189104Y-74717597D01*
X160189104Y-74717596D01*
X160189105Y-74717594D01*
X160244535Y-74486711D01*
X160263165Y-74250000D01*
X160244535Y-74013289D01*
X160189105Y-73782406D01*
X160189104Y-73782403D01*
X160189104Y-73782402D01*
X160098242Y-73563040D01*
X160098240Y-73563037D01*
X159974179Y-73360589D01*
X159974178Y-73360586D01*
X159939340Y-73319797D01*
X159819969Y-73180031D01*
X159700596Y-73078076D01*
X159639413Y-73025821D01*
X159639410Y-73025820D01*
X159436962Y-72901759D01*
X159436959Y-72901757D01*
X159217596Y-72810895D01*
X158986714Y-72755465D01*
X158750000Y-72736835D01*
X158513285Y-72755465D01*
X158282404Y-72810895D01*
X158282402Y-72810895D01*
X158063040Y-72901757D01*
X158063037Y-72901759D01*
X157860589Y-73025820D01*
X157860586Y-73025821D01*
X157680031Y-73180031D01*
X157525821Y-73360586D01*
X157525820Y-73360589D01*
X157401759Y-73563037D01*
X157401757Y-73563040D01*
X157310895Y-73782402D01*
X157310895Y-73782404D01*
X157255465Y-74013285D01*
X157236835Y-74250000D01*
X153763165Y-74250000D01*
X153744535Y-74013289D01*
X153689105Y-73782406D01*
X153689104Y-73782403D01*
X153689104Y-73782402D01*
X153598242Y-73563040D01*
X153598240Y-73563037D01*
X153474179Y-73360589D01*
X153474178Y-73360586D01*
X153439340Y-73319797D01*
X153319969Y-73180031D01*
X153200596Y-73078076D01*
X153139413Y-73025821D01*
X153139410Y-73025820D01*
X152936962Y-72901759D01*
X152936959Y-72901757D01*
X152717596Y-72810895D01*
X152486714Y-72755465D01*
X152250000Y-72736835D01*
X152013285Y-72755465D01*
X151782404Y-72810895D01*
X151782402Y-72810895D01*
X151563040Y-72901757D01*
X151563037Y-72901759D01*
X151360589Y-73025820D01*
X151360586Y-73025821D01*
X151180031Y-73180031D01*
X151025821Y-73360586D01*
X151025820Y-73360589D01*
X150901759Y-73563037D01*
X150901757Y-73563040D01*
X150810895Y-73782402D01*
X150810895Y-73782404D01*
X150755465Y-74013285D01*
X150736835Y-74250000D01*
X142917275Y-74250000D01*
X142750000Y-74236835D01*
X142513285Y-74255465D01*
X142282404Y-74310895D01*
X142282402Y-74310895D01*
X142063040Y-74401757D01*
X142063037Y-74401759D01*
X141860589Y-74525820D01*
X141860586Y-74525821D01*
X141680031Y-74680031D01*
X141525821Y-74860586D01*
X141525820Y-74860589D01*
X141401759Y-75063037D01*
X141401757Y-75063040D01*
X141310895Y-75282402D01*
X141310895Y-75282404D01*
X141255465Y-75513285D01*
X141236835Y-75750000D01*
X137763165Y-75750000D01*
X137744535Y-75513289D01*
X137689105Y-75282406D01*
X137689104Y-75282403D01*
X137689104Y-75282402D01*
X137598242Y-75063040D01*
X137598240Y-75063037D01*
X137561605Y-75003254D01*
X137474178Y-74860588D01*
X137474178Y-74860586D01*
X137352053Y-74717597D01*
X137319969Y-74680031D01*
X137200596Y-74578076D01*
X137139413Y-74525821D01*
X137139410Y-74525820D01*
X136936962Y-74401759D01*
X136936959Y-74401757D01*
X136717596Y-74310895D01*
X136486714Y-74255465D01*
X136250000Y-74236835D01*
X136013285Y-74255465D01*
X135782404Y-74310895D01*
X135782402Y-74310895D01*
X135563040Y-74401757D01*
X135563037Y-74401759D01*
X135360589Y-74525820D01*
X135360586Y-74525821D01*
X135180031Y-74680031D01*
X135025821Y-74860586D01*
X135025820Y-74860589D01*
X134901759Y-75063037D01*
X134901757Y-75063040D01*
X134810895Y-75282402D01*
X134810895Y-75282404D01*
X134755465Y-75513285D01*
X134736835Y-75750000D01*
X100075500Y-75750000D01*
X100075500Y-70749999D01*
X132061127Y-70749999D01*
X132061128Y-70750000D01*
X133024314Y-70750000D01*
X133019920Y-70754394D01*
X132967259Y-70845606D01*
X132940000Y-70947339D01*
X132940000Y-71052661D01*
X132967259Y-71154394D01*
X133019920Y-71245606D01*
X133024314Y-71250000D01*
X132061128Y-71250000D01*
X132113730Y-71446317D01*
X132113734Y-71446326D01*
X132209865Y-71652482D01*
X132340342Y-71838820D01*
X132501179Y-71999657D01*
X132687517Y-72130134D01*
X132893673Y-72226265D01*
X132893682Y-72226269D01*
X133089999Y-72278872D01*
X133090000Y-72278871D01*
X133090000Y-71315686D01*
X133094394Y-71320080D01*
X133185606Y-71372741D01*
X133287339Y-71400000D01*
X133392661Y-71400000D01*
X133494394Y-71372741D01*
X133585606Y-71320080D01*
X133590000Y-71315686D01*
X133590000Y-72278872D01*
X133786317Y-72226269D01*
X133786326Y-72226265D01*
X133992482Y-72130134D01*
X134178820Y-71999657D01*
X134339657Y-71838820D01*
X134470134Y-71652482D01*
X134566265Y-71446326D01*
X134566269Y-71446317D01*
X134618872Y-71250000D01*
X133655686Y-71250000D01*
X133660080Y-71245606D01*
X133712741Y-71154394D01*
X133740000Y-71052661D01*
X133740000Y-70999998D01*
X142186502Y-70999998D01*
X142186502Y-71000001D01*
X142206456Y-71228081D01*
X142206457Y-71228089D01*
X142265714Y-71449238D01*
X142265718Y-71449249D01*
X142360487Y-71652482D01*
X142362477Y-71656749D01*
X142493802Y-71844300D01*
X142655700Y-72006198D01*
X142843251Y-72137523D01*
X142968091Y-72195736D01*
X143050750Y-72234281D01*
X143050752Y-72234281D01*
X143050757Y-72234284D01*
X143271913Y-72293543D01*
X143434832Y-72307796D01*
X143499998Y-72313498D01*
X143500000Y-72313498D01*
X143500002Y-72313498D01*
X143557021Y-72308509D01*
X143728087Y-72293543D01*
X143949243Y-72234284D01*
X144156749Y-72137523D01*
X144344300Y-72006198D01*
X144506198Y-71844300D01*
X144637523Y-71656749D01*
X144734284Y-71449243D01*
X144793543Y-71228087D01*
X144813498Y-71000000D01*
X144793543Y-70771913D01*
X144734284Y-70550757D01*
X144637523Y-70343251D01*
X144506198Y-70155700D01*
X144344300Y-69993802D01*
X144156749Y-69862477D01*
X144156745Y-69862475D01*
X143949249Y-69765718D01*
X143949238Y-69765714D01*
X143728089Y-69706457D01*
X143728081Y-69706456D01*
X143500002Y-69686502D01*
X143499998Y-69686502D01*
X143271918Y-69706456D01*
X143271910Y-69706457D01*
X143050761Y-69765714D01*
X143050750Y-69765718D01*
X142843254Y-69862475D01*
X142843252Y-69862476D01*
X142843251Y-69862477D01*
X142655700Y-69993802D01*
X142655698Y-69993803D01*
X142655695Y-69993806D01*
X142493806Y-70155695D01*
X142362476Y-70343252D01*
X142362475Y-70343254D01*
X142265718Y-70550750D01*
X142265714Y-70550761D01*
X142206457Y-70771910D01*
X142206456Y-70771918D01*
X142186502Y-70999998D01*
X133740000Y-70999998D01*
X133740000Y-70947339D01*
X133712741Y-70845606D01*
X133660080Y-70754394D01*
X133655686Y-70750000D01*
X134618872Y-70750000D01*
X134618872Y-70749999D01*
X134566269Y-70553682D01*
X134566265Y-70553673D01*
X134470134Y-70347517D01*
X134339657Y-70161179D01*
X134178820Y-70000342D01*
X133992482Y-69869865D01*
X133786328Y-69773734D01*
X133590000Y-69721127D01*
X133590000Y-70684314D01*
X133585606Y-70679920D01*
X133494394Y-70627259D01*
X133392661Y-70600000D01*
X133287339Y-70600000D01*
X133185606Y-70627259D01*
X133094394Y-70679920D01*
X133090000Y-70684314D01*
X133090000Y-69721127D01*
X132893671Y-69773734D01*
X132687517Y-69869865D01*
X132501179Y-70000342D01*
X132340342Y-70161179D01*
X132209865Y-70347517D01*
X132113734Y-70553673D01*
X132113730Y-70553682D01*
X132061127Y-70749999D01*
X100075500Y-70749999D01*
X100075500Y-69250000D01*
X150236835Y-69250000D01*
X150255465Y-69486714D01*
X150310895Y-69717595D01*
X150310895Y-69717597D01*
X150401757Y-69936959D01*
X150401759Y-69936962D01*
X150525820Y-70139410D01*
X150525821Y-70139413D01*
X150539732Y-70155700D01*
X150680031Y-70319969D01*
X150712286Y-70347517D01*
X150860586Y-70474178D01*
X150860589Y-70474179D01*
X151063037Y-70598240D01*
X151063040Y-70598242D01*
X151282403Y-70689104D01*
X151282404Y-70689104D01*
X151282406Y-70689105D01*
X151513289Y-70744535D01*
X151750000Y-70763165D01*
X151986711Y-70744535D01*
X152217594Y-70689105D01*
X152217596Y-70689104D01*
X152217597Y-70689104D01*
X152436959Y-70598242D01*
X152436960Y-70598241D01*
X152436963Y-70598240D01*
X152639416Y-70474176D01*
X152819969Y-70319969D01*
X152974176Y-70139416D01*
X153098240Y-69936963D01*
X153129094Y-69862476D01*
X153189104Y-69717597D01*
X153189104Y-69717596D01*
X153189105Y-69717594D01*
X153244535Y-69486711D01*
X153263165Y-69250000D01*
X156736835Y-69250000D01*
X156755465Y-69486714D01*
X156810895Y-69717595D01*
X156810895Y-69717597D01*
X156901757Y-69936959D01*
X156901759Y-69936962D01*
X157025820Y-70139410D01*
X157025821Y-70139413D01*
X157039732Y-70155700D01*
X157180031Y-70319969D01*
X157212286Y-70347517D01*
X157360586Y-70474178D01*
X157360589Y-70474179D01*
X157563037Y-70598240D01*
X157563040Y-70598242D01*
X157782403Y-70689104D01*
X157782404Y-70689104D01*
X157782406Y-70689105D01*
X158013289Y-70744535D01*
X158250000Y-70763165D01*
X158486711Y-70744535D01*
X158717594Y-70689105D01*
X158717596Y-70689104D01*
X158717597Y-70689104D01*
X158936959Y-70598242D01*
X158936960Y-70598241D01*
X158936963Y-70598240D01*
X159139416Y-70474176D01*
X159319969Y-70319969D01*
X159474176Y-70139416D01*
X159598240Y-69936963D01*
X159629094Y-69862476D01*
X159689104Y-69717597D01*
X159689104Y-69717596D01*
X159689105Y-69717594D01*
X159744535Y-69486711D01*
X159763165Y-69250000D01*
X159744535Y-69013289D01*
X159689105Y-68782406D01*
X159689104Y-68782403D01*
X159689104Y-68782402D01*
X159598242Y-68563040D01*
X159598240Y-68563037D01*
X159474179Y-68360589D01*
X159474178Y-68360586D01*
X159407132Y-68282086D01*
X159319969Y-68180031D01*
X159200596Y-68078076D01*
X159139413Y-68025821D01*
X159139410Y-68025820D01*
X158936962Y-67901759D01*
X158936959Y-67901757D01*
X158717596Y-67810895D01*
X158486714Y-67755465D01*
X158250000Y-67736835D01*
X158013285Y-67755465D01*
X157782404Y-67810895D01*
X157782402Y-67810895D01*
X157563040Y-67901757D01*
X157563037Y-67901759D01*
X157360589Y-68025820D01*
X157360586Y-68025821D01*
X157180031Y-68180031D01*
X157025821Y-68360586D01*
X157025820Y-68360589D01*
X156901759Y-68563037D01*
X156901757Y-68563040D01*
X156810895Y-68782402D01*
X156810895Y-68782404D01*
X156755465Y-69013285D01*
X156736835Y-69250000D01*
X153263165Y-69250000D01*
X153244535Y-69013289D01*
X153189105Y-68782406D01*
X153189104Y-68782403D01*
X153189104Y-68782402D01*
X153098242Y-68563040D01*
X153098240Y-68563037D01*
X152974179Y-68360589D01*
X152974178Y-68360586D01*
X152907132Y-68282086D01*
X152819969Y-68180031D01*
X152700596Y-68078076D01*
X152639413Y-68025821D01*
X152639410Y-68025820D01*
X152436962Y-67901759D01*
X152436959Y-67901757D01*
X152217596Y-67810895D01*
X151986714Y-67755465D01*
X151750000Y-67736835D01*
X151513285Y-67755465D01*
X151282404Y-67810895D01*
X151282402Y-67810895D01*
X151063040Y-67901757D01*
X151063037Y-67901759D01*
X150860589Y-68025820D01*
X150860586Y-68025821D01*
X150680031Y-68180031D01*
X150525821Y-68360586D01*
X150525820Y-68360589D01*
X150401759Y-68563037D01*
X150401757Y-68563040D01*
X150310895Y-68782402D01*
X150310895Y-68782404D01*
X150255465Y-69013285D01*
X150236835Y-69250000D01*
X100075500Y-69250000D01*
X100075500Y-66499994D01*
X101856844Y-66499994D01*
X101856844Y-66500005D01*
X101875434Y-66724359D01*
X101875436Y-66724371D01*
X101930703Y-66942614D01*
X102021140Y-67148792D01*
X102144276Y-67337265D01*
X102144284Y-67337276D01*
X102296756Y-67502902D01*
X102296760Y-67502906D01*
X102474424Y-67641189D01*
X102474425Y-67641189D01*
X102474427Y-67641191D01*
X102534314Y-67673600D01*
X102672426Y-67748342D01*
X102885365Y-67821444D01*
X103107431Y-67858500D01*
X103332569Y-67858500D01*
X103554635Y-67821444D01*
X103767574Y-67748342D01*
X103965576Y-67641189D01*
X104143240Y-67502906D01*
X104248295Y-67388787D01*
X104295715Y-67337276D01*
X104295715Y-67337275D01*
X104295722Y-67337268D01*
X104386193Y-67198790D01*
X104439338Y-67153437D01*
X104508569Y-67144013D01*
X104571905Y-67173515D01*
X104593804Y-67198787D01*
X104684278Y-67337268D01*
X104684283Y-67337273D01*
X104684284Y-67337276D01*
X104836756Y-67502902D01*
X104836760Y-67502906D01*
X105014424Y-67641189D01*
X105014425Y-67641189D01*
X105014427Y-67641191D01*
X105074314Y-67673600D01*
X105212426Y-67748342D01*
X105425365Y-67821444D01*
X105647431Y-67858500D01*
X105872569Y-67858500D01*
X106094635Y-67821444D01*
X106307574Y-67748342D01*
X106505576Y-67641189D01*
X106683240Y-67502906D01*
X106788295Y-67388787D01*
X106835715Y-67337276D01*
X106835715Y-67337275D01*
X106835722Y-67337268D01*
X106926193Y-67198790D01*
X106979338Y-67153437D01*
X107048569Y-67144013D01*
X107111905Y-67173515D01*
X107133804Y-67198787D01*
X107224278Y-67337268D01*
X107224283Y-67337273D01*
X107224284Y-67337276D01*
X107376756Y-67502902D01*
X107376760Y-67502906D01*
X107554424Y-67641189D01*
X107554425Y-67641189D01*
X107554427Y-67641191D01*
X107614314Y-67673600D01*
X107752426Y-67748342D01*
X107965365Y-67821444D01*
X108187431Y-67858500D01*
X108412569Y-67858500D01*
X108634635Y-67821444D01*
X108847574Y-67748342D01*
X109045576Y-67641189D01*
X109223240Y-67502906D01*
X109328295Y-67388787D01*
X109375715Y-67337276D01*
X109375715Y-67337275D01*
X109375722Y-67337268D01*
X109466193Y-67198790D01*
X109519338Y-67153437D01*
X109588569Y-67144013D01*
X109651905Y-67173515D01*
X109673804Y-67198787D01*
X109764278Y-67337268D01*
X109764283Y-67337273D01*
X109764284Y-67337276D01*
X109916756Y-67502902D01*
X109916760Y-67502906D01*
X110094424Y-67641189D01*
X110094425Y-67641189D01*
X110094427Y-67641191D01*
X110154314Y-67673600D01*
X110292426Y-67748342D01*
X110505365Y-67821444D01*
X110727431Y-67858500D01*
X110952569Y-67858500D01*
X111174635Y-67821444D01*
X111387574Y-67748342D01*
X111585576Y-67641189D01*
X111763240Y-67502906D01*
X111868295Y-67388787D01*
X111915715Y-67337276D01*
X111915715Y-67337275D01*
X111915722Y-67337268D01*
X112006193Y-67198790D01*
X112059338Y-67153437D01*
X112128569Y-67144013D01*
X112191905Y-67173515D01*
X112213804Y-67198787D01*
X112304278Y-67337268D01*
X112304283Y-67337273D01*
X112304284Y-67337276D01*
X112456756Y-67502902D01*
X112456760Y-67502906D01*
X112634424Y-67641189D01*
X112634425Y-67641189D01*
X112634427Y-67641191D01*
X112694314Y-67673600D01*
X112832426Y-67748342D01*
X113045365Y-67821444D01*
X113267431Y-67858500D01*
X113492569Y-67858500D01*
X113714635Y-67821444D01*
X113927574Y-67748342D01*
X114125576Y-67641189D01*
X114303240Y-67502906D01*
X114408295Y-67388787D01*
X114455715Y-67337276D01*
X114455715Y-67337275D01*
X114455722Y-67337268D01*
X114546193Y-67198790D01*
X114599338Y-67153437D01*
X114668569Y-67144013D01*
X114731905Y-67173515D01*
X114753804Y-67198787D01*
X114844278Y-67337268D01*
X114844283Y-67337273D01*
X114844284Y-67337276D01*
X114996756Y-67502902D01*
X114996760Y-67502906D01*
X115174424Y-67641189D01*
X115174425Y-67641189D01*
X115174427Y-67641191D01*
X115234314Y-67673600D01*
X115372426Y-67748342D01*
X115585365Y-67821444D01*
X115807431Y-67858500D01*
X116032569Y-67858500D01*
X116254635Y-67821444D01*
X116467574Y-67748342D01*
X116665576Y-67641189D01*
X116843240Y-67502906D01*
X116948295Y-67388787D01*
X116995715Y-67337276D01*
X116995715Y-67337275D01*
X116995722Y-67337268D01*
X117089749Y-67193347D01*
X117142894Y-67147994D01*
X117212125Y-67138570D01*
X117275461Y-67168072D01*
X117295130Y-67190048D01*
X117421890Y-67371078D01*
X117588917Y-67538105D01*
X117782421Y-67673600D01*
X117996507Y-67773429D01*
X117996516Y-67773433D01*
X118210000Y-67830634D01*
X118210000Y-66933012D01*
X118267007Y-66965925D01*
X118394174Y-67000000D01*
X118525826Y-67000000D01*
X118652993Y-66965925D01*
X118710000Y-66933012D01*
X118710000Y-67830633D01*
X118923483Y-67773433D01*
X118923492Y-67773429D01*
X119137578Y-67673600D01*
X119331078Y-67538108D01*
X119446914Y-67422272D01*
X119508237Y-67388787D01*
X119577929Y-67393771D01*
X119633863Y-67435642D01*
X119650777Y-67466619D01*
X119699110Y-67596203D01*
X119699111Y-67596204D01*
X119786739Y-67713261D01*
X119903796Y-67800889D01*
X120040799Y-67851989D01*
X120068050Y-67854918D01*
X120101345Y-67858499D01*
X120101362Y-67858500D01*
X121898638Y-67858500D01*
X121898654Y-67858499D01*
X121925692Y-67855591D01*
X121959201Y-67851989D01*
X122096204Y-67800889D01*
X122213261Y-67713261D01*
X122300889Y-67596204D01*
X122351989Y-67459201D01*
X122356601Y-67416306D01*
X122358499Y-67398654D01*
X122358500Y-67398637D01*
X122358500Y-65601362D01*
X122358499Y-65601345D01*
X122353264Y-65552661D01*
X122351989Y-65540799D01*
X122349222Y-65533381D01*
X122322559Y-65461894D01*
X122300889Y-65403796D01*
X122213261Y-65286739D01*
X122096204Y-65199111D01*
X121959203Y-65148011D01*
X121898654Y-65141500D01*
X121898638Y-65141500D01*
X120101362Y-65141500D01*
X120101345Y-65141500D01*
X120040797Y-65148011D01*
X120040795Y-65148011D01*
X119903795Y-65199111D01*
X119786739Y-65286739D01*
X119699111Y-65403795D01*
X119650777Y-65533381D01*
X119608905Y-65589314D01*
X119543441Y-65613730D01*
X119475168Y-65598878D01*
X119446915Y-65577727D01*
X119331082Y-65461894D01*
X119137578Y-65326399D01*
X118923492Y-65226570D01*
X118923486Y-65226567D01*
X118710000Y-65169364D01*
X118710000Y-66066988D01*
X118652993Y-66034075D01*
X118525826Y-66000000D01*
X118394174Y-66000000D01*
X118267007Y-66034075D01*
X118210000Y-66066988D01*
X118210000Y-65169364D01*
X118209999Y-65169364D01*
X117996513Y-65226567D01*
X117996507Y-65226570D01*
X117782422Y-65326399D01*
X117782420Y-65326400D01*
X117588926Y-65461886D01*
X117588920Y-65461891D01*
X117421891Y-65628920D01*
X117421890Y-65628922D01*
X117295131Y-65809952D01*
X117240554Y-65853577D01*
X117171055Y-65860769D01*
X117108701Y-65829247D01*
X117089752Y-65806656D01*
X116995722Y-65662732D01*
X116995715Y-65662725D01*
X116995715Y-65662723D01*
X116843243Y-65497097D01*
X116843238Y-65497092D01*
X116665577Y-65358812D01*
X116665572Y-65358808D01*
X116467580Y-65251661D01*
X116467577Y-65251659D01*
X116467574Y-65251658D01*
X116467571Y-65251657D01*
X116467569Y-65251656D01*
X116254637Y-65178556D01*
X116032569Y-65141500D01*
X115807431Y-65141500D01*
X115585362Y-65178556D01*
X115372430Y-65251656D01*
X115372419Y-65251661D01*
X115174427Y-65358808D01*
X115174422Y-65358812D01*
X114996761Y-65497092D01*
X114996756Y-65497097D01*
X114844284Y-65662723D01*
X114844276Y-65662734D01*
X114753808Y-65801206D01*
X114700662Y-65846562D01*
X114631431Y-65855986D01*
X114568095Y-65826484D01*
X114546192Y-65801206D01*
X114455723Y-65662734D01*
X114455715Y-65662723D01*
X114303243Y-65497097D01*
X114303238Y-65497092D01*
X114125577Y-65358812D01*
X114125572Y-65358808D01*
X113927580Y-65251661D01*
X113927577Y-65251659D01*
X113927574Y-65251658D01*
X113927571Y-65251657D01*
X113927569Y-65251656D01*
X113714637Y-65178556D01*
X113492569Y-65141500D01*
X113267431Y-65141500D01*
X113045362Y-65178556D01*
X112832430Y-65251656D01*
X112832419Y-65251661D01*
X112634427Y-65358808D01*
X112634422Y-65358812D01*
X112456761Y-65497092D01*
X112456756Y-65497097D01*
X112304284Y-65662723D01*
X112304276Y-65662734D01*
X112213808Y-65801206D01*
X112160662Y-65846562D01*
X112091431Y-65855986D01*
X112028095Y-65826484D01*
X112006192Y-65801206D01*
X111915723Y-65662734D01*
X111915715Y-65662723D01*
X111763243Y-65497097D01*
X111763238Y-65497092D01*
X111585577Y-65358812D01*
X111585572Y-65358808D01*
X111387580Y-65251661D01*
X111387577Y-65251659D01*
X111387574Y-65251658D01*
X111387571Y-65251657D01*
X111387569Y-65251656D01*
X111174637Y-65178556D01*
X110952569Y-65141500D01*
X110727431Y-65141500D01*
X110505362Y-65178556D01*
X110292430Y-65251656D01*
X110292419Y-65251661D01*
X110094427Y-65358808D01*
X110094422Y-65358812D01*
X109916761Y-65497092D01*
X109916756Y-65497097D01*
X109764284Y-65662723D01*
X109764276Y-65662734D01*
X109673808Y-65801206D01*
X109620662Y-65846562D01*
X109551431Y-65855986D01*
X109488095Y-65826484D01*
X109466192Y-65801206D01*
X109375723Y-65662734D01*
X109375715Y-65662723D01*
X109223243Y-65497097D01*
X109223238Y-65497092D01*
X109045577Y-65358812D01*
X109045572Y-65358808D01*
X108847580Y-65251661D01*
X108847577Y-65251659D01*
X108847574Y-65251658D01*
X108847571Y-65251657D01*
X108847569Y-65251656D01*
X108634637Y-65178556D01*
X108412569Y-65141500D01*
X108187431Y-65141500D01*
X107965362Y-65178556D01*
X107752430Y-65251656D01*
X107752419Y-65251661D01*
X107554427Y-65358808D01*
X107554422Y-65358812D01*
X107376761Y-65497092D01*
X107376756Y-65497097D01*
X107224284Y-65662723D01*
X107224276Y-65662734D01*
X107133808Y-65801206D01*
X107080662Y-65846562D01*
X107011431Y-65855986D01*
X106948095Y-65826484D01*
X106926192Y-65801206D01*
X106835723Y-65662734D01*
X106835715Y-65662723D01*
X106683243Y-65497097D01*
X106683238Y-65497092D01*
X106505577Y-65358812D01*
X106505572Y-65358808D01*
X106307580Y-65251661D01*
X106307577Y-65251659D01*
X106307574Y-65251658D01*
X106307571Y-65251657D01*
X106307569Y-65251656D01*
X106094637Y-65178556D01*
X105872569Y-65141500D01*
X105647431Y-65141500D01*
X105425362Y-65178556D01*
X105212430Y-65251656D01*
X105212419Y-65251661D01*
X105014427Y-65358808D01*
X105014422Y-65358812D01*
X104836761Y-65497092D01*
X104836756Y-65497097D01*
X104684284Y-65662723D01*
X104684276Y-65662734D01*
X104593808Y-65801206D01*
X104540662Y-65846562D01*
X104471431Y-65855986D01*
X104408095Y-65826484D01*
X104386192Y-65801206D01*
X104295723Y-65662734D01*
X104295715Y-65662723D01*
X104143243Y-65497097D01*
X104143238Y-65497092D01*
X103965577Y-65358812D01*
X103965572Y-65358808D01*
X103767580Y-65251661D01*
X103767577Y-65251659D01*
X103767574Y-65251658D01*
X103767571Y-65251657D01*
X103767569Y-65251656D01*
X103554637Y-65178556D01*
X103332569Y-65141500D01*
X103107431Y-65141500D01*
X102885362Y-65178556D01*
X102672430Y-65251656D01*
X102672419Y-65251661D01*
X102474427Y-65358808D01*
X102474422Y-65358812D01*
X102296761Y-65497092D01*
X102296756Y-65497097D01*
X102144284Y-65662723D01*
X102144276Y-65662734D01*
X102021140Y-65851207D01*
X101930703Y-66057385D01*
X101875436Y-66275628D01*
X101875434Y-66275640D01*
X101856844Y-66499994D01*
X100075500Y-66499994D01*
X100075500Y-64599994D01*
X128146673Y-64599994D01*
X128146673Y-64600005D01*
X128165948Y-64832622D01*
X128223251Y-65058907D01*
X128317015Y-65272668D01*
X128444683Y-65468080D01*
X128538073Y-65569528D01*
X128568995Y-65632183D01*
X128561135Y-65701609D01*
X128516988Y-65755764D01*
X128490177Y-65769693D01*
X128417911Y-65796646D01*
X128417906Y-65796649D01*
X128302812Y-65882809D01*
X128302809Y-65882812D01*
X128216649Y-65997906D01*
X128216645Y-65997913D01*
X128166403Y-66132620D01*
X128166401Y-66132627D01*
X128160000Y-66192155D01*
X128160000Y-66890000D01*
X129184722Y-66890000D01*
X129140667Y-66966306D01*
X129110000Y-67080756D01*
X129110000Y-67199244D01*
X129140667Y-67313694D01*
X129184722Y-67390000D01*
X128160000Y-67390000D01*
X128160000Y-68087844D01*
X128166401Y-68147372D01*
X128166403Y-68147379D01*
X128216645Y-68282086D01*
X128216649Y-68282093D01*
X128302809Y-68397187D01*
X128302812Y-68397190D01*
X128417906Y-68483350D01*
X128417913Y-68483354D01*
X128552620Y-68533596D01*
X128552627Y-68533598D01*
X128612155Y-68539999D01*
X128612172Y-68540000D01*
X129310000Y-68540000D01*
X129310000Y-67515277D01*
X129386306Y-67559333D01*
X129500756Y-67590000D01*
X129619244Y-67590000D01*
X129733694Y-67559333D01*
X129810000Y-67515277D01*
X129810000Y-68540000D01*
X130507828Y-68540000D01*
X130507844Y-68539999D01*
X130567372Y-68533598D01*
X130567379Y-68533596D01*
X130702086Y-68483354D01*
X130702093Y-68483350D01*
X130817187Y-68397190D01*
X130817190Y-68397187D01*
X130903350Y-68282093D01*
X130903354Y-68282086D01*
X130953596Y-68147379D01*
X130953598Y-68147372D01*
X130959999Y-68087844D01*
X130960000Y-68087827D01*
X130960000Y-67390000D01*
X129935278Y-67390000D01*
X129979333Y-67313694D01*
X130010000Y-67199244D01*
X130010000Y-67080756D01*
X129979333Y-66966306D01*
X129935278Y-66890000D01*
X130960000Y-66890000D01*
X130960000Y-66192172D01*
X130959999Y-66192155D01*
X130953598Y-66132627D01*
X130953596Y-66132620D01*
X130903354Y-65997913D01*
X130903350Y-65997906D01*
X130817190Y-65882812D01*
X130817187Y-65882809D01*
X130702093Y-65796649D01*
X130702086Y-65796645D01*
X130629823Y-65769693D01*
X130573889Y-65727822D01*
X130549472Y-65662357D01*
X130564324Y-65594084D01*
X130581927Y-65569528D01*
X130675313Y-65468084D01*
X130679359Y-65461891D01*
X130802984Y-65272669D01*
X130896749Y-65058907D01*
X130954051Y-64832626D01*
X130973327Y-64600000D01*
X130954051Y-64367374D01*
X130896749Y-64141093D01*
X130802984Y-63927331D01*
X130759379Y-63860589D01*
X130675313Y-63731915D01*
X130517223Y-63560185D01*
X130517222Y-63560184D01*
X130517220Y-63560182D01*
X130333017Y-63416810D01*
X130333015Y-63416809D01*
X130333014Y-63416808D01*
X130333011Y-63416806D01*
X130127733Y-63305716D01*
X130127730Y-63305715D01*
X130127727Y-63305713D01*
X130127721Y-63305711D01*
X130127719Y-63305710D01*
X129906954Y-63229920D01*
X129734271Y-63201105D01*
X129676712Y-63191500D01*
X129443288Y-63191500D01*
X129397240Y-63199184D01*
X129213045Y-63229920D01*
X128992280Y-63305710D01*
X128992266Y-63305716D01*
X128786988Y-63416806D01*
X128786985Y-63416808D01*
X128602781Y-63560181D01*
X128602776Y-63560185D01*
X128444686Y-63731915D01*
X128317015Y-63927331D01*
X128223251Y-64141092D01*
X128165948Y-64367377D01*
X128146673Y-64599994D01*
X100075500Y-64599994D01*
X100075500Y-62393084D01*
X138016500Y-62393084D01*
X138016500Y-62606915D01*
X138049951Y-62818117D01*
X138116026Y-63021480D01*
X138116027Y-63021483D01*
X138202656Y-63191500D01*
X138213106Y-63212009D01*
X138338794Y-63385004D01*
X138338796Y-63385006D01*
X138470893Y-63517103D01*
X138504378Y-63578426D01*
X138499394Y-63648118D01*
X138457522Y-63704051D01*
X138448309Y-63710322D01*
X138301351Y-63800967D01*
X138301347Y-63800970D01*
X138175971Y-63926346D01*
X138082886Y-64077259D01*
X138082884Y-64077264D01*
X138027113Y-64245572D01*
X138016500Y-64349447D01*
X138016500Y-65650537D01*
X138016501Y-65650553D01*
X138027113Y-65754427D01*
X138082884Y-65922735D01*
X138082885Y-65922738D01*
X138175970Y-66073652D01*
X138301348Y-66199030D01*
X138452262Y-66292115D01*
X138620574Y-66347887D01*
X138724455Y-66358500D01*
X140275544Y-66358499D01*
X140379426Y-66347887D01*
X140547738Y-66292115D01*
X140698652Y-66199030D01*
X140824030Y-66073652D01*
X140917115Y-65922738D01*
X140972887Y-65754426D01*
X140983500Y-65650545D01*
X140983499Y-64750000D01*
X150236835Y-64750000D01*
X150255465Y-64986714D01*
X150310895Y-65217595D01*
X150310895Y-65217597D01*
X150401757Y-65436959D01*
X150401759Y-65436962D01*
X150525820Y-65639410D01*
X150525821Y-65639413D01*
X150545739Y-65662734D01*
X150680031Y-65819969D01*
X150800358Y-65922738D01*
X150860586Y-65974178D01*
X150860589Y-65974179D01*
X151063037Y-66098240D01*
X151063040Y-66098242D01*
X151282403Y-66189104D01*
X151282404Y-66189104D01*
X151282406Y-66189105D01*
X151513289Y-66244535D01*
X151750000Y-66263165D01*
X151986711Y-66244535D01*
X152217594Y-66189105D01*
X152217596Y-66189104D01*
X152217597Y-66189104D01*
X152436959Y-66098242D01*
X152436960Y-66098241D01*
X152436963Y-66098240D01*
X152639416Y-65974176D01*
X152819969Y-65819969D01*
X152974176Y-65639416D01*
X153098240Y-65436963D01*
X153130612Y-65358811D01*
X153189104Y-65217597D01*
X153189104Y-65217596D01*
X153189105Y-65217594D01*
X153244535Y-64986711D01*
X153263165Y-64750000D01*
X156736835Y-64750000D01*
X156755465Y-64986714D01*
X156810895Y-65217595D01*
X156810895Y-65217597D01*
X156901757Y-65436959D01*
X156901759Y-65436962D01*
X157025820Y-65639410D01*
X157025821Y-65639413D01*
X157045739Y-65662734D01*
X157180031Y-65819969D01*
X157300358Y-65922738D01*
X157360586Y-65974178D01*
X157360589Y-65974179D01*
X157563037Y-66098240D01*
X157563040Y-66098242D01*
X157782403Y-66189104D01*
X157782404Y-66189104D01*
X157782406Y-66189105D01*
X158013289Y-66244535D01*
X158250000Y-66263165D01*
X158486711Y-66244535D01*
X158717594Y-66189105D01*
X158717596Y-66189104D01*
X158717597Y-66189104D01*
X158936959Y-66098242D01*
X158936960Y-66098241D01*
X158936963Y-66098240D01*
X159139416Y-65974176D01*
X159319969Y-65819969D01*
X159474176Y-65639416D01*
X159598240Y-65436963D01*
X159630612Y-65358811D01*
X159675683Y-65249999D01*
X161221127Y-65249999D01*
X161221128Y-65250000D01*
X162184314Y-65250000D01*
X162179920Y-65254394D01*
X162127259Y-65345606D01*
X162100000Y-65447339D01*
X162100000Y-65552661D01*
X162127259Y-65654394D01*
X162179920Y-65745606D01*
X162184314Y-65750000D01*
X161221128Y-65750000D01*
X161273730Y-65946317D01*
X161273734Y-65946326D01*
X161369865Y-66152482D01*
X161500342Y-66338820D01*
X161661179Y-66499657D01*
X161847517Y-66630134D01*
X162053673Y-66726265D01*
X162053682Y-66726269D01*
X162249999Y-66778872D01*
X162250000Y-66778871D01*
X162250000Y-65815686D01*
X162254394Y-65820080D01*
X162345606Y-65872741D01*
X162447339Y-65900000D01*
X162552661Y-65900000D01*
X162654394Y-65872741D01*
X162745606Y-65820080D01*
X162750000Y-65815686D01*
X162750000Y-66778872D01*
X162946317Y-66726269D01*
X162946326Y-66726265D01*
X163152482Y-66630134D01*
X163338820Y-66499657D01*
X163499657Y-66338820D01*
X163630134Y-66152482D01*
X163726265Y-65946326D01*
X163726269Y-65946317D01*
X163778872Y-65750000D01*
X162815686Y-65750000D01*
X162820080Y-65745606D01*
X162872741Y-65654394D01*
X162900000Y-65552661D01*
X162900000Y-65447339D01*
X162872741Y-65345606D01*
X162820080Y-65254394D01*
X162815686Y-65250000D01*
X163778872Y-65250000D01*
X163778872Y-65249999D01*
X163726269Y-65053682D01*
X163726265Y-65053673D01*
X163630134Y-64847517D01*
X163499657Y-64661179D01*
X163338820Y-64500342D01*
X163152482Y-64369865D01*
X162946328Y-64273734D01*
X162750000Y-64221127D01*
X162750000Y-65184314D01*
X162745606Y-65179920D01*
X162654394Y-65127259D01*
X162552661Y-65100000D01*
X162447339Y-65100000D01*
X162345606Y-65127259D01*
X162254394Y-65179920D01*
X162250000Y-65184314D01*
X162250000Y-64221127D01*
X162053671Y-64273734D01*
X161847517Y-64369865D01*
X161661179Y-64500342D01*
X161500342Y-64661179D01*
X161369865Y-64847517D01*
X161273734Y-65053673D01*
X161273730Y-65053682D01*
X161221127Y-65249999D01*
X159675683Y-65249999D01*
X159689104Y-65217597D01*
X159689104Y-65217596D01*
X159689105Y-65217594D01*
X159744535Y-64986711D01*
X159763165Y-64750000D01*
X159744535Y-64513289D01*
X159689105Y-64282406D01*
X159689104Y-64282403D01*
X159689104Y-64282402D01*
X159598242Y-64063040D01*
X159598240Y-64063037D01*
X159474179Y-63860589D01*
X159474178Y-63860586D01*
X159414006Y-63790134D01*
X159319969Y-63680031D01*
X159151572Y-63536206D01*
X159139413Y-63525821D01*
X159139410Y-63525820D01*
X158936962Y-63401759D01*
X158936959Y-63401757D01*
X158717596Y-63310895D01*
X158486714Y-63255465D01*
X158250000Y-63236835D01*
X158013285Y-63255465D01*
X157782404Y-63310895D01*
X157782402Y-63310895D01*
X157563040Y-63401757D01*
X157563037Y-63401759D01*
X157360589Y-63525820D01*
X157360586Y-63525821D01*
X157180031Y-63680031D01*
X157025821Y-63860586D01*
X157025820Y-63860589D01*
X156901759Y-64063037D01*
X156901757Y-64063040D01*
X156810895Y-64282402D01*
X156810895Y-64282404D01*
X156755465Y-64513285D01*
X156736835Y-64750000D01*
X153263165Y-64750000D01*
X153244535Y-64513289D01*
X153189105Y-64282406D01*
X153189104Y-64282403D01*
X153189104Y-64282402D01*
X153098242Y-64063040D01*
X153098240Y-64063037D01*
X152974179Y-63860589D01*
X152974178Y-63860586D01*
X152914006Y-63790134D01*
X152819969Y-63680031D01*
X152651572Y-63536206D01*
X152639413Y-63525821D01*
X152639410Y-63525820D01*
X152436962Y-63401759D01*
X152436959Y-63401757D01*
X152217596Y-63310895D01*
X151986714Y-63255465D01*
X151750000Y-63236835D01*
X151513285Y-63255465D01*
X151282404Y-63310895D01*
X151282402Y-63310895D01*
X151063040Y-63401757D01*
X151063037Y-63401759D01*
X150860589Y-63525820D01*
X150860586Y-63525821D01*
X150680031Y-63680031D01*
X150525821Y-63860586D01*
X150525820Y-63860589D01*
X150401759Y-64063037D01*
X150401757Y-64063040D01*
X150310895Y-64282402D01*
X150310895Y-64282404D01*
X150255465Y-64513285D01*
X150236835Y-64750000D01*
X140983499Y-64750000D01*
X140983499Y-64349456D01*
X140972887Y-64245574D01*
X140917115Y-64077262D01*
X140824030Y-63926348D01*
X140698652Y-63800970D01*
X140698648Y-63800967D01*
X140551690Y-63710322D01*
X140504965Y-63658374D01*
X140493744Y-63589412D01*
X140521587Y-63525330D01*
X140529084Y-63517125D01*
X140661206Y-63385004D01*
X140786894Y-63212009D01*
X140883972Y-63021483D01*
X140950049Y-62818116D01*
X140983500Y-62606916D01*
X140983500Y-62409999D01*
X161221127Y-62409999D01*
X161221128Y-62410000D01*
X162184314Y-62410000D01*
X162179920Y-62414394D01*
X162127259Y-62505606D01*
X162100000Y-62607339D01*
X162100000Y-62712661D01*
X162127259Y-62814394D01*
X162179920Y-62905606D01*
X162184314Y-62910000D01*
X161221128Y-62910000D01*
X161273730Y-63106317D01*
X161273734Y-63106326D01*
X161369865Y-63312482D01*
X161500342Y-63498820D01*
X161661179Y-63659657D01*
X161847517Y-63790134D01*
X162053673Y-63886265D01*
X162053682Y-63886269D01*
X162249999Y-63938872D01*
X162250000Y-63938871D01*
X162250000Y-62975686D01*
X162254394Y-62980080D01*
X162345606Y-63032741D01*
X162447339Y-63060000D01*
X162552661Y-63060000D01*
X162654394Y-63032741D01*
X162745606Y-62980080D01*
X162750000Y-62975686D01*
X162750000Y-63938872D01*
X162946317Y-63886269D01*
X162946326Y-63886265D01*
X163152482Y-63790134D01*
X163338820Y-63659657D01*
X163499657Y-63498820D01*
X163630134Y-63312482D01*
X163726265Y-63106326D01*
X163726269Y-63106317D01*
X163778872Y-62910000D01*
X162815686Y-62910000D01*
X162820080Y-62905606D01*
X162872741Y-62814394D01*
X162900000Y-62712661D01*
X162900000Y-62607339D01*
X162872741Y-62505606D01*
X162820080Y-62414394D01*
X162815686Y-62410000D01*
X163778872Y-62410000D01*
X163778872Y-62409999D01*
X163726269Y-62213682D01*
X163726265Y-62213673D01*
X163630134Y-62007517D01*
X163499657Y-61821179D01*
X163338820Y-61660342D01*
X163152482Y-61529865D01*
X162946328Y-61433734D01*
X162750000Y-61381127D01*
X162750000Y-62344314D01*
X162745606Y-62339920D01*
X162654394Y-62287259D01*
X162552661Y-62260000D01*
X162447339Y-62260000D01*
X162345606Y-62287259D01*
X162254394Y-62339920D01*
X162250000Y-62344314D01*
X162250000Y-61381127D01*
X162053671Y-61433734D01*
X161847517Y-61529865D01*
X161661179Y-61660342D01*
X161500342Y-61821179D01*
X161369865Y-62007517D01*
X161273734Y-62213673D01*
X161273730Y-62213682D01*
X161221127Y-62409999D01*
X140983500Y-62409999D01*
X140983500Y-62393084D01*
X140950049Y-62181884D01*
X140883972Y-61978517D01*
X140883972Y-61978516D01*
X140834507Y-61881438D01*
X140786894Y-61787991D01*
X140661206Y-61614996D01*
X140510004Y-61463794D01*
X140346586Y-61345064D01*
X140303921Y-61289734D01*
X140297942Y-61220121D01*
X140330548Y-61158326D01*
X140346587Y-61144428D01*
X140504459Y-61029727D01*
X140504464Y-61029723D01*
X140654723Y-60879464D01*
X140654727Y-60879459D01*
X140779620Y-60707557D01*
X140876095Y-60518217D01*
X140941757Y-60316129D01*
X140941757Y-60316126D01*
X140952231Y-60250000D01*
X139904146Y-60250000D01*
X139942630Y-60183343D01*
X139975000Y-60062535D01*
X139975000Y-59937465D01*
X139942630Y-59816657D01*
X139904146Y-59750000D01*
X140952231Y-59750000D01*
X150736835Y-59750000D01*
X150755465Y-59986714D01*
X150810895Y-60217595D01*
X150810895Y-60217597D01*
X150901757Y-60436959D01*
X150901759Y-60436962D01*
X151025820Y-60639410D01*
X151025821Y-60639413D01*
X151025824Y-60639416D01*
X151180031Y-60819969D01*
X151249685Y-60879459D01*
X151360586Y-60974178D01*
X151360589Y-60974179D01*
X151563037Y-61098240D01*
X151563040Y-61098242D01*
X151782403Y-61189104D01*
X151782404Y-61189104D01*
X151782406Y-61189105D01*
X152013289Y-61244535D01*
X152250000Y-61263165D01*
X152486711Y-61244535D01*
X152717594Y-61189105D01*
X152717596Y-61189104D01*
X152717597Y-61189104D01*
X152936959Y-61098242D01*
X152936960Y-61098241D01*
X152936963Y-61098240D01*
X153139416Y-60974176D01*
X153319969Y-60819969D01*
X153474176Y-60639416D01*
X153598240Y-60436963D01*
X153621796Y-60380095D01*
X153689104Y-60217597D01*
X153689104Y-60217596D01*
X153689105Y-60217594D01*
X153744535Y-59986711D01*
X153763165Y-59750000D01*
X157236835Y-59750000D01*
X157255465Y-59986714D01*
X157310895Y-60217595D01*
X157310895Y-60217597D01*
X157401757Y-60436959D01*
X157401759Y-60436962D01*
X157525820Y-60639410D01*
X157525821Y-60639413D01*
X157525824Y-60639416D01*
X157680031Y-60819969D01*
X157749685Y-60879459D01*
X157860586Y-60974178D01*
X157860589Y-60974179D01*
X158063037Y-61098240D01*
X158063040Y-61098242D01*
X158282403Y-61189104D01*
X158282404Y-61189104D01*
X158282406Y-61189105D01*
X158513289Y-61244535D01*
X158750000Y-61263165D01*
X158986711Y-61244535D01*
X159217594Y-61189105D01*
X159217596Y-61189104D01*
X159217597Y-61189104D01*
X159436959Y-61098242D01*
X159436960Y-61098241D01*
X159436963Y-61098240D01*
X159639416Y-60974176D01*
X159819969Y-60819969D01*
X159974176Y-60639416D01*
X160098240Y-60436963D01*
X160121796Y-60380095D01*
X160189104Y-60217597D01*
X160189104Y-60217596D01*
X160189105Y-60217594D01*
X160244535Y-59986711D01*
X160263165Y-59750000D01*
X160244535Y-59513289D01*
X160189105Y-59282406D01*
X160189104Y-59282403D01*
X160189104Y-59282402D01*
X160098242Y-59063040D01*
X160098240Y-59063037D01*
X159974179Y-58860589D01*
X159974178Y-58860586D01*
X159878792Y-58748904D01*
X159819969Y-58680031D01*
X159700596Y-58578076D01*
X159639413Y-58525821D01*
X159639410Y-58525820D01*
X159436962Y-58401759D01*
X159436959Y-58401757D01*
X159217596Y-58310895D01*
X158986714Y-58255465D01*
X158750000Y-58236835D01*
X158513285Y-58255465D01*
X158282404Y-58310895D01*
X158282402Y-58310895D01*
X158063040Y-58401757D01*
X158063037Y-58401759D01*
X157860589Y-58525820D01*
X157860586Y-58525821D01*
X157680031Y-58680031D01*
X157525821Y-58860586D01*
X157525820Y-58860589D01*
X157401759Y-59063037D01*
X157401757Y-59063040D01*
X157310895Y-59282402D01*
X157310895Y-59282404D01*
X157255465Y-59513285D01*
X157236835Y-59750000D01*
X153763165Y-59750000D01*
X153744535Y-59513289D01*
X153689105Y-59282406D01*
X153689104Y-59282403D01*
X153689104Y-59282402D01*
X153598242Y-59063040D01*
X153598240Y-59063037D01*
X153474179Y-58860589D01*
X153474178Y-58860586D01*
X153378792Y-58748904D01*
X153319969Y-58680031D01*
X153200596Y-58578076D01*
X153139413Y-58525821D01*
X153139410Y-58525820D01*
X152936962Y-58401759D01*
X152936959Y-58401757D01*
X152717596Y-58310895D01*
X152486714Y-58255465D01*
X152250000Y-58236835D01*
X152013285Y-58255465D01*
X151782404Y-58310895D01*
X151782402Y-58310895D01*
X151563040Y-58401757D01*
X151563037Y-58401759D01*
X151360589Y-58525820D01*
X151360586Y-58525821D01*
X151180031Y-58680031D01*
X151025821Y-58860586D01*
X151025820Y-58860589D01*
X150901759Y-59063037D01*
X150901757Y-59063040D01*
X150810895Y-59282402D01*
X150810895Y-59282404D01*
X150755465Y-59513285D01*
X150736835Y-59750000D01*
X140952231Y-59750000D01*
X140941757Y-59683873D01*
X140941757Y-59683870D01*
X140876095Y-59481782D01*
X140779620Y-59292442D01*
X140654727Y-59120540D01*
X140654723Y-59120535D01*
X140504464Y-58970276D01*
X140504459Y-58970272D01*
X140332557Y-58845379D01*
X140143217Y-58748904D01*
X139941128Y-58683242D01*
X139750000Y-58652969D01*
X139750000Y-59595854D01*
X139683343Y-59557370D01*
X139562535Y-59525000D01*
X139437465Y-59525000D01*
X139316657Y-59557370D01*
X139250000Y-59595854D01*
X139250000Y-58652969D01*
X139058872Y-58683242D01*
X139058869Y-58683242D01*
X138856782Y-58748904D01*
X138667442Y-58845379D01*
X138495540Y-58970272D01*
X138495535Y-58970276D01*
X138345276Y-59120535D01*
X138345272Y-59120540D01*
X138220379Y-59292442D01*
X138123904Y-59481782D01*
X138058242Y-59683870D01*
X138058242Y-59683873D01*
X138047769Y-59750000D01*
X139095854Y-59750000D01*
X139057370Y-59816657D01*
X139025000Y-59937465D01*
X139025000Y-60062535D01*
X139057370Y-60183343D01*
X139095854Y-60250000D01*
X138047769Y-60250000D01*
X138058242Y-60316126D01*
X138058242Y-60316129D01*
X138123904Y-60518217D01*
X138220379Y-60707557D01*
X138345272Y-60879459D01*
X138345276Y-60879464D01*
X138495535Y-61029723D01*
X138495540Y-61029727D01*
X138653412Y-61144428D01*
X138696078Y-61199758D01*
X138702057Y-61269371D01*
X138669451Y-61331166D01*
X138653413Y-61345064D01*
X138555769Y-61416006D01*
X138489996Y-61463794D01*
X138489994Y-61463796D01*
X138489993Y-61463796D01*
X138338796Y-61614993D01*
X138213106Y-61787990D01*
X138116027Y-61978516D01*
X138116026Y-61978519D01*
X138049951Y-62181882D01*
X138016500Y-62393084D01*
X100075500Y-62393084D01*
X100075500Y-60499998D01*
X123106502Y-60499998D01*
X123106502Y-60500001D01*
X123126456Y-60728081D01*
X123126457Y-60728089D01*
X123185714Y-60949238D01*
X123185718Y-60949249D01*
X123282475Y-61156745D01*
X123282477Y-61156749D01*
X123413802Y-61344300D01*
X123575700Y-61506198D01*
X123763251Y-61637523D01*
X123812187Y-61660342D01*
X123970750Y-61734281D01*
X123970752Y-61734281D01*
X123970757Y-61734284D01*
X124191913Y-61793543D01*
X124354832Y-61807796D01*
X124419998Y-61813498D01*
X124420000Y-61813498D01*
X124420002Y-61813498D01*
X124477021Y-61808509D01*
X124648087Y-61793543D01*
X124869243Y-61734284D01*
X125076749Y-61637523D01*
X125264300Y-61506198D01*
X125426198Y-61344300D01*
X125557523Y-61156749D01*
X125654284Y-60949243D01*
X125713543Y-60728087D01*
X125733498Y-60500000D01*
X125733498Y-60499998D01*
X133266502Y-60499998D01*
X133266502Y-60500001D01*
X133286456Y-60728081D01*
X133286457Y-60728089D01*
X133345714Y-60949238D01*
X133345718Y-60949249D01*
X133442475Y-61156745D01*
X133442477Y-61156749D01*
X133573802Y-61344300D01*
X133735700Y-61506198D01*
X133923251Y-61637523D01*
X133972187Y-61660342D01*
X134130750Y-61734281D01*
X134130752Y-61734281D01*
X134130757Y-61734284D01*
X134351913Y-61793543D01*
X134514832Y-61807796D01*
X134579998Y-61813498D01*
X134580000Y-61813498D01*
X134580002Y-61813498D01*
X134637021Y-61808509D01*
X134808087Y-61793543D01*
X135029243Y-61734284D01*
X135236749Y-61637523D01*
X135424300Y-61506198D01*
X135586198Y-61344300D01*
X135717523Y-61156749D01*
X135814284Y-60949243D01*
X135873543Y-60728087D01*
X135893498Y-60500000D01*
X135873543Y-60271913D01*
X135814284Y-60050757D01*
X135784420Y-59986714D01*
X135717524Y-59843254D01*
X135717523Y-59843252D01*
X135717523Y-59843251D01*
X135586198Y-59655700D01*
X135424300Y-59493802D01*
X135236749Y-59362477D01*
X135199231Y-59344982D01*
X135029249Y-59265718D01*
X135029238Y-59265714D01*
X134808089Y-59206457D01*
X134808081Y-59206456D01*
X134580002Y-59186502D01*
X134579998Y-59186502D01*
X134351918Y-59206456D01*
X134351910Y-59206457D01*
X134130761Y-59265714D01*
X134130750Y-59265718D01*
X133923254Y-59362475D01*
X133923252Y-59362476D01*
X133865711Y-59402767D01*
X133735700Y-59493802D01*
X133735698Y-59493803D01*
X133735695Y-59493806D01*
X133573806Y-59655695D01*
X133442476Y-59843252D01*
X133442475Y-59843254D01*
X133345718Y-60050750D01*
X133345714Y-60050761D01*
X133286457Y-60271910D01*
X133286456Y-60271918D01*
X133266502Y-60499998D01*
X125733498Y-60499998D01*
X125713543Y-60271913D01*
X125654284Y-60050757D01*
X125624420Y-59986714D01*
X125557524Y-59843254D01*
X125557523Y-59843252D01*
X125557523Y-59843251D01*
X125426198Y-59655700D01*
X125264300Y-59493802D01*
X125076749Y-59362477D01*
X125039231Y-59344982D01*
X124869249Y-59265718D01*
X124869238Y-59265714D01*
X124648089Y-59206457D01*
X124648081Y-59206456D01*
X124420002Y-59186502D01*
X124419998Y-59186502D01*
X124191918Y-59206456D01*
X124191910Y-59206457D01*
X123970761Y-59265714D01*
X123970750Y-59265718D01*
X123763254Y-59362475D01*
X123763252Y-59362476D01*
X123705711Y-59402767D01*
X123575700Y-59493802D01*
X123575698Y-59493803D01*
X123575695Y-59493806D01*
X123413806Y-59655695D01*
X123282476Y-59843252D01*
X123282475Y-59843254D01*
X123185718Y-60050750D01*
X123185714Y-60050761D01*
X123126457Y-60271910D01*
X123126456Y-60271918D01*
X123106502Y-60499998D01*
X100075500Y-60499998D01*
X100075500Y-55250000D01*
X150736835Y-55250000D01*
X150755465Y-55486714D01*
X150810895Y-55717595D01*
X150810895Y-55717597D01*
X150901757Y-55936959D01*
X150901759Y-55936962D01*
X151025820Y-56139410D01*
X151025821Y-56139413D01*
X151025824Y-56139416D01*
X151180031Y-56319969D01*
X151319797Y-56439340D01*
X151360586Y-56474178D01*
X151360589Y-56474179D01*
X151563037Y-56598240D01*
X151563040Y-56598242D01*
X151782403Y-56689104D01*
X151782404Y-56689104D01*
X151782406Y-56689105D01*
X152013289Y-56744535D01*
X152250000Y-56763165D01*
X152486711Y-56744535D01*
X152717594Y-56689105D01*
X152717596Y-56689104D01*
X152717597Y-56689104D01*
X152936959Y-56598242D01*
X152936960Y-56598241D01*
X152936963Y-56598240D01*
X153139416Y-56474176D01*
X153319969Y-56319969D01*
X153474176Y-56139416D01*
X153598240Y-55936963D01*
X153689105Y-55717594D01*
X153744535Y-55486711D01*
X153763165Y-55250000D01*
X157236835Y-55250000D01*
X157255465Y-55486714D01*
X157310895Y-55717595D01*
X157310895Y-55717597D01*
X157401757Y-55936959D01*
X157401759Y-55936962D01*
X157525820Y-56139410D01*
X157525821Y-56139413D01*
X157525824Y-56139416D01*
X157680031Y-56319969D01*
X157819797Y-56439340D01*
X157860586Y-56474178D01*
X157860589Y-56474179D01*
X158063037Y-56598240D01*
X158063040Y-56598242D01*
X158282403Y-56689104D01*
X158282404Y-56689104D01*
X158282406Y-56689105D01*
X158513289Y-56744535D01*
X158750000Y-56763165D01*
X158986711Y-56744535D01*
X159217594Y-56689105D01*
X159217596Y-56689104D01*
X159217597Y-56689104D01*
X159436959Y-56598242D01*
X159436960Y-56598241D01*
X159436963Y-56598240D01*
X159639416Y-56474176D01*
X159819969Y-56319969D01*
X159974176Y-56139416D01*
X160098240Y-55936963D01*
X160189105Y-55717594D01*
X160244535Y-55486711D01*
X160263165Y-55250000D01*
X160244535Y-55013289D01*
X160189105Y-54782406D01*
X160189104Y-54782403D01*
X160189104Y-54782402D01*
X160098242Y-54563040D01*
X160098240Y-54563037D01*
X159974179Y-54360589D01*
X159974178Y-54360586D01*
X159939340Y-54319797D01*
X159819969Y-54180031D01*
X159700596Y-54078076D01*
X159639413Y-54025821D01*
X159639410Y-54025820D01*
X159436962Y-53901759D01*
X159436959Y-53901757D01*
X159217596Y-53810895D01*
X158986714Y-53755465D01*
X158750000Y-53736835D01*
X158513285Y-53755465D01*
X158282404Y-53810895D01*
X158282402Y-53810895D01*
X158063040Y-53901757D01*
X158063037Y-53901759D01*
X157860589Y-54025820D01*
X157860586Y-54025821D01*
X157680031Y-54180031D01*
X157525821Y-54360586D01*
X157525820Y-54360589D01*
X157401759Y-54563037D01*
X157401757Y-54563040D01*
X157310895Y-54782402D01*
X157310895Y-54782404D01*
X157255465Y-55013285D01*
X157236835Y-55250000D01*
X153763165Y-55250000D01*
X153744535Y-55013289D01*
X153689105Y-54782406D01*
X153689104Y-54782403D01*
X153689104Y-54782402D01*
X153598242Y-54563040D01*
X153598240Y-54563037D01*
X153474179Y-54360589D01*
X153474178Y-54360586D01*
X153439340Y-54319797D01*
X153319969Y-54180031D01*
X153200596Y-54078076D01*
X153139413Y-54025821D01*
X153139410Y-54025820D01*
X152936962Y-53901759D01*
X152936959Y-53901757D01*
X152717596Y-53810895D01*
X152486714Y-53755465D01*
X152250000Y-53736835D01*
X152013285Y-53755465D01*
X151782404Y-53810895D01*
X151782402Y-53810895D01*
X151563040Y-53901757D01*
X151563037Y-53901759D01*
X151360589Y-54025820D01*
X151360586Y-54025821D01*
X151180031Y-54180031D01*
X151025821Y-54360586D01*
X151025820Y-54360589D01*
X150901759Y-54563037D01*
X150901757Y-54563040D01*
X150810895Y-54782402D01*
X150810895Y-54782404D01*
X150755465Y-55013285D01*
X150736835Y-55250000D01*
X100075500Y-55250000D01*
X100075500Y-52499998D01*
X161186502Y-52499998D01*
X161186502Y-52500001D01*
X161206456Y-52728081D01*
X161206457Y-52728089D01*
X161265714Y-52949238D01*
X161265718Y-52949249D01*
X161362475Y-53156745D01*
X161362477Y-53156749D01*
X161493802Y-53344300D01*
X161655700Y-53506198D01*
X161843251Y-53637523D01*
X161968091Y-53695736D01*
X162050750Y-53734281D01*
X162050752Y-53734281D01*
X162050757Y-53734284D01*
X162271913Y-53793543D01*
X162434832Y-53807796D01*
X162499998Y-53813498D01*
X162500000Y-53813498D01*
X162500002Y-53813498D01*
X162557021Y-53808509D01*
X162728087Y-53793543D01*
X162949243Y-53734284D01*
X163156749Y-53637523D01*
X163344300Y-53506198D01*
X163506198Y-53344300D01*
X163637523Y-53156749D01*
X163734284Y-52949243D01*
X163793543Y-52728087D01*
X163813498Y-52500000D01*
X163793543Y-52271913D01*
X163734284Y-52050757D01*
X163637523Y-51843251D01*
X163506198Y-51655700D01*
X163344300Y-51493802D01*
X163156749Y-51362477D01*
X163156745Y-51362475D01*
X162949249Y-51265718D01*
X162949238Y-51265714D01*
X162728089Y-51206457D01*
X162728081Y-51206456D01*
X162500002Y-51186502D01*
X162499998Y-51186502D01*
X162271918Y-51206456D01*
X162271910Y-51206457D01*
X162050761Y-51265714D01*
X162050750Y-51265718D01*
X161843254Y-51362475D01*
X161843252Y-51362476D01*
X161843251Y-51362477D01*
X161655700Y-51493802D01*
X161655698Y-51493803D01*
X161655695Y-51493806D01*
X161493806Y-51655695D01*
X161362476Y-51843252D01*
X161362475Y-51843254D01*
X161265718Y-52050750D01*
X161265714Y-52050761D01*
X161206457Y-52271910D01*
X161206456Y-52271918D01*
X161186502Y-52499998D01*
X100075500Y-52499998D01*
X100075500Y-48301345D01*
X117437500Y-48301345D01*
X117437500Y-50098654D01*
X117444011Y-50159202D01*
X117444011Y-50159204D01*
X117495111Y-50296204D01*
X117582739Y-50413261D01*
X117699796Y-50500889D01*
X117836799Y-50551989D01*
X117864050Y-50554918D01*
X117897345Y-50558499D01*
X117897362Y-50558500D01*
X119694638Y-50558500D01*
X119694654Y-50558499D01*
X119721692Y-50555591D01*
X119755201Y-50551989D01*
X119892204Y-50500889D01*
X120009261Y-50413261D01*
X120096889Y-50296204D01*
X120142138Y-50174887D01*
X120184009Y-50118956D01*
X120249474Y-50094539D01*
X120317746Y-50109391D01*
X120349545Y-50134236D01*
X120412760Y-50202906D01*
X120590424Y-50341189D01*
X120590425Y-50341189D01*
X120590427Y-50341191D01*
X120650314Y-50373600D01*
X120788426Y-50448342D01*
X121001365Y-50521444D01*
X121223431Y-50558500D01*
X121448569Y-50558500D01*
X121670635Y-50521444D01*
X121883574Y-50448342D01*
X122081576Y-50341189D01*
X122259240Y-50202906D01*
X122380594Y-50071082D01*
X122411715Y-50037276D01*
X122411715Y-50037275D01*
X122411722Y-50037268D01*
X122502193Y-49898790D01*
X122555338Y-49853437D01*
X122624569Y-49844013D01*
X122687905Y-49873515D01*
X122709804Y-49898787D01*
X122800278Y-50037268D01*
X122800283Y-50037273D01*
X122800284Y-50037276D01*
X122926968Y-50174889D01*
X122952760Y-50202906D01*
X123130424Y-50341189D01*
X123130425Y-50341189D01*
X123130427Y-50341191D01*
X123190314Y-50373600D01*
X123328426Y-50448342D01*
X123541365Y-50521444D01*
X123763431Y-50558500D01*
X123988569Y-50558500D01*
X124210635Y-50521444D01*
X124423574Y-50448342D01*
X124621576Y-50341189D01*
X124799240Y-50202906D01*
X124920594Y-50071082D01*
X124951715Y-50037276D01*
X124951715Y-50037275D01*
X124951722Y-50037268D01*
X125045749Y-49893347D01*
X125098894Y-49847994D01*
X125168125Y-49838570D01*
X125231461Y-49868072D01*
X125251130Y-49890048D01*
X125377890Y-50071078D01*
X125544917Y-50238105D01*
X125738421Y-50373600D01*
X125952507Y-50473429D01*
X125952516Y-50473433D01*
X126166000Y-50530634D01*
X126166000Y-49633012D01*
X126223007Y-49665925D01*
X126350174Y-49700000D01*
X126481826Y-49700000D01*
X126608993Y-49665925D01*
X126666000Y-49633012D01*
X126666000Y-50530633D01*
X126879483Y-50473433D01*
X126879492Y-50473429D01*
X127093578Y-50373600D01*
X127287082Y-50238105D01*
X127454105Y-50071082D01*
X127580868Y-49890048D01*
X127635445Y-49846423D01*
X127704944Y-49839231D01*
X127767298Y-49870753D01*
X127786251Y-49893350D01*
X127880276Y-50037265D01*
X127880284Y-50037276D01*
X128006968Y-50174889D01*
X128032760Y-50202906D01*
X128210424Y-50341189D01*
X128210425Y-50341189D01*
X128210427Y-50341191D01*
X128270314Y-50373600D01*
X128408426Y-50448342D01*
X128621365Y-50521444D01*
X128843431Y-50558500D01*
X129068569Y-50558500D01*
X129290635Y-50521444D01*
X129503574Y-50448342D01*
X129701576Y-50341189D01*
X129879240Y-50202906D01*
X130000594Y-50071082D01*
X130031715Y-50037276D01*
X130031715Y-50037275D01*
X130031722Y-50037268D01*
X130122193Y-49898790D01*
X130175338Y-49853437D01*
X130244569Y-49844013D01*
X130307905Y-49873515D01*
X130329804Y-49898787D01*
X130420278Y-50037268D01*
X130420283Y-50037273D01*
X130420284Y-50037276D01*
X130546968Y-50174889D01*
X130572760Y-50202906D01*
X130750424Y-50341189D01*
X130750425Y-50341189D01*
X130750427Y-50341191D01*
X130810314Y-50373600D01*
X130948426Y-50448342D01*
X131161365Y-50521444D01*
X131383431Y-50558500D01*
X131608569Y-50558500D01*
X131830635Y-50521444D01*
X132043574Y-50448342D01*
X132241576Y-50341189D01*
X132419240Y-50202906D01*
X132540594Y-50071082D01*
X132571715Y-50037276D01*
X132571715Y-50037275D01*
X132571722Y-50037268D01*
X132662193Y-49898790D01*
X132715338Y-49853437D01*
X132784569Y-49844013D01*
X132847905Y-49873515D01*
X132869804Y-49898787D01*
X132960278Y-50037268D01*
X132960283Y-50037273D01*
X132960284Y-50037276D01*
X133086968Y-50174889D01*
X133112760Y-50202906D01*
X133290424Y-50341189D01*
X133290425Y-50341189D01*
X133290427Y-50341191D01*
X133350314Y-50373600D01*
X133488426Y-50448342D01*
X133701365Y-50521444D01*
X133923431Y-50558500D01*
X134148569Y-50558500D01*
X134370635Y-50521444D01*
X134583574Y-50448342D01*
X134781576Y-50341189D01*
X134959240Y-50202906D01*
X135080594Y-50071082D01*
X135111715Y-50037276D01*
X135111715Y-50037275D01*
X135111722Y-50037268D01*
X135202193Y-49898790D01*
X135255338Y-49853437D01*
X135324569Y-49844013D01*
X135387905Y-49873515D01*
X135409804Y-49898787D01*
X135500278Y-50037268D01*
X135500283Y-50037273D01*
X135500284Y-50037276D01*
X135626968Y-50174889D01*
X135652760Y-50202906D01*
X135830424Y-50341189D01*
X135830425Y-50341189D01*
X135830427Y-50341191D01*
X135890314Y-50373600D01*
X136028426Y-50448342D01*
X136241365Y-50521444D01*
X136463431Y-50558500D01*
X136688569Y-50558500D01*
X136910635Y-50521444D01*
X137123574Y-50448342D01*
X137321576Y-50341189D01*
X137499240Y-50202906D01*
X137620594Y-50071082D01*
X137651715Y-50037276D01*
X137651715Y-50037275D01*
X137651722Y-50037268D01*
X137742193Y-49898790D01*
X137795338Y-49853437D01*
X137864569Y-49844013D01*
X137927905Y-49873515D01*
X137949804Y-49898787D01*
X138040278Y-50037268D01*
X138040283Y-50037273D01*
X138040284Y-50037276D01*
X138166968Y-50174889D01*
X138192760Y-50202906D01*
X138370424Y-50341189D01*
X138370425Y-50341189D01*
X138370427Y-50341191D01*
X138430314Y-50373600D01*
X138568426Y-50448342D01*
X138781365Y-50521444D01*
X139003431Y-50558500D01*
X139228569Y-50558500D01*
X139450635Y-50521444D01*
X139663574Y-50448342D01*
X139861576Y-50341189D01*
X140039240Y-50202906D01*
X140160594Y-50071082D01*
X140191715Y-50037276D01*
X140191715Y-50037275D01*
X140191722Y-50037268D01*
X140282193Y-49898790D01*
X140335338Y-49853437D01*
X140404569Y-49844013D01*
X140467905Y-49873515D01*
X140489804Y-49898787D01*
X140580278Y-50037268D01*
X140580283Y-50037273D01*
X140580284Y-50037276D01*
X140706968Y-50174889D01*
X140732760Y-50202906D01*
X140910424Y-50341189D01*
X140910425Y-50341189D01*
X140910427Y-50341191D01*
X140970314Y-50373600D01*
X141108426Y-50448342D01*
X141321365Y-50521444D01*
X141543431Y-50558500D01*
X141768569Y-50558500D01*
X141990635Y-50521444D01*
X142203574Y-50448342D01*
X142401576Y-50341189D01*
X142579240Y-50202906D01*
X142700594Y-50071082D01*
X142731715Y-50037276D01*
X142731717Y-50037273D01*
X142731722Y-50037268D01*
X142854860Y-49848791D01*
X142945296Y-49642616D01*
X143000564Y-49424368D01*
X143012309Y-49282635D01*
X143019156Y-49200005D01*
X143019156Y-49199994D01*
X143000565Y-48975640D01*
X143000563Y-48975628D01*
X142945296Y-48757385D01*
X142935071Y-48734075D01*
X142854860Y-48551209D01*
X142838706Y-48526484D01*
X142731723Y-48362734D01*
X142731715Y-48362723D01*
X142675212Y-48301345D01*
X144361500Y-48301345D01*
X144361500Y-50098654D01*
X144368011Y-50159202D01*
X144368011Y-50159204D01*
X144419111Y-50296204D01*
X144506739Y-50413261D01*
X144623796Y-50500889D01*
X144760799Y-50551989D01*
X144788050Y-50554918D01*
X144821345Y-50558499D01*
X144821362Y-50558500D01*
X146618638Y-50558500D01*
X146618654Y-50558499D01*
X146645692Y-50555591D01*
X146679201Y-50551989D01*
X146816204Y-50500889D01*
X146933261Y-50413261D01*
X147020889Y-50296204D01*
X147066138Y-50174887D01*
X147108009Y-50118956D01*
X147173474Y-50094539D01*
X147241746Y-50109391D01*
X147273545Y-50134236D01*
X147336760Y-50202906D01*
X147514424Y-50341189D01*
X147514425Y-50341189D01*
X147514427Y-50341191D01*
X147574314Y-50373600D01*
X147712426Y-50448342D01*
X147925365Y-50521444D01*
X148147431Y-50558500D01*
X148372569Y-50558500D01*
X148594635Y-50521444D01*
X148807574Y-50448342D01*
X149005576Y-50341189D01*
X149183240Y-50202906D01*
X149304594Y-50071082D01*
X149335715Y-50037276D01*
X149335715Y-50037275D01*
X149335722Y-50037268D01*
X149426193Y-49898790D01*
X149479338Y-49853437D01*
X149548569Y-49844013D01*
X149611905Y-49873515D01*
X149633804Y-49898787D01*
X149724278Y-50037268D01*
X149724283Y-50037273D01*
X149724284Y-50037276D01*
X149850968Y-50174889D01*
X149876760Y-50202906D01*
X150054424Y-50341189D01*
X150054425Y-50341189D01*
X150054427Y-50341191D01*
X150114314Y-50373600D01*
X150252426Y-50448342D01*
X150465365Y-50521444D01*
X150687431Y-50558500D01*
X150912569Y-50558500D01*
X151134635Y-50521444D01*
X151347574Y-50448342D01*
X151545576Y-50341189D01*
X151723240Y-50202906D01*
X151844594Y-50071082D01*
X151875715Y-50037276D01*
X151875715Y-50037275D01*
X151875722Y-50037268D01*
X151966193Y-49898790D01*
X152019338Y-49853437D01*
X152088569Y-49844013D01*
X152151905Y-49873515D01*
X152173804Y-49898787D01*
X152264278Y-50037268D01*
X152264283Y-50037273D01*
X152264284Y-50037276D01*
X152390968Y-50174889D01*
X152416760Y-50202906D01*
X152594424Y-50341189D01*
X152594425Y-50341189D01*
X152594427Y-50341191D01*
X152654314Y-50373600D01*
X152792426Y-50448342D01*
X153005365Y-50521444D01*
X153227431Y-50558500D01*
X153452569Y-50558500D01*
X153674635Y-50521444D01*
X153887574Y-50448342D01*
X154085576Y-50341189D01*
X154263240Y-50202906D01*
X154384594Y-50071082D01*
X154415715Y-50037276D01*
X154415715Y-50037275D01*
X154415722Y-50037268D01*
X154506193Y-49898790D01*
X154559338Y-49853437D01*
X154628569Y-49844013D01*
X154691905Y-49873515D01*
X154713804Y-49898787D01*
X154804278Y-50037268D01*
X154804283Y-50037273D01*
X154804284Y-50037276D01*
X154930968Y-50174889D01*
X154956760Y-50202906D01*
X155134424Y-50341189D01*
X155134425Y-50341189D01*
X155134427Y-50341191D01*
X155194314Y-50373600D01*
X155332426Y-50448342D01*
X155545365Y-50521444D01*
X155767431Y-50558500D01*
X155992569Y-50558500D01*
X156214635Y-50521444D01*
X156427574Y-50448342D01*
X156625576Y-50341189D01*
X156803240Y-50202906D01*
X156924594Y-50071082D01*
X156955715Y-50037276D01*
X156955715Y-50037275D01*
X156955722Y-50037268D01*
X157046193Y-49898790D01*
X157099338Y-49853437D01*
X157168569Y-49844013D01*
X157231905Y-49873515D01*
X157253804Y-49898787D01*
X157344278Y-50037268D01*
X157344283Y-50037273D01*
X157344284Y-50037276D01*
X157470968Y-50174889D01*
X157496760Y-50202906D01*
X157674424Y-50341189D01*
X157674425Y-50341189D01*
X157674427Y-50341191D01*
X157734314Y-50373600D01*
X157872426Y-50448342D01*
X158085365Y-50521444D01*
X158307431Y-50558500D01*
X158532569Y-50558500D01*
X158754635Y-50521444D01*
X158967574Y-50448342D01*
X159165576Y-50341189D01*
X159343240Y-50202906D01*
X159464594Y-50071082D01*
X159495715Y-50037276D01*
X159495715Y-50037275D01*
X159495722Y-50037268D01*
X159586193Y-49898790D01*
X159639338Y-49853437D01*
X159708569Y-49844013D01*
X159771905Y-49873515D01*
X159793804Y-49898787D01*
X159884278Y-50037268D01*
X159884283Y-50037273D01*
X159884284Y-50037276D01*
X160010968Y-50174889D01*
X160036760Y-50202906D01*
X160214424Y-50341189D01*
X160214425Y-50341189D01*
X160214427Y-50341191D01*
X160274314Y-50373600D01*
X160412426Y-50448342D01*
X160625365Y-50521444D01*
X160847431Y-50558500D01*
X161072569Y-50558500D01*
X161294635Y-50521444D01*
X161507574Y-50448342D01*
X161705576Y-50341189D01*
X161883240Y-50202906D01*
X162004594Y-50071082D01*
X162035715Y-50037276D01*
X162035715Y-50037275D01*
X162035722Y-50037268D01*
X162126193Y-49898790D01*
X162179338Y-49853437D01*
X162248569Y-49844013D01*
X162311905Y-49873515D01*
X162333804Y-49898787D01*
X162424278Y-50037268D01*
X162424283Y-50037273D01*
X162424284Y-50037276D01*
X162550968Y-50174889D01*
X162576760Y-50202906D01*
X162754424Y-50341189D01*
X162754425Y-50341189D01*
X162754427Y-50341191D01*
X162814314Y-50373600D01*
X162952426Y-50448342D01*
X163165365Y-50521444D01*
X163387431Y-50558500D01*
X163612569Y-50558500D01*
X163834635Y-50521444D01*
X164047574Y-50448342D01*
X164245576Y-50341189D01*
X164423240Y-50202906D01*
X164544594Y-50071082D01*
X164575715Y-50037276D01*
X164575717Y-50037273D01*
X164575722Y-50037268D01*
X164698860Y-49848791D01*
X164789296Y-49642616D01*
X164844564Y-49424368D01*
X164856309Y-49282635D01*
X164863156Y-49200005D01*
X164863156Y-49199994D01*
X164844565Y-48975640D01*
X164844563Y-48975628D01*
X164789296Y-48757385D01*
X164779071Y-48734075D01*
X164698860Y-48551209D01*
X164682706Y-48526484D01*
X164575723Y-48362734D01*
X164575715Y-48362723D01*
X164423243Y-48197097D01*
X164423238Y-48197092D01*
X164245577Y-48058812D01*
X164245572Y-48058808D01*
X164047580Y-47951661D01*
X164047577Y-47951659D01*
X164047574Y-47951658D01*
X164047571Y-47951657D01*
X164047569Y-47951656D01*
X163834637Y-47878556D01*
X163612569Y-47841500D01*
X163387431Y-47841500D01*
X163165362Y-47878556D01*
X162952430Y-47951656D01*
X162952419Y-47951661D01*
X162754427Y-48058808D01*
X162754422Y-48058812D01*
X162576761Y-48197092D01*
X162576756Y-48197097D01*
X162424284Y-48362723D01*
X162424276Y-48362734D01*
X162333808Y-48501206D01*
X162280662Y-48546562D01*
X162211431Y-48555986D01*
X162148095Y-48526484D01*
X162126192Y-48501206D01*
X162035723Y-48362734D01*
X162035715Y-48362723D01*
X161883243Y-48197097D01*
X161883238Y-48197092D01*
X161705577Y-48058812D01*
X161705572Y-48058808D01*
X161507580Y-47951661D01*
X161507577Y-47951659D01*
X161507574Y-47951658D01*
X161507571Y-47951657D01*
X161507569Y-47951656D01*
X161294637Y-47878556D01*
X161072569Y-47841500D01*
X160847431Y-47841500D01*
X160625362Y-47878556D01*
X160412430Y-47951656D01*
X160412419Y-47951661D01*
X160214427Y-48058808D01*
X160214422Y-48058812D01*
X160036761Y-48197092D01*
X160036756Y-48197097D01*
X159884284Y-48362723D01*
X159884276Y-48362734D01*
X159793808Y-48501206D01*
X159740662Y-48546562D01*
X159671431Y-48555986D01*
X159608095Y-48526484D01*
X159586192Y-48501206D01*
X159495723Y-48362734D01*
X159495715Y-48362723D01*
X159343243Y-48197097D01*
X159343238Y-48197092D01*
X159165577Y-48058812D01*
X159165572Y-48058808D01*
X158967580Y-47951661D01*
X158967577Y-47951659D01*
X158967574Y-47951658D01*
X158967571Y-47951657D01*
X158967569Y-47951656D01*
X158754637Y-47878556D01*
X158532569Y-47841500D01*
X158307431Y-47841500D01*
X158085362Y-47878556D01*
X157872430Y-47951656D01*
X157872419Y-47951661D01*
X157674427Y-48058808D01*
X157674422Y-48058812D01*
X157496761Y-48197092D01*
X157496756Y-48197097D01*
X157344284Y-48362723D01*
X157344276Y-48362734D01*
X157253808Y-48501206D01*
X157200662Y-48546562D01*
X157131431Y-48555986D01*
X157068095Y-48526484D01*
X157046192Y-48501206D01*
X156955723Y-48362734D01*
X156955715Y-48362723D01*
X156803243Y-48197097D01*
X156803238Y-48197092D01*
X156625577Y-48058812D01*
X156625572Y-48058808D01*
X156427580Y-47951661D01*
X156427577Y-47951659D01*
X156427574Y-47951658D01*
X156427571Y-47951657D01*
X156427569Y-47951656D01*
X156214637Y-47878556D01*
X155992569Y-47841500D01*
X155767431Y-47841500D01*
X155545362Y-47878556D01*
X155332430Y-47951656D01*
X155332419Y-47951661D01*
X155134427Y-48058808D01*
X155134422Y-48058812D01*
X154956761Y-48197092D01*
X154956756Y-48197097D01*
X154804284Y-48362723D01*
X154804276Y-48362734D01*
X154713808Y-48501206D01*
X154660662Y-48546562D01*
X154591431Y-48555986D01*
X154528095Y-48526484D01*
X154506192Y-48501206D01*
X154415723Y-48362734D01*
X154415715Y-48362723D01*
X154263243Y-48197097D01*
X154263238Y-48197092D01*
X154085577Y-48058812D01*
X154085572Y-48058808D01*
X153887580Y-47951661D01*
X153887577Y-47951659D01*
X153887574Y-47951658D01*
X153887571Y-47951657D01*
X153887569Y-47951656D01*
X153674637Y-47878556D01*
X153452569Y-47841500D01*
X153227431Y-47841500D01*
X153005362Y-47878556D01*
X152792430Y-47951656D01*
X152792419Y-47951661D01*
X152594427Y-48058808D01*
X152594422Y-48058812D01*
X152416761Y-48197092D01*
X152416756Y-48197097D01*
X152264284Y-48362723D01*
X152264276Y-48362734D01*
X152173808Y-48501206D01*
X152120662Y-48546562D01*
X152051431Y-48555986D01*
X151988095Y-48526484D01*
X151966192Y-48501206D01*
X151875723Y-48362734D01*
X151875715Y-48362723D01*
X151723243Y-48197097D01*
X151723238Y-48197092D01*
X151545577Y-48058812D01*
X151545572Y-48058808D01*
X151347580Y-47951661D01*
X151347577Y-47951659D01*
X151347574Y-47951658D01*
X151347571Y-47951657D01*
X151347569Y-47951656D01*
X151134637Y-47878556D01*
X150912569Y-47841500D01*
X150687431Y-47841500D01*
X150465362Y-47878556D01*
X150252430Y-47951656D01*
X150252419Y-47951661D01*
X150054427Y-48058808D01*
X150054422Y-48058812D01*
X149876761Y-48197092D01*
X149876756Y-48197097D01*
X149724284Y-48362723D01*
X149724276Y-48362734D01*
X149633808Y-48501206D01*
X149580662Y-48546562D01*
X149511431Y-48555986D01*
X149448095Y-48526484D01*
X149426192Y-48501206D01*
X149335723Y-48362734D01*
X149335715Y-48362723D01*
X149183243Y-48197097D01*
X149183238Y-48197092D01*
X149005577Y-48058812D01*
X149005572Y-48058808D01*
X148807580Y-47951661D01*
X148807577Y-47951659D01*
X148807574Y-47951658D01*
X148807571Y-47951657D01*
X148807569Y-47951656D01*
X148594637Y-47878556D01*
X148372569Y-47841500D01*
X148147431Y-47841500D01*
X147925362Y-47878556D01*
X147712430Y-47951656D01*
X147712419Y-47951661D01*
X147514427Y-48058808D01*
X147514422Y-48058812D01*
X147336761Y-48197092D01*
X147273548Y-48265760D01*
X147213661Y-48301750D01*
X147143823Y-48299649D01*
X147086207Y-48260124D01*
X147066138Y-48225110D01*
X147020889Y-48103796D01*
X146987214Y-48058812D01*
X146933261Y-47986739D01*
X146816204Y-47899111D01*
X146679203Y-47848011D01*
X146618654Y-47841500D01*
X146618638Y-47841500D01*
X144821362Y-47841500D01*
X144821345Y-47841500D01*
X144760797Y-47848011D01*
X144760795Y-47848011D01*
X144623795Y-47899111D01*
X144506739Y-47986739D01*
X144419111Y-48103795D01*
X144368011Y-48240795D01*
X144368011Y-48240797D01*
X144361500Y-48301345D01*
X142675212Y-48301345D01*
X142579243Y-48197097D01*
X142579238Y-48197092D01*
X142401577Y-48058812D01*
X142401572Y-48058808D01*
X142203580Y-47951661D01*
X142203577Y-47951659D01*
X142203574Y-47951658D01*
X142203571Y-47951657D01*
X142203569Y-47951656D01*
X141990637Y-47878556D01*
X141768569Y-47841500D01*
X141543431Y-47841500D01*
X141321362Y-47878556D01*
X141108430Y-47951656D01*
X141108419Y-47951661D01*
X140910427Y-48058808D01*
X140910422Y-48058812D01*
X140732761Y-48197092D01*
X140732756Y-48197097D01*
X140580284Y-48362723D01*
X140580276Y-48362734D01*
X140489808Y-48501206D01*
X140436662Y-48546562D01*
X140367431Y-48555986D01*
X140304095Y-48526484D01*
X140282192Y-48501206D01*
X140191723Y-48362734D01*
X140191715Y-48362723D01*
X140039243Y-48197097D01*
X140039238Y-48197092D01*
X139861577Y-48058812D01*
X139861572Y-48058808D01*
X139663580Y-47951661D01*
X139663577Y-47951659D01*
X139663574Y-47951658D01*
X139663571Y-47951657D01*
X139663569Y-47951656D01*
X139450637Y-47878556D01*
X139228569Y-47841500D01*
X139003431Y-47841500D01*
X138781362Y-47878556D01*
X138568430Y-47951656D01*
X138568419Y-47951661D01*
X138370427Y-48058808D01*
X138370422Y-48058812D01*
X138192761Y-48197092D01*
X138192756Y-48197097D01*
X138040284Y-48362723D01*
X138040276Y-48362734D01*
X137949808Y-48501206D01*
X137896662Y-48546562D01*
X137827431Y-48555986D01*
X137764095Y-48526484D01*
X137742192Y-48501206D01*
X137651723Y-48362734D01*
X137651715Y-48362723D01*
X137499243Y-48197097D01*
X137499238Y-48197092D01*
X137321577Y-48058812D01*
X137321572Y-48058808D01*
X137123580Y-47951661D01*
X137123577Y-47951659D01*
X137123574Y-47951658D01*
X137123571Y-47951657D01*
X137123569Y-47951656D01*
X136910637Y-47878556D01*
X136688569Y-47841500D01*
X136463431Y-47841500D01*
X136241362Y-47878556D01*
X136028430Y-47951656D01*
X136028419Y-47951661D01*
X135830427Y-48058808D01*
X135830422Y-48058812D01*
X135652761Y-48197092D01*
X135652756Y-48197097D01*
X135500284Y-48362723D01*
X135500276Y-48362734D01*
X135409808Y-48501206D01*
X135356662Y-48546562D01*
X135287431Y-48555986D01*
X135224095Y-48526484D01*
X135202192Y-48501206D01*
X135111723Y-48362734D01*
X135111715Y-48362723D01*
X134959243Y-48197097D01*
X134959238Y-48197092D01*
X134781577Y-48058812D01*
X134781572Y-48058808D01*
X134583580Y-47951661D01*
X134583577Y-47951659D01*
X134583574Y-47951658D01*
X134583571Y-47951657D01*
X134583569Y-47951656D01*
X134370637Y-47878556D01*
X134148569Y-47841500D01*
X133923431Y-47841500D01*
X133701362Y-47878556D01*
X133488430Y-47951656D01*
X133488419Y-47951661D01*
X133290427Y-48058808D01*
X133290422Y-48058812D01*
X133112761Y-48197092D01*
X133112756Y-48197097D01*
X132960284Y-48362723D01*
X132960276Y-48362734D01*
X132869808Y-48501206D01*
X132816662Y-48546562D01*
X132747431Y-48555986D01*
X132684095Y-48526484D01*
X132662192Y-48501206D01*
X132571723Y-48362734D01*
X132571715Y-48362723D01*
X132419243Y-48197097D01*
X132419238Y-48197092D01*
X132241577Y-48058812D01*
X132241572Y-48058808D01*
X132043580Y-47951661D01*
X132043577Y-47951659D01*
X132043574Y-47951658D01*
X132043571Y-47951657D01*
X132043569Y-47951656D01*
X131830637Y-47878556D01*
X131608569Y-47841500D01*
X131383431Y-47841500D01*
X131161362Y-47878556D01*
X130948430Y-47951656D01*
X130948419Y-47951661D01*
X130750427Y-48058808D01*
X130750422Y-48058812D01*
X130572761Y-48197092D01*
X130572756Y-48197097D01*
X130420284Y-48362723D01*
X130420276Y-48362734D01*
X130329808Y-48501206D01*
X130276662Y-48546562D01*
X130207431Y-48555986D01*
X130144095Y-48526484D01*
X130122192Y-48501206D01*
X130031723Y-48362734D01*
X130031715Y-48362723D01*
X129879243Y-48197097D01*
X129879238Y-48197092D01*
X129701577Y-48058812D01*
X129701572Y-48058808D01*
X129503580Y-47951661D01*
X129503577Y-47951659D01*
X129503574Y-47951658D01*
X129503571Y-47951657D01*
X129503569Y-47951656D01*
X129290637Y-47878556D01*
X129068569Y-47841500D01*
X128843431Y-47841500D01*
X128621362Y-47878556D01*
X128408430Y-47951656D01*
X128408419Y-47951661D01*
X128210427Y-48058808D01*
X128210422Y-48058812D01*
X128032761Y-48197092D01*
X128032756Y-48197097D01*
X127880284Y-48362723D01*
X127880276Y-48362734D01*
X127786251Y-48506650D01*
X127733105Y-48552007D01*
X127663873Y-48561430D01*
X127600538Y-48531928D01*
X127580868Y-48509951D01*
X127454113Y-48328926D01*
X127454108Y-48328920D01*
X127287082Y-48161894D01*
X127093578Y-48026399D01*
X126879492Y-47926570D01*
X126879486Y-47926567D01*
X126666000Y-47869364D01*
X126666000Y-48766988D01*
X126608993Y-48734075D01*
X126481826Y-48700000D01*
X126350174Y-48700000D01*
X126223007Y-48734075D01*
X126166000Y-48766988D01*
X126166000Y-47869364D01*
X126165999Y-47869364D01*
X125952513Y-47926567D01*
X125952507Y-47926570D01*
X125738422Y-48026399D01*
X125738420Y-48026400D01*
X125544926Y-48161886D01*
X125544920Y-48161891D01*
X125377891Y-48328920D01*
X125377890Y-48328922D01*
X125251131Y-48509952D01*
X125196554Y-48553577D01*
X125127055Y-48560769D01*
X125064701Y-48529247D01*
X125045752Y-48506656D01*
X124951722Y-48362732D01*
X124951715Y-48362725D01*
X124951715Y-48362723D01*
X124799243Y-48197097D01*
X124799238Y-48197092D01*
X124621577Y-48058812D01*
X124621572Y-48058808D01*
X124423580Y-47951661D01*
X124423577Y-47951659D01*
X124423574Y-47951658D01*
X124423571Y-47951657D01*
X124423569Y-47951656D01*
X124210637Y-47878556D01*
X123988569Y-47841500D01*
X123763431Y-47841500D01*
X123541362Y-47878556D01*
X123328430Y-47951656D01*
X123328419Y-47951661D01*
X123130427Y-48058808D01*
X123130422Y-48058812D01*
X122952761Y-48197092D01*
X122952756Y-48197097D01*
X122800284Y-48362723D01*
X122800276Y-48362734D01*
X122709808Y-48501206D01*
X122656662Y-48546562D01*
X122587431Y-48555986D01*
X122524095Y-48526484D01*
X122502192Y-48501206D01*
X122411723Y-48362734D01*
X122411715Y-48362723D01*
X122259243Y-48197097D01*
X122259238Y-48197092D01*
X122081577Y-48058812D01*
X122081572Y-48058808D01*
X121883580Y-47951661D01*
X121883577Y-47951659D01*
X121883574Y-47951658D01*
X121883571Y-47951657D01*
X121883569Y-47951656D01*
X121670637Y-47878556D01*
X121448569Y-47841500D01*
X121223431Y-47841500D01*
X121001362Y-47878556D01*
X120788430Y-47951656D01*
X120788419Y-47951661D01*
X120590427Y-48058808D01*
X120590422Y-48058812D01*
X120412761Y-48197092D01*
X120349548Y-48265760D01*
X120289661Y-48301750D01*
X120219823Y-48299649D01*
X120162207Y-48260124D01*
X120142138Y-48225110D01*
X120096889Y-48103796D01*
X120063214Y-48058812D01*
X120009261Y-47986739D01*
X119892204Y-47899111D01*
X119755203Y-47848011D01*
X119694654Y-47841500D01*
X119694638Y-47841500D01*
X117897362Y-47841500D01*
X117897345Y-47841500D01*
X117836797Y-47848011D01*
X117836795Y-47848011D01*
X117699795Y-47899111D01*
X117582739Y-47986739D01*
X117495111Y-48103795D01*
X117444011Y-48240795D01*
X117444011Y-48240797D01*
X117437500Y-48301345D01*
X100075500Y-48301345D01*
X100075500Y-47447753D01*
X100076036Y-47441460D01*
X100075543Y-47422649D01*
X100075500Y-47419394D01*
X100075500Y-47400547D01*
X100074797Y-47394262D01*
X100060848Y-46862753D01*
X100078767Y-46795220D01*
X100130352Y-46748096D01*
X100184805Y-46735500D01*
X100746982Y-46735500D01*
X163417365Y-46735500D01*
X163484404Y-46755185D01*
G37*
%TD.AperFunction*%
%TD*%
M02*
